<?xml version="1.0" encoding="UTF-8" standalone="no"?>
<!DOCTYPE svg PUBLIC "-//W3C//DTD SVG 1.1//EN" "http://www.w3.org/Graphics/SVG/1.1/DTD/svg11.dtd">
<svg width="100%" height="100%" viewBox="0 0 3736 3736" version="1.1"
    xmlns="http://www.w3.org/2000/svg"
    xmlns:xlink="http://www.w3.org/1999/xlink" xml:space="preserve"
    xmlns:serif="http://www.serif.com/" style="fill-rule:evenodd;clip-rule:evenodd;stroke-linejoin:round;stroke-miterlimit:2;">
    <path d="M2134,1416L2145,1477L2203,1445L2191,1386L2134,1416Z" style="fill:rgb(248,119,210);"/>
    <path d="M2194,1499L2203,1445L2145,1477L2194,1499Z" style="fill:rgb(209,163,122);"/>
    <path d="M2268,1434L2244,1357L2191,1386L2203,1445L2268,1434Z" style="fill:rgb(255,168,143);"/>
    <path d="M2308,1411L2290,1393L2244,1357L2268,1434L2308,1411Z" style="fill:rgb(188,170,208);"/>
    <path d="M2195,1326L2147,1351L2191,1386L2244,1357L2195,1326Z" style="fill:rgb(164,113,215);"/>
    <path d="M2175,1380L2146,1359L2138,1400L2175,1380Z" style="fill:rgb(133,121,246);"/>
    <path d="M2198,1379.5L2220,1367L2201,1354L2181,1365L2198,1379.5Z" style="fill:rgb(206,133,66);"/>
    <path d="M1727,1253L1760,1292L1723,1324L1680,1266L1727,1253Z" style="fill:rgb(203,136,206);"/>
    <path d="M1725,1267L1743,1291L1721,1310L1696,1275L1725,1267Z" style="fill:rgb(112,80,100);"/>
    <path d="M1354,2234L1319,2191L1371,2186L1354,2234Z" style="fill:rgb(141,139,208);"/>
    <path d="M1351,2139L1415,2138L1441,2181L1371,2186L1351,2139Z" style="fill:rgb(255,205,114);"/>
    <path d="M1383,2172L1374,2147L1408,2147L1422,2172L1383,2172Z" style="fill:rgb(237,206,62);"/>
    <path d="M1319,2191L1293,2141L1351,2139L1371,2186L1319,2191Z" style="fill:rgb(187,118,216);"/>
    <path d="M1338,2178L1329,2163L1351,2162L1358,2178L1338,2178Z" style="fill:rgb(198,153,56);"/>
    <path d="M1290,2117L1348,2117L1380,2062L1326,2068L1290,2117Z" style="fill:rgb(190,114,211);"/>
    <path d="M1444,2060L1411,2011L1361,2017L1380,2062L1444,2060Z" style="fill:rgb(233,125,117);"/>
    <path d="M1310,2023L1326,2068L1380,2062L1361,2017L1310,2023Z" style="fill:rgb(147,121,219);"/>
    <path d="M1269,2065L1290,2117L1326,2068L1310,2023L1269,2065Z" style="fill:rgb(125,116,220);"/>
    <path d="M1293,1974L1253,2010L1269,2065L1310,2023L1293,1974Z" style="fill:rgb(255,156,127);"/>
    <path d="M1351,1947L1293,1974L1310,2023L1361,2017L1351,1947Z" style="fill:rgb(167,135,211);"/>
    <path d="M1295,1917L1293,1974L1351,1947L1295,1917Z" style="fill:rgb(255,242,94);"/>
    <path d="M1326,2032L1334,2057L1365,2053L1355,2028L1326,2032Z" style="fill:rgb(221,166,66);"/>
    <path d="M1303,2042L1313,2069L1291,2098L1278,2066L1303,2042Z" style="fill:rgb(255,243,70);"/>
    <path d="M1329,2079L1311,2107L1344,2107L1362,2075L1329,2079Z" style="fill:rgb(209,138,66);"/>
    <path d="M1288,1990L1300,2022L1274,2047L1265,2011L1288,1990Z" style="fill:rgb(187,135,56);"/>
    <path d="M1304,1935L1304,1960L1337,1946L1304,1935Z" style="fill:rgb(203,186,46);"/>
    <path d="M1242,1998L1283,1961L1232,1938L1242,1998Z" style="fill:rgb(255,211,109);"/>
    <path d="M1245,1949L1267,1959L1249,1979L1245,1949Z" style="fill:rgb(196,178,44);"/>
    <path d="M1228,1876L1284,1904L1283,1961L1232,1938L1228,1876Z" style="fill:rgb(226,147,184);"/>
    <path d="M1277,1911L1276,1954L1238,1937L1236,1891L1277,1911Z" style="fill:rgb(233,184,69);"/>
    <path d="M1286,1890L1230,1862L1233,1800L1288,1824L1286,1890Z" style="fill:rgb(171,155,209);"/>
    <path d="M1242,1740L1293,1759L1288,1824L1233,1800L1242,1740Z" style="fill:rgb(143,119,235);"/>
    <path d="M1294,1748L1243,1728L1258,1671L1294,1748Z" style="fill:rgb(133,121,246);"/>
    <path d="M1342,1763L1310,1741L1342,1719L1382,1738L1342,1763Z" style="fill:rgb(255,181,132);"/>
    <path d="M1343,1724L1355,1731L1340,1741L1327,1734L1343,1724Z" style="fill:rgb(218,189,55);"/>
    <path d="M1310,1741L1284,1684L1327,1678L1342,1719L1310,1741Z" style="fill:rgb(141,120,237);"/>
    <path d="M1321,1727L1311,1704L1330,1702L1336,1718L1321,1727Z" style="fill:rgb(230,170,71);"/>
    <path d="M1346,1709L1326,1651L1374,1609L1397,1670L1346,1709Z" style="fill:rgb(149,126,214);"/>
    <path d="M1266,1660L1288,1607L1326,1651L1266,1660Z" style="fill:rgb(125,111,216);"/>
    <path d="M1291,1621L1311,1645L1278,1651L1291,1621Z" style="fill:rgb(211,111,82);"/>
    <path d="M1314,1554L1374,1609L1326,1651L1288,1607L1314,1554Z" style="fill:rgb(214,125,212);"/>
    <path d="M1388,1606L1367,1586L1390,1587L1407,1594L1388,1606Z" style="fill:rgb(151,150,205);"/>
    <path d="M1397,1627L1416,1615L1407,1594L1388,1606L1397,1627Z" style="fill:rgb(140,120,236);"/>
    <path d="M1389,1602L1395,1598L1391,1595L1382,1594L1389,1602Z" style="fill:rgb(178,162,40);"/>
    <path d="M1321,1540L1385,1545L1408,1501L1350,1492L1321,1540Z" style="fill:rgb(203,136,205);"/>
    <path d="M1395,1538L1443,1554L1481,1503L1420,1492L1395,1538Z" style="fill:rgb(255,255,91);"/>
    <path d="M1481,1503L1451,1452L1420,1492L1481,1503Z" style="fill:rgb(206,120,213);"/>
    <path d="M1453,1459L1472,1493L1431,1486L1453,1459Z" style="fill:rgb(197,142,109);"/>
    <path d="M1362,1483L1399,1439L1451,1452L1420,1492L1362,1483Z" style="fill:rgb(173,117,217);"/>
    <path d="M1410,1445L1445,1454L1422,1485L1384,1478L1410,1445Z" style="fill:rgb(192,117,132);"/>
    <path d="M1440,1399L1492,1416L1451,1452L1399,1439L1440,1399Z" style="fill:rgb(255,173,127);"/>
    <path d="M1542,1448L1481,1503L1451,1452L1492,1416L1542,1448Z" style="fill:rgb(171,119,218);"/>
    <path d="M1490,1423L1531,1449L1481,1494L1457,1452L1490,1423Z" style="fill:rgb(213,150,103);"/>
    <path d="M1447,1409L1483,1421L1451,1449L1415,1440L1447,1409Z" style="fill:rgb(173,126,118);"/>
    <path d="M1486,1361L1492,1416L1440,1399L1486,1361Z" style="fill:rgb(255,241,99);"/>
    <path d="M1539,1387L1596,1419L1542,1448L1492,1416L1539,1387" style="fill:rgb(255,230,102);"/>
    <path d="M1498,1502L1539,1464L1541,1512L1498,1502Z" style="fill:rgb(133,121,246);"/>
    <path d="M1605,1410L1548,1377L1544,1320L1591,1346L1605,1410Z" style="fill:rgb(190,143,209);"/>
    <path d="M1501,1403L1494,1351L1544,1320L1548,1377L1501,1403Z" style="fill:rgb(217,146,202);"/>
    <path d="M1595,1339L1548,1313L1600,1286L1595,1339Z" style="fill:rgb(133,121,246);"/>
    <path d="M1625,1316L1649,1307L1645,1332L1623,1339L1625,1316Z" style="fill:rgb(147,132,211);"/>
    <path d="M1655,1358L1629,1366L1623,1339L1645,1332L1655,1358Z" style="fill:rgb(225,146,185);"/>
    <path d="M1684,1367L1693,1374L1707,1372L1697,1363L1684,1367Z" style="fill:rgb(255,255,80);"/>
    <path d="M1692,1351L1694,1340L1704,1353L1697,1363L1692,1351Z" style="fill:rgb(137,80,112);"/>
    <path d="M1700,1356L1699,1354L1699,1351L1702,1353L1700,1356Z" style="fill:rgb(108,53,84);"/>
    <path d="M1704,1353L1717,1359L1707,1372L1697,1363L1704,1353Z" style="fill:rgb(150,119,224);"/>
    <path d="M1715,1345L1717,1359L1704,1353L1715,1345Z" style="fill:rgb(122,110,212);"/>
    <path d="M1705,1355L1703,1357L1706,1359L1707,1356L1705,1355Z" style="fill:rgb(194,146,105);"/>
    <path d="M1707,1353L1710,1351L1710,1354L1707,1353Z" style="fill:rgb(201,118,106);"/>
    <path d="M1821,1345L1830,1345L1836,1338L1828,1336L1821,1345Z" style="fill:rgb(255,255,88);"/>
    <path d="M1826,1328L1834,1331L1836,1338L1828,1336L1826,1328Z" style="fill:rgb(253,158,140);"/>
    <path d="M1821,1322L1829,1320L1826,1328L1821,1322Z" style="fill:rgb(255,152,121);"/>
    <path d="M1837,1320L1835,1327L1826,1328L1829,1320L1837,1320Z" style="fill:rgb(246,161,155);"/>
    <path d="M1846,1320L1840,1327L1835,1327L1837,1320L1846,1320Z" style="fill:rgb(255,203,108);"/>
    <path d="M1834,1331L1826,1328L1835,1327L1834,1331Z" style="fill:rgb(144,106,111);"/>
    <path d="M1840,1327L1834,1331L1835,1327L1840,1327Z" style="fill:rgb(184,152,47);"/>
    <path d="M1961,1366L1954,1363L1953,1357L1959,1358L1961,1366Z" style="fill:rgb(206,204,208);"/>
    <path d="M1958,1352L1952,1350L1953,1357L1959,1358L1958,1352Z" style="fill:rgb(255,145,125);"/>
    <path d="M1958,1346L1963,1349L1958,1352L1952.1,1350.03L1958,1346Z" style="fill:rgb(164,136,211);"/>
    <path d="M1963,1349L1964,1355L1959,1358L1958,1352L1963,1349Z" style="fill:rgb(255,142,129);"/>
    <path d="M1960,1342L1967,1343L1963,1349L1958,1346L1960,1342Z" style="fill:rgb(145,128,212);"/>
    <path d="M1968,1349L1964,1355L1963,1349L1967,1343L1968,1349Z" style="fill:rgb(231,128,212);"/>
    <path d="M1974,1350L1968,1349L1967,1343L1973,1345L1974,1350Z" style="fill:rgb(255,197,106);"/>
    <path d="M1960.56,1353.43L1962.4,1352.56L1962.7,1354.23L1960.99,1355.28L1960.56,1353.43Z" style="fill:rgb(214,169,94);"/>
    <path d="M1964.72,1351.8L1964.48,1350.48L1965.78,1348.61L1966,1350L1964.72,1351.8Z" style="fill:rgb(236,130,160);"/>
    <path d="M2064.41,1396.6C2064.3,1396.43 2062.94,1394.11 2062.94,1394.11L2065.85,1392.05L2064.41,1396.6Z" style="fill:rgb(126,113,225);"/>
    <path d="M2060,1392L2063.14,1389.63L2065.85,1392.05L2062.94,1394.11L2060,1392Z" style="fill:rgb(227,152,166);"/>
    <path d="M2063,1388L2066,1389L2065.85,1392.05L2063.14,1389.63L2063,1388Z" style="fill:rgb(245,217,92);"/>
    <path d="M2064,1385L2068,1387L2066,1389L2063,1388L2064,1385Z" style="fill:rgb(165,151,212);"/>
    <path d="M2057,1391L2060,1389L2063.14,1389.63L2060,1392L2057,1391Z" style="fill:rgb(161,137,216);"/>
    <path d="M2061,1387L2063,1388L2063.14,1389.63L2060,1389L2061,1387Z" style="fill:rgb(235,125,119);"/>
    <path d="M1477,1614L1465,1586L1502,1597L1477,1614Z" style="fill:rgb(203,136,205);"/>
    <path d="M1483,1602L1481,1598L1487,1599L1483,1602Z" style="fill:rgb(144,102,145);"/>
    <path d="M1504,1876L1499,1874L1504,1871L1509,1874L1504,1876Z" style="fill:rgb(152,114,219);"/>
    <path d="M1502,1883L1499,1880L1504,1876L1502,1883Z" style="fill:rgb(181,115,212);"/>
    <path d="M1508,1883L1509,1878L1504,1876L1502,1883L1508,1883Z" style="fill:rgb(122,113,237);"/>
    <path d="M1511,1886L1513,1881L1509,1878L1508,1883L1511,1886Z" style="fill:rgb(255,212,111);"/>
    <path d="M1509,1874L1504,1876L1509,1878L1509,1874Z" style="fill:rgb(171,126,190);"/>
    <path d="M1513,1876L1509,1874L1509,1878L1513,1881L1513,1876Z" style="fill:rgb(255,194,115);"/>
    <path d="M1504.93,1878.34L1507,1879L1506.44,1881.3L1504.3,1881.12L1504.93,1878.34Z" style="fill:rgb(204,121,125);"/>
    <path d="M1504,2045L1497,2033L1503,2023L1511,2033L1504,2045Z" style="fill:rgb(115,108,208);"/>
    <path d="M1518,2021L1528,2028L1523,2039L1511,2033L1518,2021Z" style="fill:rgb(152,110,209);"/>
    <path d="M1518,2050L1504,2045L1511,2033L1523,2039L1518,2050Z" style="fill:rgb(209,146,186);"/>
    <path d="M1527,2061L1518,2050L1523,2039L1532,2047L1527,2061Z" style="fill:rgb(155,136,210);"/>
    <path d="M1496,1973L1494,1969L1499,1969L1496,1973Z" style="fill:rgb(206,138,207);"/>
    <path d="M1464,2118L1458,2116L1460,2110L1468,2113L1464,2118Z" style="fill:rgb(217,119,76);"/>
    <path d="M1470,2113L1470,2116L1464,2118L1468,2113L1470,2113Z" style="fill:rgb(157,83,93);"/>
    <path d="M1474,2111L1469,2122L1481,2122L1488,2111L1474,2111Z" style="fill:rgb(121,65,60);"/>
    <path d="M1565,1611L1561,1609L1561,1605L1566,1607L1565,1611Z" style="fill:rgb(146,115,220);"/>
    <path d="M1570,1609L1566,1607L1566,1603L1571,1604L1570,1609Z" style="fill:rgb(184,142,208);"/>
    <path d="M1556,1603L1558,1600L1562,1601L1561,1605L1556,1603Z" style="fill:rgb(133,109,210);"/>
    <path d="M1566,1603L1566,1607L1561,1605L1562,1601L1566,1603Z" style="fill:rgb(149,120,220);"/>
    <path d="M1379,1881L1377,1880L1378,1877L1381,1878L1379,1881Z" style="fill:rgb(156,119,227);"/>
    <path d="M1378,1873L1381,1875L1381,1878L1378,1877L1378,1873Z" style="fill:rgb(255,168,99);"/>
    <path d="M1383,1873L1384,1876L1381,1878L1381,1875L1383,1873Z" style="fill:rgb(255,189,130);"/>
    <path d="M1386,1877L1386,1879L1381,1878L1384,1876L1386,1877Z" style="fill:rgb(255,223,108);"/>
    <path d="M1386,1882L1384,1885L1379,1881L1383,1881L1386,1882Z" style="fill:rgb(122,110,242);"/>
    <path d="M1386,1879L1383,1881L1379,1881L1381,1878L1386,1879Z" style="fill:rgb(223,203,142);"/>
    <path d="M1384,1885L1381,1886L1379,1881L1384,1885Z" style="fill:rgb(252,252,117);"/>
    <path d="M1607,1485L1604,1486L1606,1488L1607,1485Z" style="fill:rgb(245,215,156);"/>
    <path d="M2361,1394L2363,1402L2368,1397L2367,1389L2361,1394Z" style="fill:rgb(242,123,85);"/>
    <path d="M2355,1409L2362,1415L2368,1407L2363,1402L2355,1409Z" style="fill:rgb(229,206,55);"/>
    <path d="M2374,1402L2368,1397L2363,1402L2368,1407L2374,1402Z" style="fill:rgb(140,120,231);"/>
    <path d="M2377,1398L2368,1397L2374,1402L2377,1398Z" style="fill:rgb(255,252,85);"/>
    <path d="M2383,1394L2386,1387L2377,1390L2377,1398L2383,1394Z" style="fill:rgb(132,111,212);"/>
    <path d="M2367,1389L2368,1397L2377,1398L2377,1390L2367,1389Z" style="fill:rgb(255,162,95);"/>
    <path d="M2369,1391L2370,1395L2375,1396L2375,1392L2369,1391Z" style="fill:rgb(183,137,52);"/>
    <path d="M2379,1391L2379,1394L2382,1393L2383,1390L2379,1391Z" style="fill:rgb(154,98,50);"/>
    <path d="M1472,1708L1475,1707L1475,1704L1472,1705L1472,1708Z" style="fill:rgb(216,155,109);"/>
    <path d="M1472,1712L1469,1714L1469,1711L1472,1708L1472,1712Z" style="fill:rgb(189,165,45);"/>
    <path d="M2405,1039L2433,1057L2462,1043L2435,1021L2405,1039Z" style="fill:rgb(255,255,91);"/>
    <path d="M2404,1005L2433,987L2456,1003L2435,1021L2404,1005Z" style="fill:rgb(139,110,213);"/>
    <path d="M2485,1003L2462,1043L2435,1021L2456,1003L2485,1003Z" style="fill:rgb(213,115,108);"/>
    <path d="M2464,974L2496,969L2485,1003L2456,1003L2464,974Z" style="fill:rgb(144,134,210);"/>
    <path d="M2520,996L2508,1029L2485,1003L2520,996Z" style="fill:rgb(255,247,97);"/>
    <path d="M2485,1069L2462,1043L2485,1003L2508,1029L2485,1069Z" style="fill:rgb(231,153,172);"/>
    <path d="M2486,1056L2472,1040L2486,1017L2499,1032L2486,1056Z" style="fill:rgb(242,169,82);"/>
    <path d="M2459,1075L2485,1069L2462,1043L2433,1057L2459,1075Z" style="fill:rgb(202,115,216);"/>
    <path d="M2459,1073L2481,1068L2462,1045L2436,1057L2459,1073Z" style="fill:rgb(198,109,108);"/>
    <path d="M2442,947L2422,934L2426,903L2447,924L2442,947Z" style="fill:rgb(204,136,206);"/>
    <path d="M2440,941L2425,932L2428,909L2444,924L2440,941Z" style="fill:rgb(184,113,138);"/>
    <path d="M2363,917L2338,905L2334,878L2367,887L2363,917Z" style="fill:rgb(189,137,210);"/>
    <path d="M2359,910L2343,902L2340,884L2361,891L2359,910Z" style="fill:rgb(239,182,78);"/>
    <path d="M2309,891L2334,878L2338,905L2315,918L2309,891Z" style="fill:rgb(139,122,245);"/>
    <path d="M2374,950L2330,979L2327,931L2374,950Z" style="fill:rgb(220,116,211);"/>
    <path d="M2377,1003L2330,1028L2287,1005L2330,979L2377,1003Z" style="fill:rgb(149,111,213);"/>
    <path d="M2283,953L2327,931L2330,979L2287,1005L2283,953Z" style="fill:rgb(224,149,184);"/>
    <path d="M2240,985L2283,953L2287,1005L2240,985Z" style="fill:rgb(255,210,111);"/>
    <path d="M2231,934L2272,900L2283,953L2240,985L2231,934Z" style="fill:rgb(145,127,212);"/>
    <path d="M2222,885L2272,900L2231,934L2222,885Z" style="fill:rgb(168,111,209);"/>
    <path d="M2300,978L2300,964L2313,957L2313,971L2300,978Z" style="fill:rgb(229,169,90);"/>
    <path d="M2210,981L2159,962L2200,927L2210,981Z" style="fill:rgb(217,178,84);"/>
    <path d="M2147,906L2190,872L2200,927L2159,962L2147,906Z" style="fill:rgb(224,148,185);"/>
    <path d="M2145,964L2094,950L2133,910L2145,964Z" style="fill:rgb(203,137,205);"/>
    <path d="M2129,918L2137,955L2102,946L2129,918Z" style="fill:rgb(174,113,157);"/>
    <path d="M2090,851L2109,899L2072,936L2056,888L2090,851Z" style="fill:rgb(139,122,243);"/>
    <path d="M2022,926L2005,880L2056,888L2072,936L2022,926Z" style="fill:rgb(255,125,212);"/>
    <path d="M2008.64,880.571L2054,889L2068.66,935.332L2022.84,926.169L2008.64,880.571Z" style="fill:rgb(161,114,47);"/>
    <path d="M1972,920L2005,880L2022,926L1972,920Z" style="fill:rgb(174,113,157);"/>
    <path d="M2019,924L1974,919L2004,883L2019,924Z" style="fill:rgb(194,107,72);"/>
    <path d="M2262,867L2222,853L2269,834L2299,847L2262,867Z" style="fill:rgb(204,136,205);"/>
    <path d="M2219,831L2207,796L2245,788L2260,814L2219,831Z" style="fill:rgb(141,120,238);"/>
    <path d="M2221,828L2212,798L2243,792L2256,813L2221,828Z" style="fill:rgb(235,165,89);"/>
    <path d="M2245,788L2283,781L2260,814L2245,788Z" style="fill:rgb(255,205,110);"/>
    <path d="M2247,789L2281,782L2260,812L2247,789Z" style="fill:rgb(205,159,58);"/>
    <path d="M2313,819L2335,785L2360,805L2341,831L2313,819Z" style="fill:rgb(136,121,241);"/>
    <path d="M2400,807L2387,844L2341,831L2360,805L2400,807Z" style="fill:rgb(199,127,212);"/>
    <path d="M2363,812L2390,813L2382,838L2350,829L2363,812Z" style="fill:rgb(217,181,59);"/>
    <path d="M2460,831L2461,826L2466,826L2464,831L2460,831Z" style="fill:rgb(207,139,209);"/>
    <path d="M2484,761L2482,758L2486,757L2488,761L2484,761Z" style="fill:rgb(249,162,82);"/>
    <path d="M2489,756L2492,760L2488,761L2486,757L2489,756Z" style="fill:rgb(255,230,109);"/>
    <path d="M2502,889L2489,876L2507,872L2502,889Z" style="fill:rgb(255,219,95);"/>
    <path d="M2500,884L2494,878L2501,876L2500,884Z" style="fill:rgb(174,137,47);"/>
    <path d="M2512,856L2530,853L2524,870L2507,872L2512,856Z" style="fill:rgb(198,124,174);"/>
    <path d="M2516,860L2522,859L2520,866L2514,866L2516,860Z" style="fill:rgb(135,96,131);"/>
    <path d="M2535,882L2518,886L2524,870L2535,882Z" style="fill:rgb(255,160,119);"/>
    <path d="M2530,900L2512,903L2518,886L2535,882L2530,900Z" style="fill:rgb(186,168,208);"/>
    <path d="M2507,872L2524,870L2518,886L2502,889L2507,872Z" style="fill:rgb(170,133,96);"/>
    <path d="M2690,945L2680,935L2693,931L2690,945Z" style="fill:rgb(149,126,214);"/>
    <path d="M2674,948L2663,937L2669,922L2680,935L2674,948Z" style="fill:rgb(153,116,213);"/>
    <path d="M2673,945L2665,936L2669,925L2678,935L2673,945Z" style="fill:rgb(217,132,71);"/>
    <path d="M2669,922L2674,906L2685,918L2669,922Z" style="fill:rgb(242,128,110);"/>
    <path d="M2693,931L2680,935L2669,922L2685,918L2693,931Z" style="fill:rgb(169,127,213);"/>
    <path d="M2702,918L2709,932L2693,931L2685,918L2702,918Z" style="fill:rgb(198,124,174);"/>
    <path d="M2701,919L2707,931L2694,930L2687,919L2701,919Z" style="fill:rgb(201,174,50);"/>
    <path d="M2743,887L2731,864L2756,865L2769,887L2743,887Z" style="fill:rgb(153,110,210);"/>
    <path d="M2744,884L2735,867L2755,867L2765,885L2744,884Z" style="fill:rgb(172,100,115);"/>
    <path d="M2744,843L2756,865L2731,864L2744,843Z" style="fill:rgb(174,131,212);"/>
    <path d="M2756,820L2770,843L2756,865L2744,843L2756,820Z" style="fill:rgb(170,123,215);"/>
    <path d="M2717,843L2744,843L2731,864L2704,863L2717,843Z" style="fill:rgb(142,119,227);"/>
    <path d="M2704,820L2717,843L2704,863L2685,844L2704,820Z" style="fill:rgb(210,140,190);"/>
    <path d="M2704,822L2716,842L2704,861L2687,844L2704,822Z" style="fill:rgb(190,129,127);"/>
    <path d="M2669,824L2704,820L2685,844L2669,824Z" style="fill:rgb(216,119,76);"/>
    <path d="M2677,869L2659,849L2669,824L2685,844L2677,869Z" style="fill:rgb(255,196,118);"/>
    <path d="M2669,832L2681,845L2675,863L2663,849L2669,832Z" style="fill:rgb(206,182,49);"/>
    <path d="M2144,797L2155,832L2125,853L2111,817L2144,797Z" style="fill:rgb(116,110,215);"/>
    <path d="M2072,809L2061,775L2100,782L2111,817L2072,809Z" style="fill:rgb(129,109,208);"/>
    <path d="M2128,768L2144,797L2111,817L2100,782L2128,768Z" style="fill:rgb(140,120,236);"/>
    <path d="M2127,775L2139,796L2113,811L2106,785L2127,775Z" style="fill:rgb(227,116,93);"/>
    <path d="M2158,757L2144,797L2128,768L2158,757Z" style="fill:rgb(252,244,87);"/>
    <path d="M2155,760L2144,793L2130,769L2155,760Z" style="fill:rgb(170,155,38);"/>
    <path d="M2224,723L2228,711L2240,709L2236,720L2224,723Z" style="fill:rgb(251,147,81);"/>
    <path d="M2232,699L2244,697L2240,709L2228,711L2232,699Z" style="fill:rgb(241,195,112);"/>
    <path d="M2322,698L2327,683L2343,680L2338,694L2322,698Z" style="fill:rgb(230,143,171);"/>
    <path d="M2332,668L2348,666L2343,680L2327,683L2332,668Z" style="fill:rgb(122,121,208);"/>
    <path d="M2338,653L2353,651L2348,666L2332,668L2338,653Z" style="fill:rgb(129,109,209);"/>
    <path d="M2358,677L2343,680L2348,666L2358,677Z" style="fill:rgb(132,129,208);"/>
    <path d="M2353,691L2338,694L2343,680L2358,677L2353,691Z" style="fill:rgb(171,118,218);"/>
    <path d="M2363,703L2347,703L2338,694L2353,691L2363,703Z" style="fill:rgb(188,117,214);"/>
    <path d="M2172,668L2173,656L2184,655L2181,665L2172,668Z" style="fill:rgb(172,94,69);"/>
    <path d="M2166,646L2177,645L2173,656L2166,646Z" style="fill:rgb(184,153,186);"/>
    <path d="M2168,647L2175,647L2172,654L2168,647Z" style="fill:rgb(231,201,77);"/>
    <path d="M2177,645L2188,643L2184,655L2173,656L2177,645Z" style="fill:rgb(185,140,131);"/>
    <path d="M2119,669L2115,713L2084,727L2071,685L2119,669Z" style="fill:rgb(148,128,212);"/>
    <path d="M2115,674L2112,710L2086,722L2075,687L2115,674Z" style="fill:rgb(239,213,59);"/>
    <path d="M2058,646L2094,633L2119,669L2071,685L2058,646Z" style="fill:rgb(255,147,139);"/>
    <path d="M2029,676L2058,646L2071,685L2029,676Z" style="fill:rgb(208,120,144);"/>
    <path d="M2030,712L2035,728L2018,724L2030,712Z" style="fill:rgb(167,120,218);"/>
    <path d="M2012,708L2030,712L2018,724L2001,720L2012,708Z" style="fill:rgb(139,121,238);"/>
    <path d="M1993,711L1959,751L1921,734L1943,699L1993,711Z" style="fill:rgb(166,163,208);"/>
    <path d="M1953,717L1968,721L1958,733L1947,728L1953,717Z" style="fill:rgb(195,181,45);"/>
    <path d="M1962,804L1911,798L1921,734L1959,751L1962,804Z" style="fill:rgb(155,115,221);"/>
    <path d="M2009,762L2022,807L1962,804L1959,751L2009,762Z" style="fill:rgb(141,112,215);"/>
    <path d="M2073,820L2039,858L1988,847L2022,807L2073,820Z" style="fill:rgb(187,176,208);"/>
    <path d="M1962,804L2022,807L1988,847L1962,804Z" style="fill:rgb(237,216,66);"/>
    <path d="M1932,843L1911,798L1962,804L1932,843Z" style="fill:rgb(255,155,140);"/>
    <path d="M1956,889L1932,843L1962,804L1988,847L1956,889Z" style="fill:rgb(180,131,158);"/>
    <path d="M1957,880L1938,844L1961,815L1982,847L1957,880Z" style="fill:rgb(200,146,105);"/>
    <path d="M1891,688L1871,658L1905,666L1891,688Z" style="fill:rgb(133,121,246);"/>
    <path d="M1915,634L1932,616L1958,621L1940,641L1915,634Z" style="fill:rgb(255,178,127);"/>
    <path d="M1983,627L1965,646L1940,641L1958,621L1983,627Z" style="fill:rgb(141,112,215);"/>
    <path d="M1958,623L1981,628L1964,645L1942,640L1958,623Z" style="fill:rgb(155,111,137);"/>
    <path d="M1899,903L1877,860L1851,899L1899,903Z" style="fill:rgb(172,114,214);"/>
    <path d="M1824,859L1808,812L1856,813L1877,860L1824,859Z" style="fill:rgb(142,130,211);"/>
    <path d="M1800,897L1824,859L1877,860L1851,899L1800,897Z" style="fill:rgb(214,131,168);"/>
    <path d="M1776,853L1824,859L1800,897L1797,897L1776,853Z" style="fill:rgb(119,108,207);"/>
    <path d="M1720,872L1776,853L1797,897L1750,908L1720,872Z" style="fill:rgb(171,96,65);"/>
    <path d="M1789,777L1833,769L1856,813L1808,812L1789,777Z" style="fill:rgb(157,133,212);"/>
    <path d="M1807,784L1827,781L1838,801L1816,801L1807,784Z" style="fill:rgb(195,159,87);"/>
    <path d="M1702,855L1675,842L1696,823L1702,855Z" style="fill:rgb(255,199,107);"/>
    <path d="M1725,816L1735,841L1702,855L1696,823L1725,816Z" style="fill:rgb(151,115,221);"/>
    <path d="M1753,821L1764,846L1735,841L1725,816L1753,821Z" style="fill:rgb(120,108,208);"/>
    <path d="M1783,781L1755,776L1772,761L1783,781Z" style="fill:rgb(133,121,247);"/>
    <path d="M1786,733L1751,739L1728,706L1761,710L1786,733Z" style="fill:rgb(194,158,86);"/>
    <path d="M1729,757L1702,733L1728,706L1751,739L1729,757Z" style="fill:rgb(145,119,232);"/>
    <path d="M1665,727L1702,733L1729,757L1692,767L1665,727Z" style="fill:rgb(188,116,215);"/>
    <path d="M1672,731L1700,735L1721,755L1695,763L1672,731Z" style="fill:rgb(145,97,145);"/>
    <path d="M1665,727L1691,698L1728,706L1702,733L1665,727Z" style="fill:rgb(255,130,96);"/>
    <path d="M1818,721L1806,700L1823,691L1818,721Z" style="fill:rgb(160,87,102);"/>
    <path d="M1788,684L1808,668L1823,691L1806,700L1788,684Z" style="fill:rgb(181,146,90);"/>
    <path d="M1766,681L1783,662L1808,668L1788,684L1766,681Z" style="fill:rgb(254,155,154);"/>
    <path d="M1803,669L1788,682L1770,679L1784,664L1803,669" style="fill:rgb(234,173,73);"/>
    <path d="M1758,657L1783,662L1766,681L1740,675L1758,657Z" style="fill:rgb(119,103,191);"/>
    <path d="M1759,658L1780,662L1765,679L1743,674L1759,658Z" style="fill:rgb(145,86,51);"/>
    <path d="M1801,643L1826,648L1808,668L1783,662L1801,643Z" style="fill:rgb(203,179,49);"/>
    <path d="M1602,838L1640,802L1601,740L1566,778L1602,838Z" style="fill:rgb(220,145,195);"/>
    <path d="M1559,848L1530,817L1566,778L1602,838L1559,848" style="fill:rgb(191,173,208);"/>
    <path d="M1551,746L1529,741L1543,724L1567,730L1551,746Z" style="fill:rgb(203,136,205);"/>
    <path d="M1548,740L1541,737L1547,731L1554,733L1548,740Z" style="fill:rgb(221,117,80);"/>
    <path d="M1529,775L1499,807L1487,765L1529,775Z" style="fill:rgb(197,140,210);"/>
    <path d="M1456,798L1443,756L1487,765L1499,807L1456,798Z" style="fill:rgb(139,121,242);"/>
    <path d="M1502,801L1492,770L1524,777L1502,801Z" style="fill:rgb(195,169,47);"/>
    <path d="M1565,877L1611,866L1598,910L1550,922L1565,877Z" style="fill:rgb(255,189,119);"/>
    <path d="M1571,883L1600,876L1591,904L1562,911L1571,883Z" style="fill:rgb(181,139,50);"/>
    <path d="M1664,893L1646,941L1598,910L1611,866L1664,893Z" style="fill:rgb(200,133,197);"/>
    <path d="M1703,932L1646,941L1664,893L1703,932Z" style="fill:rgb(183,100,106);"/>
    <path d="M1627,894L1640,901L1634,912L1623,905L1627,894Z" style="fill:rgb(240,126,81);"/>
    <path d="M1595,920L1644,952L1591,965L1595,920Z" style="fill:rgb(133,121,246);"/>
    <path d="M1078,1334L1058,1366L1037,1331L1062,1299L1078,1334Z" style="fill:rgb(133,121,246);"/>
    <path d="M1094,1312L1075,1269L1103,1231L1122,1274L1094,1312Z" style="fill:rgb(255,194,107);"/>
    <path d="M1037,1260L1053,1225L1103,1231L1075,1269L1037,1260Z" style="fill:rgb(139,124,250);"/>
    <path d="M1044,1258L1057,1229L1097,1234L1074,1265L1044,1258Z" style="fill:rgb(186,136,113);"/>
    <path d="M1152,1241L1122,1274L1103,1231L1152,1241Z" style="fill:rgb(127,110,213);"/>
    <path d="M1147,1243L1123,1269L1108,1234L1147,1243Z" style="fill:rgb(166,95,109);"/>
    <path d="M949,1640L912,1606L961,1595L949,1640Z" style="fill:rgb(133,121,247);"/>
    <path d="M1085,2417L1072,2399L1080,2390L1084,2395L1085,2417Z" style="fill:rgb(255,217,105);"/>
    <path d="M1082,2409L1076,2402L1079,2397L1082,2399L1082,2409Z" style="fill:rgb(192,149,99);"/>
    <path d="M1072,2399L1028,2387L1054,2352L1080,2390L1072,2399Z" style="fill:rgb(109,109,221);"/>
    <path d="M1078,2389L1071,2398L1030,2387L1054,2354L1078,2389Z" style="fill:rgb(123,91,99);"/>
    <path d="M1032,2314L1054,2352L1028,2387L1008,2350L1032,2314Z" style="fill:rgb(135,74,82);"/>
    <path d="M1071,2452L1029,2468L1013,2425L1057,2435L1071,2452Z" style="fill:rgb(121,108,210);"/>
    <path d="M1066,2501L1020,2517L1029,2468L1066,2501Z" style="fill:rgb(250,218,69);"/>
    <path d="M1009,2563L942,2552L968,2512L1020,2517L1009,2563Z" style="fill:rgb(214,115,110);"/>
    <path d="M987,2473L1029,2468L1020,2517L968,2512L987,2473Z" style="fill:rgb(244,213,89);"/>
    <path d="M1025,2471L1017,2514L973,2510L988,2475L1025,2471Z" style="fill:rgb(187,172,43);"/>
    <path d="M1015,2521L1005,2559L948,2550L970,2517L1015,2521Z" style="fill:rgb(149,81,64);"/>
    <path d="M969,2426L1013,2425L1029,2468L987,2473L969,2426Z" style="fill:rgb(219,153,166);"/>
    <path d="M974,2430L1011,2429L1025,2465L990,2469L974,2430Z" style="fill:rgb(222,185,82);"/>
    <path d="M945,2386L993,2387L1013,2425L969,2426L945,2386Z" style="fill:rgb(172,99,127);"/>
    <path d="M1057,2572L1080,2564L1076,2589L1052,2596L1057,2572Z" style="fill:rgb(142,119,235);"/>
    <path d="M1092,2606L1071,2613L1052,2596L1076,2589L1092,2606Z" style="fill:rgb(128,86,241);"/>
    <path d="M1089,2605L1072,2611L1056,2597L1075,2591L1089,2605Z" style="fill:rgb(244,205,74);"/>
    <path d="M725,2561L732,2574L709,2572L725,2561Z" style="fill:rgb(133,122,246);"/>
    <path d="M756,2525L781,2520L761,2502L756,2525Z" style="fill:rgb(203,136,205);"/>
    <path d="M760,2521L776,2518L763,2506L760,2521Z" style="fill:rgb(251,152,82);"/>
    <path d="M828,2607L834,2617L848,2617L841,2607L828,2607Z" style="fill:rgb(181,97,98);"/>
    <path d="M855,2606L848,2594L841,2607L848,2617L855,2606Z" style="fill:rgb(146,124,33);"/>
    <path d="M867,2605L862,2594L848,2594L855,2606L867,2605Z" style="fill:rgb(237,190,116);"/>
    <path d="M864,2603L860,2596L852,2596L856,2604L864,2603Z" style="fill:rgb(213,197,48);"/>
    <path d="M862,2594L868,2583L855,2583L862,2594Z" style="fill:rgb(188,114,211);"/>
    <path d="M834,2594L848,2594L842,2583L830,2584L834,2594Z" style="fill:rgb(255,124,211);"/>
    <path d="M855,2583L842,2583L848,2594L862,2594L855,2583Z" style="fill:rgb(187,117,61);"/>
    <path d="M862,2571L874,2572L868,2583L855,2583L862,2571Z" style="fill:rgb(163,150,209);"/>
    <path d="M811,2478L807,2474L809,2469L814,2473L811,2478Z" style="fill:rgb(214,146,205);"/>
    <path d="M817,2479L811,2478L814,2473L817,2479Z" style="fill:rgb(167,121,218);"/>
    <path d="M942,2332L898,2330L918,2297L963,2300L942,2332Z" style="fill:rgb(169,90,92);"/>
    <path d="M875,2368L844,2358L860,2319L898,2330L875,2368Z" style="fill:rgb(251,132,116);"/>
    <path d="M867,2334L881,2338L872,2353L861,2349L867,2334Z" style="fill:rgb(203,133,64);"/>
    <path d="M870,2278L918,2297L898,2330L860,2319L870,2278Z" style="fill:rgb(148,119,228);"/>
    <path d="M877,2287L909,2300L895,2322L871,2314L877,2287Z" style="fill:rgb(224,163,69);"/>
    <path d="M831,2291L870,2278L860,2319L831,2291Z" style="fill:rgb(209,184,51);"/>
    <path d="M822,2333L790,2306L831,2291L860,2319L822,2333Z" style="fill:rgb(192,135,211);"/>
    <path d="M835,2332L820,2369L801,2346L835,2332Z" style="fill:rgb(234,151,98);"/>
    <path d="M872,2441L868,2433L873,2433L876,2436L872,2441Z" style="fill:rgb(117,109,212);"/>
    <path d="M875,2428L879,2433L876,2436L873,2433L875,2428Z" style="fill:rgb(247,131,213);"/>
    <path d="M882,2436L881,2438L876,2436L879,2433L882,2436Z" style="fill:rgb(162,136,213);"/>
    <path d="M707,2443L702,2438L697,2440L701,2444L707,2443Z" style="fill:rgb(137,110,212);"/>
    <path d="M699,2434L702,2438L697,2440L699,2434Z" style="fill:rgb(138,131,209);"/>
    <path d="M704,2432L708,2436L702,2438L699,2434L704,2432Z" style="fill:rgb(141,123,223);"/>
    <path d="M731,2362L710,2344L736,2335L750,2351L731,2362Z" style="fill:rgb(122,109,209);"/>
    <path d="M688,2326L714,2316L736,2335L710,2344L688,2326Z" style="fill:rgb(133,127,209);"/>
    <path d="M683,2353L662,2335L688,2326L710,2344L683,2353Z" style="fill:rgb(139,120,220);"/>
    <path d="M666,2308L694,2299L714,2316L688,2326L666,2308Z" style="fill:rgb(149,112,212);"/>
    <path d="M671,2309L693,2301L710,2315L688,2324L671,2309Z" style="fill:rgb(237,127,80);"/>
    <path d="M951,2263L1010,2268L987,2222L951,2263Z" style="fill:rgb(189,102,109);"/>
    <path d="M961,2258L1000,2261L985,2229L961,2258Z" style="fill:rgb(214,112,81);"/>
    <path d="M884,2242L931,2209L951,2263L884,2242Z" style="fill:rgb(219,171,64);"/>
    <path d="M967,2167L987,2222L951,2263L931,2209L967,2167Z" style="fill:rgb(184,121,147);"/>
    <path d="M911,2195L878,2218L848,2190L881,2175L911,2195Z" style="fill:rgb(183,169,209);"/>
    <path d="M899,2147L937,2166L911,2195L881,2175L899,2147Z" style="fill:rgb(220,145,193);"/>
    <path d="M902,2154L929,2167L911,2188L890,2174L902,2154Z" style="fill:rgb(224,122,109);"/>
    <path d="M763,2179L798,2167L792,2204L756,2216L763,2179Z" style="fill:rgb(255,219,106);"/>
    <path d="M819,2228L783,2239L756,2216L792,2204L819,2228Z" style="fill:rgb(161,111,209);"/>
    <path d="M750,2251L722,2227L756,2216L783,2239L750,2251Z" style="fill:rgb(124,109,210);"/>
    <path d="M727,2192L763,2179L756,2216L722,2227L727,2192Z" style="fill:rgb(242,214,73);"/>
    <path d="M662,2196L648,2201L650,2187L664,2183L662,2196Z" style="fill:rgb(123,109,211);"/>
    <path d="M639,2177L653,2172L664,2183L650,2187L639,2177Z" style="fill:rgb(202,149,150);"/>
    <path d="M668,2167L679,2177L664,2183L653,2172L668,2167Z" style="fill:rgb(199,196,207);"/>
    <path d="M964,2134L907,2107L948,2081L964,2134Z" style="fill:rgb(166,91,106);"/>
    <path d="M937,2019L948,2081L907,2107L891,2058L937,2019Z" style="fill:rgb(221,186,81);"/>
    <path d="M930,1957L937,2019L891,2058L863,1989L930,1957Z" style="fill:rgb(230,173,130);"/>
    <path d="M915,1980L921,2013L894,2035L880,1998L915,1980Z" style="fill:rgb(244,202,74);"/>
    <path d="M821,2166L832,2115L887,2110L865,2147L821,2166Z" style="fill:rgb(156,138,211);"/>
    <path d="M800,2028L851,2012L874,2067L830,2060L800,2028Z" style="fill:rgb(115,109,209);"/>
    <path d="M830,2060L874,2067L887,2110L832,2115L830,2060Z" style="fill:rgb(145,130,211);"/>
    <path d="M850,2078L864,2081L868,2094L849,2095L850,2078Z" style="fill:rgb(248,226,70);"/>
    <path d="M801,2056L773,2070L743,2045L778,2032L801,2056Z" style="fill:rgb(141,120,237);"/>
    <path d="M801,2095L773,2070L801,2056L801,2095Z" style="fill:rgb(237,205,63);"/>
    <path d="M782,2109L744,2121L712,2097L751,2083L782,2109Z" style="fill:rgb(180,99,111);"/>
    <path d="M764,2105L746,2112L732,2099L749,2093L764,2105Z" style="fill:rgb(154,89,57);"/>
    <path d="M673,2109L680,2069L719,2055L712,2097L673,2109Z" style="fill:rgb(238,186,75);fill-opacity:0.98;"/>
    <path d="M751,2083L712,2097L719,2055L751,2083Z" style="fill:rgb(234,158,159);"/>
    <path d="M721,2059L716,2093L747,2082L721,2059Z" style="fill:rgb(237,205,62);"/>
    <path d="M581,2071L594,2080L606,2076L593,2067L581,2071Z" style="fill:rgb(182,169,208);"/>
    <path d="M595,2056L608,2064L606,2076L593,2067L595,2056Z" style="fill:rgb(182,129,212);"/>
    <path d="M607,2052L619,2059L608,2064L595,2056L607,2052Z" style="fill:rgb(133,109,210);"/>
    <path d="M729,2000L775,1984L784,1936L737,1952L729,2000Z" style="fill:rgb(237,188,117);"/>
    <path d="M735,1993L772,1981L778,1942L741,1955L735,1993Z" style="fill:rgb(233,215,63);"/>
    <path d="M735,1904L737,1952L784,1936L784,1887L735,1904Z" style="fill:rgb(142,119,235);"/>
    <path d="M742,1910L744,1942L776,1930L777,1897L742,1910Z" style="fill:rgb(192,118,134);"/>
    <path d="M617,1944L624,1949L625,1941L617,1944Z" style="fill:rgb(255,151,90);"/>
    <path d="M686,1929L692,1929L693,1922L688,1925L686,1929Z" style="fill:rgb(129,109,210);"/>
    <path d="M687,1919L688,1925L693,1922L687,1919Z" style="fill:rgb(136,131,212);"/>
    <path d="M689,1911L687,1919L693,1922L696,1915L689,1911Z" style="fill:rgb(215,151,169);"/>
    <path d="M638,1854L643,1852L643,1848L639,1850L638,1854Z" style="fill:rgb(220,203,50);"/>
    <path d="M636,1846L639,1850L643,1848L640,1845L636,1846Z" style="fill:rgb(161,118,220);"/>
    <path d="M648,1847L645,1843L640,1845L643,1848L648,1847Z" style="fill:rgb(192,113,66);"/>
    <path d="M858,1973L926,1942L869,1912L858,1973Z" style="fill:rgb(203,136,205);"/>
    <path d="M872,1961L911,1942L878,1925L872,1961Z" style="fill:rgb(164,117,138);"/>
    <path d="M747,1863L775,1853L753,1836L747,1863Z" style="fill:rgb(133,121,246);"/>
    <path d="M731,1801L766,1832L810,1812L775,1782L731,1801Z" style="fill:rgb(189,147,209);"/>
    <path d="M804,1861L848,1844L810,1812L766,1832L804,1861Z" style="fill:rgb(251,192,122);"/>
    <path d="M851,1791L891,1820L848,1844L810,1812L851,1791Z" style="fill:rgb(168,115,217);"/>
    <path d="M889,1867L848,1844L891,1820L889,1867Z" style="fill:rgb(141,117,74);"/>
    <path d="M891,1912L848,1892L848,1844L889,1867L891,1912Z" style="fill:rgb(201,115,209);"/>
    <path d="M881,1898L858,1886L857,1859L881,1872L881,1898Z" style="fill:rgb(255,139,87);"/>
    <path d="M839,1938L794,1952L804,1907L848,1892L839,1938Z" style="fill:rgb(225,122,124);"/>
    <path d="M804,1861L848,1844L848,1892L804,1907L804,1861Z" style="fill:rgb(144,112,89);"/>
    <path d="M923,1777L930,1721L876,1742L923,1777Z" style="fill:rgb(158,143,210);"/>
    <path d="M940,1669L886,1687L930,1721L940,1669Z" style="fill:rgb(129,112,218);"/>
    <path d="M927,1715L936,1673L891,1688L927,1715Z" style="fill:rgb(217,119,110);"/>
    <path d="M833,1704L876,1742L930,1721L886,1687L833,1704Z" style="fill:rgb(160,120,219);"/>
    <path d="M770,1706L784,1699L772,1689L759,1696L770,1706Z" style="fill:rgb(163,113,214);"/>
    <path d="M759,1675L749,1685L759,1696L772,1689L759,1675Z" style="fill:rgb(166,127,213);"/>
    <path d="M736,1695L744,1703L759,1696L749,1685L736,1695Z" style="fill:rgb(198,155,93);"/>
    <path d="M734,1683L749,1685L759,1675L744,1671L734,1683Z" style="fill:rgb(255,189,125);"/>
    <path d="M775,1674L766,1666L759,1675L772,1689L775,1674Z" style="fill:rgb(150,94,128);"/>
    <path d="M787,1684L775,1674L772,1689L787,1684Z" style="fill:rgb(224,145,71);"/>
    <path d="M884,1638L918,1627L891,1602L857,1614L884,1638Z" style="fill:rgb(210,110,92);"/>
    <path d="M927,1593L905,1567L869,1573L891,1602L927,1593Z" style="fill:rgb(255,255,91);"/>
    <path d="M836,1594L857,1614L891,1602L869,1573L836,1594Z" style="fill:rgb(127,116,225);"/>
    <path d="M844,1594L859,1608L883,1599L867,1579L844,1594Z" style="fill:rgb(211,173,86);"/>
    <path d="M971,1576L988,1525L935,1534L971,1576Z" style="fill:rgb(203,136,206);"/>
    <path d="M967,1561L973,1539L949,1543L967,1561Z" style="fill:rgb(91,58,84);"/>
    <path d="M993,1501L1006,1469L969,1471L993,1501Z" style="fill:rgb(244,127,103);"/>
    <path d="M925,1484L947,1480L931,1461L909,1466L925,1484Z" style="fill:rgb(180,103,128);"/>
    <path d="M956,1459L945,1440L921,1440L931,1461L956,1459Z" style="fill:rgb(242,220,69);"/>
    <path d="M897,1443L909,1466L931,1461L921,1440L897,1443Z" style="fill:rgb(212,149,104);"/>
    <path d="M889,1461L909,1466L897,1443L889,1461" style="fill:rgb(137,112,218);"/>
    <path d="M773,1519L804,1531L843,1505L803,1488L773,1519Z" style="fill:rgb(147,109,209);"/>
    <path d="M885,1499L857,1470L843,1505L885,1499Z" style="fill:rgb(210,112,106);"/>
    <path d="M876,1496L859,1477L850,1500L876,1496Z" style="fill:rgb(137,80,50);"/>
    <path d="M822,1459L803,1488L843,1505L857,1470L822,1459Z" style="fill:rgb(228,156,164);"/>
    <path d="M825,1468L814,1485L838,1497L847,1474L825,1468Z" style="fill:rgb(238,181,76);"/>
    <path d="M789,1446L803,1488L822,1459L836,1424L789,1446Z" style="fill:rgb(200,167,92);"/>
    <path d="M794,1447L804,1479L820,1458L830,1430L794,1447Z" style="fill:rgb(255,254,58);"/>
    <path d="M777,1405L789,1446L836,1424L806,1373L777,1405Z" style="fill:rgb(198,144,209);"/>
    <path d="M729,1536L739,1540L732,1548L729,1536Z" style="fill:rgb(128,111,216);"/>
    <path d="M720,1545L717,1533L729,1536L732,1548L720,1545Z" style="fill:rgb(140,114,222);"/>
    <path d="M738,1525L725,1523L717,1533L729,1536L738,1525Z" style="fill:rgb(168,168,207);"/>
    <path d="M721,1511L725,1523L738,1525L734,1514L721,1511Z" style="fill:rgb(123,109,208);"/>
    <path d="M981,1404L999,1375L979,1341L962,1375L981,1404Z" style="fill:rgb(232,125,123);"/>
    <path d="M1003,1309L974,1302L940,1343L979,1341L1003,1309Z" style="fill:rgb(255,219,103);"/>
    <path d="M948,1339L979,1337L997,1312L975,1305L948,1339Z" style="fill:rgb(199,183,45);"/>
    <path d="M925,1377L962,1375L979,1341L940,1343L925,1377Z" style="fill:rgb(235,179,73);"/>
    <path d="M886,1376L925,1377L940,1343L897,1341L886,1376Z" style="fill:rgb(133,121,241);"/>
    <path d="M920,1315L897,1341L940,1343L920,1315Z" style="fill:rgb(172,118,220);"/>
    <path d="M920,1318L903,1338L934,1340L920,1318Z" style="fill:rgb(197,109,72);"/>
    <path d="M885,1304L858,1334L897,1341L920,1315L885,1304Z" style="fill:rgb(155,132,216);"/>
    <path d="M885,1306L863,1332L895,1339L916,1316L885,1306Z" style="fill:rgb(238,204,65);"/>
    <path d="M858,1334L886,1376L897,1341L858,1334Z" style="fill:rgb(218,118,118);"/>
    <path d="M866,1341L882,1367L890,1347L866,1341Z" style="fill:rgb(139,82,50);"/>
    <path d="M899,1244L904,1247L908,1242L903,1240L899,1244Z" style="fill:rgb(255,143,99);"/>
    <path d="M782,1215L778,1202L792,1205L782,1215Z" style="fill:rgb(136,123,251);"/>
    <path d="M783,1211L781,1206L788,1207L783,1211Z" style="fill:rgb(162,109,168);"/>
    <path d="M957,1250L972,1270L997,1240L979,1227L957,1250Z" style="fill:rgb(255,216,88);"/>
    <path d="M960,1250L972,1267L994,1241L979,1230L960,1250Z" style="fill:rgb(164,119,47);"/>
    <path d="M944,1195L952,1221L979,1227L971,1201L944,1195Z" style="fill:rgb(173,147,210);"/>
    <path d="M997,1240L1006,1220L979,1227L997,1240Z" style="fill:rgb(207,128,123);"/>
    <path d="M1035,1222L1030,1199L1006,1199L1006,1220L1035,1222Z" style="fill:rgb(126,108,208);"/>
    <path d="M1030,1219L1027,1202L1011,1202L1010,1218L1030,1219Z" style="fill:rgb(181,106,64);"/>
    <path d="M971,1201L979,1227L1006,1220L1006,1199L971,1201Z" style="fill:rgb(156,118,223);"/>
    <path d="M1151,1180L1153,1190L1163,1192L1162,1183L1151,1180Z" style="fill:rgb(220,146,199);"/>
    <path d="M1155,1184L1156,1188L1159,1188L1159,1185L1155,1184Z" style="fill:rgb(244,173,87);"/>
    <path d="M1170,1185L1162,1183L1163,1192L1170,1185Z" style="fill:rgb(197,171,48);"/>
    <path d="M982,1105L1003,1103L994,1094L982,1105Z" style="fill:rgb(183,161,209);"/>
    <path d="M988,1077L994,1094L1003,1103L1004,1081L988,1077Z" style="fill:rgb(140,121,237);"/>
    <path d="M1073,1093L1092,1093L1094,1062L1075,1061L1073,1093Z" style="fill:rgb(144,122,239);"/>
    <path d="M1075,1089L1090,1090L1091,1064L1077,1063L1075,1089Z" style="fill:rgb(178,115,150);"/>
    <path d="M1110,1050L1092,1042L1075,1061L1094,1062L1110,1050Z" style="fill:rgb(247,214,93);"/>
    <path d="M1053,982L1056,989L1061,984L1059,977L1053,982Z" style="fill:rgb(239,139,105);"/>
    <path d="M934,1050L936,1057L940,1052L938,1046L934,1050Z" style="fill:rgb(172,130,48);"/>
    <path d="M927,1049L929,1055L936,1057L934,1050L927,1049Z" style="fill:rgb(136,115,229);"/>
    <path d="M931,1044L927,1049L934,1050L938,1046L931,1044Z" style="fill:rgb(255,251,60);"/>
    <path d="M929,1037L925,1043L927,1049L931,1044L929,1037Z" style="fill:rgb(255,158,129);"/>
    <path d="M936,1039L929,1037L931,1044L938,1046L936,1039Z" style="fill:rgb(243,123,85);"/>
    <path d="M943,1040L945,1047L938,1046L936,1039L943,1040Z" style="fill:rgb(126,108,208);"/>
    <path d="M1147,1119L1184,1131L1211,1103L1173,1094L1147,1119Z" style="fill:rgb(195,139,211);"/>
    <path d="M1177,1104L1164,1116L1180,1121L1195,1108L1177,1104Z" style="fill:rgb(180,131,114);"/>
    <path d="M1220,1142L1249,1116L1211,1103L1184,1131L1220,1142Z" style="fill:rgb(208,159,61);"/>
    <path d="M1279,1095L1244,1080L1249,1116L1279,1095Z" style="fill:rgb(248,136,137);"/>
    <path d="M1275,1096L1249,1085L1252,1111L1275,1096Z" style="fill:rgb(228,117,94);"/>
    <path d="M1209,1063L1211,1103L1249,1116L1244,1080L1209,1063Z" style="fill:rgb(230,117,91);"/>
    <path d="M1177,1053L1173,1094L1211,1103L1209,1063L1177,1053Z" style="fill:rgb(255,171,129);"/>
    <path d="M1179,1056L1176,1092L1207,1099L1206,1065L1179,1056Z" style="fill:rgb(213,148,66);"/>
    <path d="M1151,1071L1147,1119L1173,1094L1177,1053L1151,1071Z" style="fill:rgb(212,116,122);"/>
    <path d="M1154,1074L1150,1111L1170,1092L1173,1060L1154,1074Z" style="fill:rgb(208,112,77);"/>
    <path d="M1298,1062L1335,1079L1369,1057L1334,1035L1298,1062Z" style="fill:rgb(133,122,246);"/>
    <path d="M1088,903L1096,926L1113,909L1088,903Z" style="fill:rgb(125,109,212);"/>
    <path d="M1081,877L1105,883L1088,903L1063,897L1081,877Z" style="fill:rgb(179,150,210);"/>
    <path d="M1098,860L1105,883L1081,877L1098,860Z" style="fill:rgb(207,115,211);"/>
    <path d="M1123,865L1131,889L1105,883L1098,860L1123,865Z" style="fill:rgb(128,111,218);"/>
    <path d="M1113,909L1088,903L1105,883L1131,889L1113,909Z" style="fill:rgb(255,219,104);"/>
    <path d="M1126,966L1145,945L1167,958L1149,975L1126,966Z" style="fill:rgb(197,135,118);"/>
    <path d="M1165,924L1167,958L1145,945L1165,924Z" style="fill:rgb(255,219,106);"/>
    <path d="M1266,960L1308,987L1272,1016L1232,997L1266,960Z" style="fill:rgb(255,234,96);"/>
    <path d="M1267,965L1300,987L1273,1010L1239,995L1267,965Z" style="fill:rgb(255,243,64);"/>
    <path d="M1198,984L1227,959L1266,960L1232,997L1198,984Z" style="fill:rgb(140,136,210);"/>
    <path d="M1203,983L1227,961L1261,962L1232,994L1203,983Z" style="fill:rgb(202,187,50);"/>
    <path d="M1224,906L1267,917L1266,960L1227,959L1224,906Z" style="fill:rgb(133,119,219);"/>
    <path d="M1211,866L1255,877L1267,917L1224,906L1211,866Z" style="fill:rgb(169,99,131);"/>
    <path d="M1217,871L1252,879L1262,912L1227,904L1217,871Z" style="fill:rgb(225,118,101);"/>
    <path d="M1298,885L1307,945L1267,917L1255,877L1298,885Z" style="fill:rgb(255,141,129);"/>
    <path d="M1347,925L1347,969L1308,987L1307,945L1347,925Z" style="fill:rgb(123,115,224);"/>
    <path d="M1343,930L1343,966L1312,981L1312,947L1343,930Z" style="fill:rgb(237,176,84);"/>
    <path d="M1267,917L1307,945L1308,987L1266,960L1267,917Z" style="fill:rgb(255,200,102);"/>
    <path d="M1277,935L1298,949L1297,969L1276,956L1277,935Z" style="fill:rgb(239,183,80);"/>
    <path d="M1396,983L1428,1002L1459,985L1429,967L1396,983Z" style="fill:rgb(200,107,106);"/>
    <path d="M1409,984L1427,995L1447,985L1429,974L1409,984Z" style="fill:rgb(140,79,57);"/>
    <path d="M1429,927L1429,967L1459,985L1463,946L1429,927Z" style="fill:rgb(180,152,45);"/>
    <path d="M1493,969L1463,946L1459,985L1493,969Z" style="fill:rgb(189,158,209);"/>
    <path d="M1500,933L1493,969L1528,957L1532,929L1500,933Z" style="fill:rgb(206,115,129);"/>
    <path d="M1502,936L1497,964L1526,955L1529,933L1502,936Z" style="fill:rgb(201,107,78);"/>
    <path d="M1472,913L1463,946L1493,969L1500,933L1472,913Z" style="fill:rgb(255,169,140);"/>
    <path d="M1488,883L1472,913L1500,933L1509,904L1488,883Z" style="fill:rgb(163,114,215);"/>
    <path d="M1489,888L1476,912L1498,928L1506,905L1489,888Z" style="fill:rgb(211,127,70);"/>
    <path d="M1460,833L1475,859L1485,838L1460,833Z" style="fill:rgb(203,136,205);"/>
    <path d="M1467,840L1473,851L1478,842L1467,840Z" style="fill:rgb(243,163,81);"/>
    <path d="M1416,843L1431,838L1424,824L1412,831L1416,843Z" style="fill:rgb(230,148,176);"/>
    <path d="M1409,819L1412,831L1424,824L1419,810L1409,819Z" style="fill:rgb(228,201,56);"/>
    <path d="M1321,848L1329,843L1326,836L1319,835L1321,848Z" style="fill:rgb(197,139,196);"/>
    <path d="M1308,825L1310,833L1319,835L1317,827L1308,825Z" style="fill:rgb(134,109,211);"/>
    <path d="M1325,828L1317,827L1319,835L1326,836L1325,828Z" style="fill:rgb(162,144,210);"/>
    <path d="M1331,822L1323,820L1317,827L1325,828L1331,822Z" style="fill:rgb(125,108,207);"/>
    <path d="M1382,698L1373,706L1386,709L1382,698Z" style="fill:rgb(130,120,243);"/>
    <path d="M1381,701L1376,705L1383,707L1381,701Z" style="fill:rgb(255,134,90);"/>
    <path d="M1460,662L1463,668L1468,663L1460,662Z" style="fill:rgb(165,85,88);"/>
    <path d="M1465,655L1460,662L1468,663L1473,657L1465,655Z" style="fill:rgb(176,171,208);fill-opacity:0.98;"/>
    <path d="M1463,647L1457,653L1465,655L1463,647Z" style="fill:rgb(224,123,111);"/>
    <path d="M1471,649L1463,647L1465,655L1473,657L1471,649Z" style="fill:rgb(141,114,221);"/>
    <path d="M1456,903L1421,916L1449,931L1456,903Z" style="fill:rgb(204,136,206);"/>
    <path d="M1448,910L1432,916L1445,924L1448,910Z" style="fill:rgb(243,166,82);"/>
    <path d="M1362,639L1386,645L1403,626L1379,621L1362,639Z" style="fill:rgb(133,122,246);"/>
    <path d="M1374,552L1356,547L1342,562L1360,566L1374,552Z" style="fill:rgb(185,140,210);"/>
    <path d="M1347,581L1360,566L1381,570L1367,586L1347,581Z" style="fill:rgb(255,236,100);"/>
    <path d="M1374,552L1395,557L1381,570L1360,566L1374,552Z" style="fill:rgb(255,177,135);"/>
    <path d="M1388,538L1408,543L1395,557L1374,552L1388,538Z" style="fill:rgb(138,113,218);"/>
    <path d="M1389,541L1380,550L1393,553L1403,544L1389,541Z" style="fill:rgb(200,107,78);"/>
    <path d="M1428,546L1414,561L1395,557L1408,543L1428,546Z" style="fill:rgb(165,112,212);"/>
    <path d="M1410,546L1401,555L1414,558L1421,549L1410,546Z" style="fill:rgb(193,125,62);"/>
    <path d="M1400,574L1381,570L1395,557L1414,561L1400,574Z" style="fill:rgb(190,130,58);"/>
    <path d="M1282,454L1291,456L1297,449L1289,447L1282,454Z" style="fill:rgb(248,159,85);"/>
    <path d="M1294,441L1289,447L1297,449L1303,443L1294,441Z" style="fill:rgb(255,220,103);"/>
    <path d="M1208,396L1209,398L1211,398L1211,396L1208,396Z" style="fill:rgb(156,100,131);"/>
    <path d="M1148,390L1150,388L1150,391L1148,390Z" style="fill:rgb(187,127,162);"/>
    <path d="M727,1406L730,1407L730,1403L727,1406" style="fill:rgb(210,141,212);"/>
    <path d="M2628,1048L2626,1053L2629,1057L2631,1053L2628,1048Z" style="fill:rgb(251,162,91);"/>
    <path d="M2633,1061L2635,1056L2631,1053L2629,1057L2633,1061Z" style="fill:rgb(255,248,91);"/>
    <path d="M2633,1048L2631,1053L2635,1056L2637,1051L2633,1048" style="fill:rgb(159,94,119);"/>
    <path d="M2566,1095L2536,1145L2566,1159L2593,1126L2566,1095Z" style="fill:rgb(175,112,209);"/>
    <path d="M2613,1201L2622,1159L2593,1126L2566,1159L2613,1201Z" style="fill:rgb(185,151,209);"/>
    <path d="M2505,1149L2535,1175L2536,1145L2505,1149Z" style="fill:rgb(167,121,124);"/>
    <path d="M2535,1175L2553,1194L2566,1159L2536,1145L2535,1175Z" style="fill:rgb(238,157,162);"/>
    <path d="M2613,1201L2587,1220L2553,1194L2566,1159L2613,1201Z" style="fill:rgb(253,184,129);"/>
    <path d="M2586,1213L2606,1199L2568,1166L2557,1190L2586,1213Z" style="fill:rgb(164,131,90);"/>
    <path d="M2645,1230L2610,1245L2587,1220L2613,1201L2645,1230Z" style="fill:rgb(255,255,64);"/>
    <path d="M2554,1229L2523,1214L2553,1194L2587,1220L2554,1229Z" style="fill:rgb(218,123,134);"/>
    <path d="M2554,1222L2535,1213L2554,1202L2575,1216L2554,1222Z" style="fill:rgb(207,112,77);"/>
    <path d="M2152,1524L2146,1529L2151,1533L2158,1527L2152,1524Z" style="fill:rgb(225,149,193);"/>
    <path d="M2150,1528L2152,1530L2154,1528L2152,1527L2150,1528Z" style="fill:rgb(192,119,147);"/>
    <path d="M2158,1527L2151,1533L2160,1534L2158,1527Z" style="fill:rgb(255,162,154);"/>
    <path d="M2157,1529L2155,1531L2157,1532L2157,1529Z" style="fill:rgb(237,180,99);"/>
    <path d="M2405,1494L2356,1532L2415,1550L2420,1545L2405,1494Z" style="fill:rgb(139,247,255);"/>
    <path d="M2380,1594L2423,1561L2415,1550L2356,1532L2380,1594Z" style="fill:rgb(122,114,239);"/>
    <path d="M2420,1545L2423,1561L2415,1550L2420,1545Z" style="fill:rgb(61,90,138);"/>
    <path d="M2368,1547L2384,1580L2409,1563L2404,1557L2368,1547Z" style="fill:rgb(88,73,171);"/>
    <path d="M2391,1516L2394,1526L2381,1523L2391,1516Z" style="fill:rgb(114,164,255);"/>
    <path d="M2409,1656L2448,1608L2421,1574L2378,1609L2409,1656Z" style="fill:rgb(127,225,255);"/>
    <path d="M2433,1704L2391,1733L2361,1691L2409,1656L2433,1704Z" style="fill:rgb(92,101,189);"/>
    <path d="M2331,1637L2361,1691L2409,1656L2378,1609L2331,1637Z" style="fill:rgb(175,124,255);"/>
    <path d="M2418,1590L2393,1612L2411,1639L2433,1611L2418,1590Z" style="fill:rgb(115,163,255);"/>
    <path d="M2452,1609L2475,1664L2439,1704L2416,1655L2452,1609Z" style="fill:rgb(224,140,255);"/>
    <path d="M2451,1596L2425,1550L2425,1565L2451,1596Z" style="fill:rgb(63,125,173);"/>
    <path d="M2478,1680L2442,1717L2494,1733L2478,1680Z" style="fill:rgb(82,96,172);"/>
    <path d="M2503,1794L2445.5,1774L2442,1717L2494,1733L2503,1794Z" style="fill:rgb(104,150,249);"/>
    <path d="M2506,1856L2458,1829L2445.5,1774L2503,1794L2506,1856Z" style="fill:rgb(102,171,254);"/>
    <path d="M2460,1764L2458,1739L2483,1746L2487,1774L2460,1764Z" style="fill:rgb(152,103,255);"/>
    <path d="M2422,1747L2391,1770L2425,1789L2422,1747Z" style="fill:rgb(203,129,255);"/>
    <path d="M2370,1820L2400,1842L2425,1789L2391,1770L2370,1820Z" style="fill:rgb(181,133,255);"/>
    <path d="M2345,1862L2400,1842L2370,1820L2345,1862Z" style="fill:rgb(111,192,255);"/>
    <path d="M2429,1866L2435,1827L2425,1789L2400,1842L2429,1866Z" style="fill:rgb(78,91,155);"/>
    <path d="M2425,1849L2428,1827L2422,1804L2408,1837L2425,1849Z" style="fill:rgb(43,45,87);"/>
    <path d="M2456,1845L2505,1873L2502,1935L2449,1900L2456,1845Z" style="fill:rgb(199,139,255);"/>
    <path d="M2367,1949L2449,1958L2502,1935L2449,1900L2367,1949Z" style="fill:rgb(103,175,255);"/>
    <path d="M2492,1915L2493,1880L2464,1865L2461,1895L2492,1915Z" style="fill:rgb(147,95,211);"/>
    <path d="M2442,2020L2493,2004L2502,1945L2452,1966L2442,2020Z" style="fill:rgb(223,141,255);"/>
    <path d="M2442,1980L2370,1973L2385,2020L2431,2030L2442,1980Z" style="fill:rgb(97,151,231);"/>
    <path d="M2477,2017L2465,2063L2418,2071L2431,2030L2477,2017Z" style="fill:rgb(79,105,189);"/>
    <path d="M2394,2113L2361,2068L2418,2071L2394,2113Z" style="fill:rgb(78,119,218);"/>
    <path d="M2385,2020L2361,2068L2418,2071L2431,2030L2385,2020Z" style="fill:rgb(122,157,255);"/>
    <path d="M2389.5,2030L2418,2037L2410,2060L2376,2059L2389.5,2030Z" style="fill:rgb(109,118,228);"/>
    <path d="M2450,2132L2472,2081L2419,2091L2450,2132Z" style="fill:rgb(95,108,204);"/>
    <path d="M2424,2184L2392,2136L2419,2091L2450,2132L2424,2184Z" style="fill:rgb(115,196,255);"/>
    <path d="M2363,2181L2392,2136L2424,2184L2363,2181Z" style="fill:rgb(108,189,255);"/>
    <path d="M2448,2120L2459,2094L2430,2099L2448,2120Z" style="fill:rgb(63,65,138);"/>
    <path d="M2413,2198L2383,2241L2324,2233L2353,2192L2413,2198Z" style="fill:rgb(158,134,255);"/>
    <path d="M2344,2288L2292,2278L2324,2233L2383,2241L2344,2288Z" style="fill:rgb(122,211,255);"/>
    <path d="M2304,2330L2292,2278L2344,2288L2304,2330Z" style="fill:rgb(125,223,255);"/>
    <path d="M2303,2290L2309,2319L2333,2295L2303,2290Z" style="fill:rgb(89,159,255);"/>
    <path d="M2279,2189L2316,2152L2353,2192L2324,2233L2279,2189Z" style="fill:rgb(169,125,255);"/>
    <path d="M2344,2092L2382,2145L2353,2192L2316,2152L2344,2092Z" style="fill:rgb(114,198,255);"/>
    <path d="M2347,2122L2337.5,2145L2352,2160L2362,2142L2347,2122Z" style="fill:rgb(131,140,255);"/>
    <path d="M2347,2225L2361,2204L2392,2206L2377,2230L2347,2225Z" style="fill:rgb(198,112,255);"/>
    <path d="M2311,2269L2329,2245L2364,2250L2341,2277L2311,2269Z" style="fill:rgb(115,167,255);"/>
    <path d="M2232,2257L2241,2317L2296,2338L2286,2284L2232,2257Z" style="fill:rgb(105,178,255);"/>
    <path d="M2271,2197L2316,2241L2286,2284L2232,2257L2271,2197Z" style="fill:rgb(186,137,255);"/>
    <path d="M2141,2443L2192,2415L2148,2392L2141,2443Z" style="fill:rgb(138,244,255);"/>
    <path d="M2129,2348L2173,2303L2193,2363L2148,2392L2129,2348Z" style="fill:rgb(112,140,255);"/>
    <path d="M2223,2267.5L2232,2326L2193,2363L2173,2303L2223,2267.5Z" style="fill:rgb(101,182,255);"/>
    <path d="M2287,2347.5L2243,2383L2193,2363L2232,2326L2287,2347.5Z" style="fill:rgb(133,127,255);"/>
    <path d="M2192,2415L2148,2392L2193,2363L2243,2383L2192,2415Z" style="fill:rgb(160,137,255);"/>
    <path d="M2212,2359L2236,2337L2269,2350L2243,2371L2212,2359Z" style="fill:rgb(149,88,255);"/>
    <path d="M2052,2356L2058,2371L2047,2381L2041,2368L2052,2356Z" style="fill:rgb(95,133,254);"/>
    <path d="M2061,2397L2064,2384L2058,2371L2047,2381L2061,2397Z" style="fill:rgb(110,168,255);"/>
    <path d="M2047,2403L2035,2392L2047,2381L2061,2397L2047,2403Z" style="fill:rgb(95,122,232);"/>
    <path d="M2026,2379L2041,2368L2047,2381L2035,2392L2026,2379Z" style="fill:rgb(137,132,255);"/>
    <path d="M2011,2378L2020,2397L2035,2392L2026,2379L2011,2378Z" style="fill:rgb(107,183,255);"/>
    <path d="M2019,2385L2022,2390L2026,2389L2024,2385L2019,2385Z" style="fill:rgb(139,135,255);"/>
    <path d="M2011,2479L2044,2471L2020,2447L1992,2457L2011,2479Z" style="fill:rgb(224,141,255);"/>
    <path d="M1723,2437L1730,2461L1756,2467L1747,2440L1723,2437Z" style="fill:rgb(133,144,255);"/>
    <path d="M1734,2415L1758,2418L1747,2440L1723,2437L1734,2415Z" style="fill:rgb(142,142,255);"/>
    <path d="M1699,2433L1704,2455L1730,2461L1723,2437L1699,2433Z" style="fill:rgb(79,110,200);"/>
    <path d="M2292,1711L2320,1711L2333,1736L2305,1736L2292,1711Z" style="fill:rgb(110,196,255);"/>
    <path d="M2319,1763L2346,1755L2333,1736L2305,1736L2319,1763Z" style="fill:rgb(101,183,240);"/>
    <path d="M2333,1785L2346,1755L2319,1763L2333,1785Z" style="fill:rgb(69,129,232);"/>
    <path d="M2290,1760L2305,1785L2319,1763L2305,1736L2290,1760Z" style="fill:rgb(171,118,255);"/>
    <path d="M2319,1808L2333,1785L2319,1763L2305,1785L2319,1808Z" style="fill:rgb(65,108,186);"/>
    <path d="M2304.5,1773L2313,1762L2305,1747L2297,1760L2304.5,1773Z" style="fill:rgb(156,94,243);"/>
    <path d="M2354,1899L2371,1929L2414,1904L2393,1886L2354,1899Z" style="fill:rgb(224,140,255);"/>
    <path d="M2290,1926L2283,1939L2290,1950L2298,1939L2290,1926Z" style="fill:rgb(99,181,255);"/>
    <path d="M2304,1951L2298,1939L2290,1950L2304,1951Z" style="fill:rgb(146,141,255);"/>
    <path d="M2308,1962L2296,1962L2290,1950L2304,1951L2308,1962Z" style="fill:rgb(123,131,249);"/>
    <path d="M2290,1973L2282,1962L2290,1950L2296,1962L2290,1973Z" style="fill:rgb(108,112,209);"/>
    <path d="M2275,1951L2283,1939L2290,1950L2282,1962L2275,1951Z" style="fill:rgb(82,134,250);"/>
    <path d="M2289,1955L2285,1962L2289,1968L2293,1962L2289,1955Z" style="fill:rgb(144,92,245);"/>
    <path d="M2340,2060L2327,2088L2298,2085L2312,2060L2340,2060Z" style="fill:rgb(96,156,231);"/>
    <path d="M2312,2118L2284,2112L2298,2085L2327,2088L2312,2118Z" style="fill:rgb(119,139,255);"/>
    <path d="M2294,2136L2284,2112L2312,2118L2294,2136Z" style="fill:rgb(93,101,190);"/>
    <path d="M2296,2130L2305,2122L2292,2119L2296,2130Z" style="fill:rgb(202,106,255);"/>
    <path d="M2317,2070L2325,2070L2321,2078L2314,2077L2317,2070Z" style="fill:rgb(170,129,254);"/>
    <path d="M2310,2112L2293,2108L2300,2093L2318,2094L2310,2112Z" style="fill:rgb(128,115,255);"/>
    <path d="M2198,1632L2199,1629L2203,1629L2203,1633L2198,1632Z" style="fill:rgb(94,141,238);"/>
    <path d="M2152,1741L2155,1738L2156,1742L2152,1741Z" style="fill:rgb(105,158,237);"/>
    <path d="M2226,1860L2226,1857L2229,1858L2226,1860Z" style="fill:rgb(55,93,127);"/>
    <path d="M2228,1854L2229,1858L2226,1857L2228,1854Z" style="fill:rgb(203,139,255);"/>
    <path d="M1978,2340L1977,2338L1974,2339L1975,2341L1978,2340Z" style="fill:rgb(146,170,255);"/>
    <path d="M1866,2431L1870,2426L1872,2432L1866,2431Z" style="fill:rgb(227,143,255);"/>
    <path d="M1888,2410L1890,2408L1891,2410L1888,2410Z" style="fill:rgb(48,61,104);"/>
    <path d="M1600,2449L1594,2397L1549,2424L1600,2449Z" style="fill:rgb(224,140,255);"/>
    <path d="M1646,2399L1643,2381L1626,2375L1627,2393L1646,2399Z" style="fill:rgb(86,142,255);"/>
    <path d="M1661,2385L1669,2370L1650,2363L1643,2381L1661,2385Z" style="fill:rgb(67,101,173);"/>
    <path d="M1648,2340L1629,2334L1629,2353L1650,2363L1648,2340Z" style="fill:rgb(108,148,255);"/>
    <path d="M1626,2375L1643,2381L1650,2363L1629,2353L1626,2375Z" style="fill:rgb(122,137,255);"/>
    <path d="M1611,2364L1629,2353L1626,2375L1611,2364Z" style="fill:rgb(81,102,168);"/>
    <path d="M1606,2342L1629,2334L1629,2353L1611,2364L1606,2342Z" style="fill:rgb(109,155,255);"/>
    <path d="M1611,2345L1613,2357L1625,2351L1625,2339L1611,2345Z" style="fill:rgb(95,108,211);"/>
    <path d="M1785,2315L1790,2312L1793,2316L1785,2315Z" style="fill:rgb(112,198,255);"/>
    <path d="M1799,2311L1797,2317L1793,2316L1790,2312L1799,2311Z" style="fill:rgb(123,150,255);"/>
    <path d="M1794,2306L1799,2311L1790,2312L1794,2306Z" style="fill:rgb(101,90,190);"/>
    <path d="M1541,2343L1577,2368L1537,2389L1496,2362L1541,2343Z" style="fill:rgb(65,97,161);"/>
    <path d="M1530,2286L1476,2297L1496,2362L1541,2343L1530,2286Z" style="fill:rgb(77,104,166);"/>
    <path d="M1587,2263L1592,2220L1549,2236L1530,2286L1587,2263Z" style="fill:rgb(77,117,211);"/>
    <path d="M1549,2236L1530,2286L1476,2297L1495,2243L1549,2236Z" style="fill:rgb(106,149,255);"/>
    <path d="M1496,2362L1442,2317L1476,2297L1496,2362Z" style="fill:rgb(152,255,255);"/>
    <path d="M1549,2236L1511,2191L1479,2222L1495,2243L1549,2236Z" style="fill:rgb(99,165,242);"/>
    <path d="M1555,2243L1576,2237L1574,2257L1547,2269L1555,2243Z" style="fill:rgb(89,101,213);"/>
    <path d="M1523,2278L1534,2248L1500,2253L1490,2284L1523,2278Z" style="fill:rgb(118,122,255);"/>
    <path d="M1492,2310L1502,2343L1525,2334L1520,2305L1492,2310Z" style="fill:rgb(90,88,172);"/>
    <path d="M1512,2364L1538,2354L1561.5,2367L1538,2379L1512,2364Z" style="fill:rgb(33,48,83);"/>
    <path d="M2153,2118L2150,2118L2151,2115L2153,2118Z" style="fill:rgb(226,142,255);"/>
    <path d="M2209,2156L2205,2163L2203,2156L2209,2156Z" style="fill:rgb(81,156,255);"/>
    <path d="M2207,2150L2200,2150L2203,2156L2209,2156L2207,2150Z" style="fill:rgb(122,219,255);"/>
    <path d="M2195,2145L2203,2145L2207,2150L2200,2150L2195,2145Z" style="fill:rgb(104,168,255);"/>
    <path d="M2194,2153L2200,2150L2203,2156L2205,2163L2199,2167L2194,2153Z" style="fill:rgb(105,113,207);"/>
    <path d="M2195,2145L2199.5,2138L2207,2138L2203,2145L2195,2145Z" style="fill:rgb(127,151,255);"/>
    <path d="M2207,2150L2211,2144L2207,2138L2203,2145L2207,2150Z" style="fill:rgb(133,152,255);"/>
    <path d="M2206,2145L2207,2142L2208,2144L2207,2147L2206,2145Z" style="fill:rgb(107,103,211);"/>
    <path d="M2444,2631L2447,2671L2479,2646L2475,2608L2444,2631Z" style="fill:rgb(203,140,255);"/>
    <path d="M2475,2608L2504,2583L2514,2620L2479,2646L2475,2608Z" style="fill:rgb(100,181,255);"/>
    <path d="M2504,2583L2532,2557L2542,2592L2514,2620L2504,2583Z" style="fill:rgb(101,117,227);"/>
    <path d="M2514,2620L2554,2633L2518,2669L2479,2646L2514,2620Z" style="fill:rgb(128,150,255);"/>
    <path d="M2574,2548L2602,2553L2610,2582L2581,2576L2574,2548Z" style="fill:rgb(98,161,239);"/>
    <path d="M2581,2576L2561,2599L2590,2606L2610,2582L2581,2576Z" style="fill:rgb(191,138,255);"/>
    <path d="M2707,1429L2733,1391L2711,1351L2684,1389L2707,1429Z" style="fill:rgb(65,92,149);"/>
    <path d="M2665,1338L2657,1348L2684,1389L2711,1351L2665,1338Z" style="fill:rgb(137,103,235);"/>
    <path d="M2653,1342L2657,1348L2665,1338L2653,1342Z" style="fill:rgb(115,181,253);"/>
    <path d="M2708.5,1372L2719,1390L2708.5,1409L2696,1390L2708.5,1372Z" style="fill:rgb(100,89,196);"/>
    <path d="M2739,1342L2772,1343L2755,1315L2725,1315L2739,1342Z" style="fill:rgb(93,99,187);"/>
    <path d="M2713,1286L2685,1296L2695,1309L2725,1315L2713,1286Z" style="fill:rgb(67,95,158);"/>
    <path d="M2720,1252L2756,1255L2743,1282L2713,1286L2720,1252Z" style="fill:rgb(100,170,243);"/>
    <path d="M2755,1315L2743,1282L2713,1286L2725,1315L2755,1315Z" style="fill:rgb(157,132,255);"/>
    <path d="M2728,1308L2747,1308L2740,1290L2722,1291L2728,1308Z" style="fill:rgb(133,99,225);"/>
    <path d="M2832,1332L2852,1296L2832,1268L2813,1297.5L2832,1332Z" style="fill:rgb(79,130,239);"/>
    <path d="M2852,1233L2872,1268L2852,1296L2832,1268L2852,1233Z" style="fill:rgb(101,174,255);"/>
    <path d="M2892,1233L2872,1198L2835,1198L2852,1233L2892,1233Z" style="fill:rgb(139,248,255);"/>
    <path d="M2796,1198L2813,1232L2852,1233L2835,1198L2796,1198Z" style="fill:rgb(116,128,235);"/>
    <path d="M2798,1262L2832.5,1268L2852,1233L2813,1232L2798,1262Z" style="fill:rgb(101,117,206);"/>
    <path d="M2813,1298L2832.5,1268L2798,1262L2813,1298Z" style="fill:rgb(183,129,255);"/>
    <path d="M2934,1248L2923,1229L2901,1229L2911,1248L2934,1248Z" style="fill:rgb(223,141,255);"/>
    <path d="M2591,1351L2586,1357L2593,1359L2597,1354L2591,1351Z" style="fill:rgb(186,137,255);"/>
    <path d="M2586,1365L2593,1359L2586,1357L2586,1365Z" style="fill:rgb(91,143,215);"/>
    <path d="M2863,1104L2872,1120L2854,1120L2863,1104Z" style="fill:rgb(224,141,255);"/>
    <path d="M2956,1129L2967,1149L2955,1168L2944,1149L2956,1129Z" style="fill:rgb(126,107,225);"/>
    <path d="M2967,1189L2979,1169L2967,1149L2955,1168L2967,1189Z" style="fill:rgb(137,147,255);"/>
    <path d="M2979,1208L2990,1189L2967,1189L2979,1208Z" style="fill:rgb(147,125,255);"/>
    <path d="M3002,1169L2990,1189L2967,1189L2979,1169L3002,1169Z" style="fill:rgb(146,131,255);"/>
    <path d="M2994,1217L3007,1231L3017,1211L3009,1193L2994,1217Z" style="fill:rgb(105,141,239);"/>
    <path d="M2979,1208L2994,1217L3009,1193L2990,1189L2979,1208Z" style="fill:rgb(170,133,255);"/>
    <path d="M3002,1169L3009,1193L2990,1189L3002,1169Z" style="fill:rgb(123,161,255);"/>
    <path d="M2967,1179L2973,1169L2967,1158L2961,1169L2967,1179Z" style="fill:rgb(120,109,255);"/>
    <path d="M2955,1159L2961,1149L2955,1137L2949,1148L2955,1159Z" style="fill:rgb(157,80,254);"/>
    <path d="M2938,1314L2949,1348L2924,1336L2938,1314Z" style="fill:rgb(116,124,249);"/>
    <path d="M2967,1314L2975,1344L2949,1348L2938,1314L2967,1314Z" style="fill:rgb(142,144,255);"/>
    <path d="M2967,1364L2989,1365L2975,1344L2949,1348L2967,1364Z" style="fill:rgb(141,123,255);"/>
    <path d="M3001,1341L2975,1344L2967,1314L2986,1324L3001,1341Z" style="fill:rgb(159,255,255);"/>
    <path d="M2949,1324L2954,1337L2964,1337L2960,1324L2949,1324Z" style="fill:rgb(142,101,255);"/>
    <path d="M2850,1367L2895,1389L2866,1430L2824,1412L2850,1367Z" style="fill:rgb(111,197,255);"/>
    <path d="M2773,1412L2748,1448L2799,1455L2824,1412L2773,1412Z" style="fill:rgb(83,109,200);"/>
    <path d="M2850,1475L2866,1430L2824,1412L2799,1455L2850,1475Z" style="fill:rgb(125,146,255);"/>
    <path d="M2871,1512L2894,1468L2866,1430L2850,1475L2871,1512Z" style="fill:rgb(109,187,255);"/>
    <path d="M2799,1455L2816,1502L2871,1512L2850,1475L2799,1455Z" style="fill:rgb(157,118,255);"/>
    <path d="M2777,1420L2810,1420L2795,1446L2763,1442L2777,1420Z" style="fill:rgb(69,73,155);"/>
    <path d="M2813,1466L2823,1494L2857,1500L2844,1478L2813,1466Z" style="fill:rgb(142,101,244);"/>
    <path d="M2860,1473L2871,1490L2883,1470L2869,1452L2860,1473Z" style="fill:rgb(88,144,238);"/>
    <path d="M2797,1526L2765,1565L2748,1518L2780,1476L2797,1526Z" style="fill:rgb(197,138,255);"/>
    <path d="M2726,1471L2748,1518L2780,1476L2726,1471Z" style="fill:rgb(146,137,255);"/>
    <path d="M2984,1463L2970,1491L2940,1493L2954,1466L2984,1463Z" style="fill:rgb(83,124,228);"/>
    <path d="M2998,1437L3016,1461L2984,1463L2998,1437Z" style="fill:rgb(95,175,255);"/>
    <path d="M2973,1435L2954,1466L2984,1463L2998,1437L2973,1435Z" style="fill:rgb(123,145,255);"/>
    <path d="M2954,1419L2936,1443L2954,1466L2973,1435L2954,1419Z" style="fill:rgb(161,125,255);"/>
    <path d="M2954,1430L2946,1442.5L2954,1454L2965,1438L2954,1430Z" style="fill:rgb(142,96,234);"/>
    <path d="M3067,1406L3069,1404L3072,1408L3069,1409L3067,1406Z" style="fill:rgb(143,128,228);"/>
    <path d="M3038,1513L3026,1536L3052,1536L3064,1513L3038,1513Z" style="fill:rgb(124,138,255);"/>
    <path d="M3090,1511L3078,1534L3052,1536L3064,1513L3090,1511Z" style="fill:rgb(144,141,255);"/>
    <path d="M3093,1554L3066,1556L3052,1536L3078,1534L3093,1554Z" style="fill:rgb(117,181,255);"/>
    <path d="M3040,1558L3026,1536L3052,1536L3066,1556L3040,1558Z" style="fill:rgb(126,156,255);"/>
    <path d="M3043,1553L3058,1553L3050,1541L3034,1541L3043,1553Z" style="fill:rgb(147,102,255);"/>
    <path d="M3075,1529L3081,1517L3067,1517L3060,1529L3075,1529Z" style="fill:rgb(114,102,213);"/>
    <path d="M3049,1531L3056,1517L3040,1517L3033,1532L3049,1531Z" style="fill:rgb(134,124,255);"/>
    <path d="M2835,1565L2890,1574L2870,1619L2803,1605L2835,1565Z" style="fill:rgb(116,212,255);"/>
    <path d="M2815,1647L2863,1664L2870,1619L2803,1605L2815,1647Z" style="fill:rgb(132,134,255);"/>
    <path d="M2942,1572L2969,1613L2918,1617L2890,1574L2942,1572Z" style="fill:rgb(109,153,255);"/>
    <path d="M2886,1718L2933,1703L2905,1670L2863,1664L2886,1718Z" style="fill:rgb(104,98,193);"/>
    <path d="M2946,1657L2918,1617L2905,1670L2933,1703L2946,1657Z" style="fill:rgb(104,179,255);"/>
    <path d="M2870,1619L2918,1617L2890,1574L2870,1619Z" style="fill:rgb(131,138,255);"/>
    <path d="M2905,1605L2893,1588L2885,1605L2905,1605Z" style="fill:rgb(160,99,255);"/>
    <path d="M2859,1605L2868,1583L2840,1579L2825,1598L2859,1605Z" style="fill:rgb(89,138,255);"/>
    <path d="M2870,1619L2863,1664L2905,1670L2918,1617L2870,1619Z" style="fill:rgb(115,119,226);"/>
    <path d="M2987,1617L2971,1648L2950,1619L2987,1617Z" style="fill:rgb(224,141,255);"/>
    <path d="M3010,1632.5L3050,1629L3032,1665L2992,1665L3010,1632.5Z" style="fill:rgb(94,150,224);"/>
    <path d="M2982,1701L3018,1702L3032,1665L2992,1665L2982,1701Z" style="fill:rgb(190,138,255);"/>
    <path d="M2996,1691L3013,1692L3018,1676L2999,1676L2996,1691Z" style="fill:rgb(162,106,241);"/>
    <path d="M3014,1638L3038,1637L3028,1658L3004,1658L3014,1638Z" style="fill:rgb(166,110,255);"/>
    <path d="M3098,1627L3103,1626L3101,1631L3096,1631L3098,1627Z" style="fill:rgb(228,144,255);"/>
    <path d="M2788,1665.5L2801,1723L2848,1687L2788,1665.5Z" style="fill:rgb(70,96,162);"/>
    <path d="M2878,1757L2808,1790L2801,1723L2848,1687L2878,1757Z" style="fill:rgb(146,111,250);"/>
    <path d="M2866,1821L2811,1856L2808,1790L2878,1757L2866,1821Z" style="fill:rgb(101,137,227);"/>
    <path d="M2857,1748L2825,1762L2821,1732L2843,1715L2857,1748Z" style="fill:rgb(151,94,252);"/>
    <path d="M2862,1780L2857,1814L2825,1834L2823,1797L2862,1780Z" style="fill:rgb(136,100,250);"/>
    <path d="M2984,1767L2969,1801L2931,1815L2941,1767L2984,1767Z" style="fill:rgb(95,180,255);"/>
    <path d="M2894,1784L2885,1834L2931,1815L2941,1767L2894,1784Z" style="fill:rgb(111,185,255);"/>
    <path d="M2973,1840L2930,1863L2931,1815L2969,1801L2973,1840Z" style="fill:rgb(103,166,255);"/>
    <path d="M2885,1881L2885,1834L2931,1815L2930,1863L2885,1881Z" style="fill:rgb(140,137,255);"/>
    <path d="M2843,1902L2843,1858L2885,1834L2885,1881L2843,1902Z" style="fill:rgb(62,110,189);"/>
    <path d="M2922,1828L2922,1858L2894,1868L2894,1839L2922,1828Z" style="fill:rgb(122,103,223);"/>
    <path d="M2941,1824L2942,1847L2962,1836L2960,1818L2941,1824Z" style="fill:rgb(127,152,255);"/>
    <path d="M3046,1779L3037,1801L3060,1803L3073,1776L3046,1779Z" style="fill:rgb(94,140,217);"/>
    <path d="M3104,1774L3114,1800.5L3091,1801L3073,1776L3104,1774Z" style="fill:rgb(149,255,255);"/>
    <path d="M3107,1823L3099,1847L3077,1828L3091,1801L3107,1823Z" style="fill:rgb(95,118,225);"/>
    <path d="M3051,1843L3012,1839L3038,1824L3051,1843Z" style="fill:rgb(120,167,255);"/>
    <path d="M3077,1828L3060,1803L3038,1824L3051,1843L3077,1828Z" style="fill:rgb(149,141,255);"/>
    <path d="M3073,1776L3091,1801L3077,1828L3060,1803L3073,1776Z" style="fill:rgb(119,134,250);"/>
    <path d="M3037,1801L3038,1824L3060,1803L3037,1801Z" style="fill:rgb(126,157,255);"/>
    <path d="M3043,1807L3043.65,1818.61L3053.81,1808.91L3043,1807Z" style="fill:rgb(101,109,208);"/>
    <path d="M3047,1822.61L3059,1812.5L3068,1826L3053.81,1835L3047,1822.61Z" style="fill:rgb(174,128,255);"/>
    <path d="M3091,1795L3104,1794L3099,1781L3083,1781L3091,1795Z" style="fill:rgb(135,241,255);"/>
    <path d="M3056,1923L3075.5,1940L3070,1964L3051,1947L3056,1923Z" style="fill:rgb(135,146,255);"/>
    <path d="M3063.25,1990L3070,1964L3051,1947L3046,1973L3063.25,1990Z" style="fill:rgb(104,175,255);"/>
    <path d="M3056,1923L3034,1937L3051,1947L3056,1923Z" style="fill:rgb(113,167,255);"/>
    <path d="M3001,1932L2999,1956L3026,1956L3034,1937L3001,1932Z" style="fill:rgb(81,122,185);"/>
    <path d="M3051,1947L3046,1973L3026,1956L3034,1937L3051,1947Z" style="fill:rgb(125,224,255);"/>
    <path d="M3038.5,1996L3021,1979L3026,1956L3046,1973L3038.5,1996Z" style="fill:rgb(84,104,189);"/>
    <path d="M2999,1956L2996,1986L3021,1979L3026,1956L2999,1956Z" style="fill:rgb(125,105,225);"/>
    <path d="M3031,1970L3029,1977L3035,1982L3036,1975L3031,1970Z" style="fill:rgb(73,71,155);"/>
    <path d="M2916,1910L2911,1956L2872,1929L2916,1910Z" style="fill:rgb(108,107,214);"/>
    <path d="M2906,2015L2860,2029L2869,1981L2911,1956L2906,2015Z" style="fill:rgb(101,151,236);"/>
    <path d="M2829,1951L2872,1929L2911,1956L2869,1981L2829,1951Z" style="fill:rgb(136,142,255);"/>
    <path d="M2807,1947L2801,2009L2860,1988L2807,1947Z" style="fill:rgb(223,141,255);"/>
    <path d="M2877,2067L2909,2096L2951,2083L2918,2054L2877,2067Z" style="fill:rgb(224,140,255);"/>
    <path d="M2860,2031L2817,2045L2809,2087L2852,2075L2860,2031Z" style="fill:rgb(80,97,172);"/>
    <path d="M2825,2052L2849,2045L2844,2066L2821,2073L2825,2052Z" style="fill:rgb(48,52,105);"/>
    <path d="M2843,2122L2886,2106L2852,2075L2809,2087L2843,2122Z" style="fill:rgb(118,112,220);"/>
    <path d="M2860,2155L2897,2166L2886,2106L2843,2122L2860,2155Z" style="fill:rgb(101,154,243);"/>
    <path d="M2853,2127L2865,2147L2886,2153L2880,2119L2853,2127Z" style="fill:rgb(127,109,252);"/>
    <path d="M2849,2084L2869.5,2103L2844,2112L2825,2091L2849,2084Z" style="fill:rgb(171,87,255);"/>
    <path d="M2790,2109L2778,2153L2825,2144L2790,2109Z" style="fill:rgb(97,161,236);"/>
    <path d="M2807,2187L2844,2176L2825,2144L2778,2153L2807,2187Z" style="fill:rgb(138,146,255);"/>
    <path d="M2763,2195L2778,2153L2807,2187L2763,2195Z" style="fill:rgb(114,112,228);"/>
    <path d="M2968,2097L3001,2088L3025,2111L2993,2121L2968,2097Z" style="fill:rgb(105,146,255);"/>
    <path d="M2996.5,2156L2968,2171L2959,2132L2993,2121L2996.5,2156Z" style="fill:rgb(106,115,226);"/>
    <path d="M3025,2111L3032,2140L2996.5,2156L2993,2121L3025,2111Z" style="fill:rgb(112,145,255);"/>
    <path d="M3057,2158L3028,2175L2996.5,2156L3032,2140L3057,2158Z" style="fill:rgb(113,149,255);"/>
    <path d="M3026.75,2210L2996.5,2192L2996.5,2156L3028,2175L3026.75,2210Z" style="fill:rgb(105,178,255);"/>
    <path d="M3004,2147L3024,2138L3020,2120L3001,2126L3004,2147Z" style="fill:rgb(178,111,255);"/>
    <path d="M3077,2045L3073,2065L3092,2059L3077,2045Z" style="fill:rgb(114,126,232);"/>
    <path d="M3077,2084L3093,2077L3092,2059L3073,2065L3077,2084Z" style="fill:rgb(196,138,255);"/>
    <path d="M3095,2135L3094,2143L3087,2138L3095,2135Z" style="fill:rgb(224,141,255);"/>
    <path d="M2947,2238L2963,2229L2963,2209L2945,2218L2947,2238Z" style="fill:rgb(228,143,255);"/>
    <path d="M2950,2231L2959,2227L2959,2215L2950,2220L2950,2231Z" style="fill:rgb(187,98,255);"/>
    <path d="M2844,2233L2865,2255L2867,2223.5L2844,2233Z" style="fill:rgb(100,121,235);"/>
    <path d="M2892,2231L2894,2264L2865,2255L2867,2223.5L2892,2231Z" style="fill:rgb(168,127,255);"/>
    <path d="M2870,2282L2865,2255L2894,2264L2870,2282Z" style="fill:rgb(72,123,174);"/>
    <path d="M2820,2270L2825,2294L2801,2304L2789,2276L2820,2270Z" style="fill:rgb(134,120,246);"/>
    <path d="M2799,2247L2770,2252.75L2789,2276L2820,2270L2799,2247Z" style="fill:rgb(87,102,187);"/>
    <path d="M2757,2278L2773,2304L2801,2304L2789,2276L2757,2278Z" style="fill:rgb(123,217,255);"/>
    <path d="M2766,2283L2775,2299L2793,2299L2786,2282L2766,2283Z" style="fill:rgb(77,122,255);"/>
    <path d="M2783,2257L2791,2267L2807,2265L2797,2255L2783,2257Z" style="fill:rgb(51,58,119);"/>
    <path d="M2972,2269L3004,2288L2972,2307L2941,2288L2972,2269Z" style="fill:rgb(107,186,255);"/>
    <path d="M2939,2325L2913,2309L2941,2288L2972,2307L2939,2325Z" style="fill:rgb(202,139,255);"/>
    <path d="M2956,2288L2972,2278L2989,2288L2972,2298L2956,2288Z" style="fill:rgb(126,137,255);"/>
    <path d="M2737,2328L2747,2344L2737,2361L2728,2344L2737,2328Z" style="fill:rgb(113,156,255);"/>
    <path d="M2764,2344.5L2759,2361L2737.5,2361L2747,2344L2764,2344.5Z" style="fill:rgb(206,139,255);"/>
    <path d="M2743,2229L2774,2269L2724,2272L2743,2229Z" style="fill:rgb(223,141,255);"/>
    <path d="M2747,2244L2741,2258L2758,2257L2747,2244Z" style="fill:rgb(167,143,246);"/>
    <path d="M2867,2340L2887,2352.5L2864,2367L2846,2350L2867,2340Z" style="fill:rgb(224,140,255);"/>
    <path d="M2866.5,2346L2879,2353.5L2866.5,2361L2855,2351L2866.5,2346Z" style="fill:rgb(142,87,184);"/>
    <path d="M2667,2375L2694,2415L2661,2454L2641,2411L2667,2375Z" style="fill:rgb(101,107,208);"/>
    <path d="M2629,2495L2583,2486L2613,2450L2661,2454L2629,2495Z" style="fill:rgb(124,159,255);"/>
    <path d="M2641,2411L2613,2450L2661,2454L2641,2411Z" style="fill:rgb(100,181,255);"/>
    <path d="M2717,2463L2709,2426L2686,2454L2717,2463Z" style="fill:rgb(224,141,255);"/>
    <path d="M2709,2453L2705,2436L2694,2449L2709,2453Z" style="fill:rgb(168,99,223);"/>
    <path d="M2726,2474L2767,2471L2767,2524L2735,2516L2726,2474Z" style="fill:rgb(100,161,245);"/>
    <path d="M2737,2485L2758,2484L2758,2512L2741,2507L2737,2485Z" style="fill:rgb(134,116,255);"/>
    <path d="M2767,2524L2768,2566L2716,2545L2735,2516L2767,2524Z" style="fill:rgb(113,138,247);"/>
    <path d="M2701.5,2508L2676,2536L2716,2545L2735,2516L2701.5,2508Z" style="fill:rgb(97,119,230);"/>
    <path d="M2804,2547L2803,2586L2768,2604L2768,2566L2804,2547Z" style="fill:rgb(110,197,255);"/>
    <path d="M2716,2545L2687,2577L2704,2606L2731,2585L2716,2545Z" style="fill:rgb(112,126,229);"/>
    <path d="M2731,2626L2766,2646L2768,2604L2731,2585L2731,2626Z" style="fill:rgb(96,167,255);"/>
    <path d="M2726,2557L2735,2582L2757,2593L2758,2569L2726,2557Z" style="fill:rgb(140,149,255);"/>
    <path d="M2702,2515L2687,2533L2712,2537L2723,2520L2702,2515Z" style="fill:rgb(133,98,251);"/>
    <path d="M2716,2545L2731,2585L2768,2604L2768,2566L2716,2545Z" style="fill:rgb(107,185,255);"/>
    <path d="M2642,2537L2654,2572L2678,2544L2642,2537Z" style="fill:rgb(223,141,255);"/>
    <path d="M2995,2388L3004,2394L2995,2399L2987,2394L2995,2388Z" style="fill:rgb(121,122,234);"/>
    <path d="M2986,2405L2986,2414L2994,2410L2995,2399L2986,2405Z" style="fill:rgb(114,160,255);"/>
    <path d="M2986,2426L2995,2421L2994,2410L2986,2414L2986,2426Z" style="fill:rgb(91,135,209);"/>
    <path d="M2977,2399L2986,2405L2995,2399L2987,2394L2977,2399Z" style="fill:rgb(99,170,237);"/>
    <path d="M2969,2404L2977,2409L2986,2405L2977,2399L2969,2404Z" style="fill:rgb(105,125,246);"/>
    <path d="M2986,2414L2977,2409L2986,2405L2986,2414Z" style="fill:rgb(137,126,255);"/>
    <path d="M2995,2397L3001,2394L2995,2390L2990,2394L2995,2397Z" style="fill:rgb(253,131,255);"/>
    <path d="M2874,2442L2870,2449L2880,2448L2874,2442Z" style="fill:rgb(134,128,255);"/>
    <path d="M2870,2449L2870,2463L2880,2457L2880,2448L2870,2449Z" style="fill:rgb(107,171,255);"/>
    <path d="M2873,2453L2873,2459L2877,2457L2877,2453L2873,2453Z" style="fill:rgb(100,131,237);"/>
    <path d="M2880,2448L2889,2454L2889,2462L2880,2457L2880,2448Z" style="fill:rgb(172,120,255);"/>
    <path d="M2897,2468L2889,2462L2889,2454L2897,2459L2897,2468Z" style="fill:rgb(64,97,160);"/>
    <path d="M2870,2463L2870,2473L2878,2468L2870,2463Z" style="fill:rgb(101,113,219);"/>
    <path d="M2889,2462L2878,2468L2870,2463L2880,2457L2889,2462Z" style="fill:rgb(104,179,255);"/>
    <path d="M2882,2452L2887,2455L2887,2459L2882,2456L2882,2452Z" style="fill:rgb(98,64,156);"/>
    <path d="M2449,2697L2494,2726L2452,2751L2408,2729L2449,2697Z" style="fill:rgb(93,154,255);"/>
    <path d="M2494,2777L2493,2827L2451,2799L2452,2751L2494,2777Z" style="fill:rgb(193,128,255);"/>
    <path d="M2408,2729L2408,2774L2451,2799L2452,2751L2408,2729Z" style="fill:rgb(116,180,255);"/>
    <path d="M2405,2678L2365,2702L2408,2729L2405,2678Z" style="fill:rgb(88,144,210);"/>
    <path d="M2324,2724L2365,2750L2365,2702L2324,2724Z" style="fill:rgb(104,172,255);"/>
    <path d="M2363,2798L2408,2774L2365,2750L2363,2798Z" style="fill:rgb(108,118,234);"/>
    <path d="M2397,2688L2399,2717L2375,2702L2397,2688Z" style="fill:rgb(151,125,255);"/>
    <path d="M2354,2715L2354,2737L2335,2726L2354,2715Z" style="fill:rgb(116,191,255);"/>
    <path d="M2416,2743L2416,2770L2442,2785L2442,2756L2416,2743Z" style="fill:rgb(88,131,220);"/>
    <path d="M2365,2702L2365,2750L2408,2774L2408,2729L2365,2702Z" style="fill:rgb(132,143,255);"/>
    <path d="M2267,2734L2261,2791L2216,2758L2267,2734Z" style="fill:rgb(75,122,222);"/>
    <path d="M2159,2776L2205,2812L2261,2791L2216,2758L2159,2776Z" style="fill:rgb(108,185,255);"/>
    <path d="M2176,2856L2205,2812L2159,2776L2134,2830L2176,2856Z" style="fill:rgb(164,132,255);"/>
    <path d="M2197,2901L2238,2860L2205,2812L2176,2856L2197,2901Z" style="fill:rgb(76,117,211);"/>
    <path d="M2138,2894L2134,2830L2176,2856L2138,2894Z" style="fill:rgb(95,145,224);"/>
    <path d="M2261,2791L2238,2860L2205,2812L2261,2791Z" style="fill:rgb(96,177,255);"/>
    <path d="M2249,2807L2237,2844L2218,2819L2249,2807Z" style="fill:rgb(74,129,255);"/>
    <path d="M2119,2824L2093,2787L2144,2772L2119,2824Z" style="fill:rgb(224,140,255);"/>
    <path d="M2119,2811L2103,2791L2134,2784L2119,2811Z" style="fill:rgb(140,86,182);"/>
    <path d="M2302,2765L2339,2785L2339,2830L2299,2809L2302,2765Z" style="fill:rgb(124,127,255);"/>
    <path d="M2379,2809L2418,2832L2379,2854L2339,2830L2379,2809Z" style="fill:rgb(89,130,244);"/>
    <path d="M2418,2878L2385,2919L2367,2888L2379,2854L2418,2878Z" style="fill:rgb(118,108,215);"/>
    <path d="M2299,2809L2280,2859L2323,2870L2339,2830L2299,2809Z" style="fill:rgb(127,126,247);"/>
    <path d="M2323,2870L2339,2911L2367,2888L2323,2870Z" style="fill:rgb(133,234,255);"/>
    <path d="M2339,2830L2379,2854L2367,2888L2323,2870L2339,2830Z" style="fill:rgb(115,191,255);"/>
    <path d="M2280,2859L2249,2894L2294,2902L2323,2870L2280,2859Z" style="fill:rgb(95,159,231);"/>
    <path d="M2283,2874L2299,2878L2289,2888L2273,2885L2283,2874Z" style="fill:rgb(153,106,255);"/>
    <path d="M2304,2827L2321,2836L2316,2852L2297,2847L2304,2827Z" style="fill:rgb(139,104,252);"/>
    <path d="M2467,2839.5L2503,2862L2467,2882L2431,2861L2467,2839.5Z" style="fill:rgb(224,141,255);"/>
    <path d="M2185,2904L2196,2927L2177,2949L2166,2922L2185,2904Z" style="fill:rgb(197,139,255);"/>
    <path d="M2225,2933L2207,2956L2177,2949L2196,2927L2225,2933Z" style="fill:rgb(114,150,255);"/>
    <path d="M2198,2933L2216,2936L2205,2951L2186,2947L2198,2933Z" style="fill:rgb(161,109,255);"/>
    <path d="M2569,2855L2569,2841L2557,2833L2557,2847L2569,2855Z" style="fill:rgb(224,140,255);"/>
    <path d="M2532,2748L2538,2751L2532,2756L2526,2752L2532,2748Z" style="fill:rgb(226,142,255);"/>
    <path d="M2530,2752L2532,2750L2534,2752L2532,2753L2530,2752Z" style="fill:rgb(170,89,255);"/>
    <path d="M2294,2942L2309,2981L2281,3011L2267,2971L2294,2942Z" style="fill:rgb(114,115,219);"/>
    <path d="M2323,3019L2295,3051L2281,3011L2309,2981L2323,3019Z" style="fill:rgb(121,156,255);"/>
    <path d="M2309,3091L2267,3084L2253,3043L2295,3051L2309,3091Z" style="fill:rgb(101,139,229);"/>
    <path d="M2267,2971L2239,3005L2281,3011L2267,2971Z" style="fill:rgb(104,175,255);"/>
    <path d="M2253,3043L2281,3011L2295,3051L2253,3043Z" style="fill:rgb(121,167,255);"/>
    <path d="M2211,3034L2239,3005L2281,3011L2253,3043L2211,3034Z" style="fill:rgb(138,134,255);"/>
    <path d="M2197,2997L2239,3005L2211,3034L2197,2997Z" style="fill:rgb(68,102,175);"/>
    <path d="M2286,3072L2279,3071L2275,3063L2283,3064L2286,3072Z" style="fill:rgb(156,98,255);"/>
    <path d="M2097,2945L2083,2907L2042,2907L2057,2938L2097,2945Z" style="fill:rgb(107,146,250);"/>
    <path d="M2030,2968L2016,2928L2042,2907L2057,2938L2030,2968Z" style="fill:rgb(108,113,210);"/>
    <path d="M1976,2922L1964,2886L2003,2893L2016,2928L1976,2922Z" style="fill:rgb(65,101,171);"/>
    <path d="M2048,2876L2042,2907L2016,2928L2003,2893L2048,2876Z" style="fill:rgb(125,158,255);"/>
    <path d="M2023,2844L2061,2838L2079,2864L2048,2876L2023,2844Z" style="fill:rgb(103,154,255);"/>
    <path d="M2083,2907L2042,2907L2048,2876L2079,2864L2083,2907Z" style="fill:rgb(111,157,255);"/>
    <path d="M2035,2850L2056,2847L2067,2860L2050,2867L2035,2850Z" style="fill:rgb(86,105,203);"/>
    <path d="M2053,2879L2072,2873L2075,2899L2051,2899L2053,2879Z" style="fill:rgb(164,122,255);"/>
    <path d="M1794,3018L1770,2967L1808,2924L1830,2976L1794,3018Z" style="fill:rgb(136,126,255);"/>
    <path d="M1864,2931L1830,2976L1808,2924L1841,2879L1864,2931Z" style="fill:rgb(93,130,207);"/>
    <path d="M1779,2875L1815,2835L1841,2879L1808,2924L1779,2875Z" style="fill:rgb(94,140,255);"/>
    <path d="M1901,2877L1873,2832L1815,2835L1841.22,2879.5L1901,2877Z" style="fill:rgb(59,108,184);"/>
    <path d="M1957,2886L1929,2829L1873,2832L1901,2877L1957,2886Z" style="fill:rgb(81,124,229);"/>
    <path d="M2020,2863L1985,2824L1929,2829L1957,2886L2020,2863Z" style="fill:rgb(65,97,160);"/>
    <path d="M1966,2871L1949,2842L1980,2840L2000,2859L1966,2871Z" style="fill:rgb(33,49,84);"/>
    <path d="M1811,2864L1822,2879.5L1809,2896L1799,2878L1811,2864Z" style="fill:rgb(100,124,253);"/>
    <path d="M1839,2898L1819,2925L1832,2957L1853,2929L1839,2898Z" style="fill:rgb(213,127,255);"/>
    <path d="M1913,3074L1903,3043L1871,3036L1881,3068L1913,3074Z" style="fill:rgb(101,157,246);"/>
    <path d="M1935,3049L1957,3014L1924,3010L1903,3043L1935,3049Z" style="fill:rgb(97,175,255);"/>
    <path d="M1947,2986L1914,2979L1924,3010L1957,3014L1947,2986Z" style="fill:rgb(141,139,255);"/>
    <path d="M1902,2949L1868,2950L1881,2977L1914,2979L1902,2949Z" style="fill:rgb(100,101,195);"/>
    <path d="M1892,3011L1924,3010L1914,2979L1881,2977L1892,3011Z" style="fill:rgb(165,122,255);"/>
    <path d="M1861,3005L1838,3029.5L1871,3036L1891,3011L1861,3005Z" style="fill:rgb(104,183,255);"/>
    <path d="M1862,3012L1880,3015L1868.5,3028L1851,3026L1862,3012Z" style="fill:rgb(92,151,255);"/>
    <path d="M1926,2989L1930,3002L1944,3004L1940,2993L1926,2989Z" style="fill:rgb(132,112,243);"/>
    <path d="M1892,3011L1871,3036L1903,3043L1924,3010L1892,3011Z" style="fill:rgb(95,134,214);"/>
    <path d="M1828,2989L1855,2953L1873,2999L1828,2989Z" style="fill:rgb(223,141,255);"/>
    <path d="M1790,3083L1832,3092L1846,3133L1804,3125L1790,3083Z" style="fill:rgb(101,155,246);"/>
    <path d="M1817,3166L1860,3175L1846,3133L1804,3125L1817,3166Z" style="fill:rgb(185,137,255);"/>
    <path d="M1685,2849L1702,2905L1742,2861L1685,2849Z" style="fill:rgb(114,201,255);"/>
    <path d="M1779,2814L1742,2861L1722,2808L1779,2814Z" style="fill:rgb(109,116,231);"/>
    <path d="M1666,2796L1685,2849L1742,2861L1722,2808L1666,2796Z" style="fill:rgb(159,133,255);"/>
    <path d="M1652,3013L1621,2985L1662,2949L1679,2985L1652,3013Z" style="fill:rgb(112,196,255);"/>
    <path d="M1710,2959L1689,2926L1662,2949L1679,2985L1710,2959Z" style="fill:rgb(120,156,255);"/>
    <path d="M1738,2930L1718,2898L1689,2926L1710,2959L1738,2930Z" style="fill:rgb(62,103,174);"/>
    <path d="M1664,2850.5L1634,2878L1648,2915L1676,2890L1664,2850.5Z" style="fill:rgb(157,117,255);"/>
    <path d="M1689,2926L1676,2890L1648,2915L1662,2949L1689,2926Z" style="fill:rgb(255,149,255);"/>
    <path d="M1621,2985L1627,2949L1648,2915L1662,2949L1621,2985Z" style="fill:rgb(80,153,222);"/>
    <path d="M1673,2952L1687,2940L1699,2958L1683,2971L1673,2952Z" style="fill:rgb(184,126,255);"/>
    <path d="M1657,2961L1668,2983L1651,3000L1633,2984L1657,2961Z" style="fill:rgb(110,153,255);"/>
    <path d="M1577,2924L1603,2886L1585,2839L1543,2888L1577,2924Z" style="fill:rgb(99,143,229);"/>
    <path d="M1577,2791L1621,2804L1585,2839L1577,2791Z" style="fill:rgb(99,185,255);"/>
    <path d="M1531,2780L1539,2820L1585,2839L1577,2791L1531,2780Z" style="fill:rgb(82,119,220);"/>
    <path d="M1491,2805L1502,2850.5L1539,2820L1531,2780L1491,2805Z" style="fill:rgb(62,95,155);"/>
    <path d="M1543,2888L1502,2850.5L1539,2820L1585,2839L1543,2888Z" style="fill:rgb(166,128,255);"/>
    <path d="M1543.5,2875L1519,2852L1539,2835L1568,2846L1543.5,2875Z" style="fill:rgb(159,83,255);"/>
    <path d="M1558,2885L1579,2862L1588,2885L1576,2902L1558,2885Z" style="fill:rgb(155,100,255);"/>
    <path d="M1418,2835L1449,2822L1458,2862L1421,2878L1418,2835Z" style="fill:rgb(191,138,255);"/>
    <path d="M1414,2918L1454,2905L1458,2862L1421,2878L1414,2918Z" style="fill:rgb(95,133,213);"/>
    <path d="M1436,2753L1461,2763L1442,2779L1417,2789L1414,2768L1436,2753Z" style="fill:rgb(107,189,255);"/>
    <path d="M1390,2783L1400,2803L1417,2789L1414,2768L1390,2783Z" style="fill:rgb(63,99,163);"/>
    <path d="M1395,2784L1402,2794L1411,2788L1409,2776L1395,2784Z" style="fill:rgb(34,52,95);"/>
    <path d="M1410,2699L1411,2729L1436,2713L1410,2699Z" style="fill:rgb(223,141,255);"/>
    <path d="M1415,2705L1416,2722L1431,2714L1415,2705Z" style="fill:rgb(255,151,255);"/>
    <path d="M1326,2722L1327,2745L1305,2759L1303,2734L1326,2722Z" style="fill:rgb(51,95,147);"/>
    <path d="M1271,2740.5L1267,2766L1305,2759L1303,2734L1271,2740.5Z" style="fill:rgb(120,143,255);"/>
    <path d="M1252,2722L1246,2748L1267,2766L1271,2740.5L1252,2722Z" style="fill:rgb(107,172,255);"/>
    <path d="M1363,2676L1319,2700L1278,2672L1322,2651L1363,2676Z" style="fill:rgb(88,143,255);"/>
    <path d="M1283,2621L1244,2629L1278,2672L1322,2651L1283,2621Z" style="fill:rgb(96,168,231);"/>
    <path d="M1220,2680L1259,2715L1278,2672L1244,2629L1220,2680Z" style="fill:rgb(235,143,255);"/>
    <path d="M1231,2677L1246,2648L1266,2672L1255,2696L1231,2677Z" style="fill:rgb(148,88,184);"/>
    <path d="M1259,2715L1319,2700L1278,2672L1259,2715Z" style="fill:rgb(71,113,201);"/>
    <path d="M1222,2563L1213,2577L1227,2585L1228,2570L1222,2563Z" style="fill:rgb(166,138,255);"/>
    <path d="M1243,2583L1227,2585L1228,2570L1243,2583Z" style="fill:rgb(120,160,255);"/>
    <path d="M1223,2579L1223,2572L1221,2570L1218,2575L1223,2579Z" style="fill:rgb(148,91,255);"/>
    <path d="M1121,2716L1125,2694L1103,2701L1099,2723L1121,2716Z" style="fill:rgb(109,169,255);"/>
    <path d="M1085,2686L1080,2706L1099,2723L1103,2701L1085,2686Z" style="fill:rgb(150,110,254);"/>
    <path d="M1068,2672L1063,2692L1080,2706L1085,2686L1068,2672Z" style="fill:rgb(61,91,145);"/>
    <path d="M1729,3128L1713,3134L1736,3148L1729,3128Z" style="fill:rgb(226,141,255);"/>
    <path d="M1743,3169L1717,3185L1722,3165L1736,3148L1743,3169Z" style="fill:rgb(104,154,255);"/>
    <path d="M1696,3193L1701,3171L1722,3165L1717,3185L1696,3193Z" style="fill:rgb(100,183,255);"/>
    <path d="M1685,3156L1689,3137L1705,3150L1701,3171L1685,3156Z" style="fill:rgb(91,132,251);"/>
    <path d="M1713,3134L1736,3148L1722,3165L1705,3150L1713,3134Z" style="fill:rgb(143,134,255);"/>
    <path d="M1701,3171L1705,3150L1722,3165L1701,3171Z" style="fill:rgb(139,137,255);"/>
    <path d="M1711,3149.5L1716,3141L1730,3149.5L1722,3159L1711,3149.5Z" style="fill:rgb(147,99,255);"/>
    <path d="M1708,3156L1706,3165L1716,3163L1708,3156Z" style="fill:rgb(127,104,231);"/>
    <path d="M1692,3145L1689,3155L1698,3162L1700,3152L1692,3145Z" style="fill:rgb(60,77,161);"/>
    <path d="M1796,3263L1824,3268L1832,3292L1805,3288L1796,3263Z" style="fill:rgb(52,100,162);"/>
    <path d="M1813,3316L1778,3331L1782,3301L1805,3288L1813,3316Z" style="fill:rgb(91,147,216);"/>
    <path d="M1822,3343L1798,3352L1778,3331L1813,3316L1822,3343Z" style="fill:rgb(103,182,255);"/>
    <path d="M1796,3263L1763,3283L1782,3301L1805,3288L1796,3263Z" style="fill:rgb(104,159,255);"/>
    <path d="M1735,3292L1756,3309.5L1782,3301L1763,3283L1735,3292Z" style="fill:rgb(80,107,195);"/>
    <path d="M2044,3131L2071,3137L2089,3118L2062,3104L2044,3131Z" style="fill:rgb(199,139,255);"/>
    <path d="M2079,3083L2089,3118L2062,3104L2079,3083Z" style="fill:rgb(100,164,242);"/>
    <path d="M2068,3102L2078,3091L2082,3108L2068,3102Z" style="fill:rgb(92,149,215);"/>
    <path d="M2091,3062L2088,3051L2077,3049L2080,3059L2091,3062Z" style="fill:rgb(214,142,255);"/>
    <path d="M2069,3059L2073,3069L2080,3059L2077,3049L2069,3059Z" style="fill:rgb(68,134,194);"/>
    <path d="M2061,3070L2065,3079L2073,3069L2069,3059L2061,3070Z" style="fill:rgb(67,96,162);"/>
    <path d="M2198,3177L2183,3174L2178,3158L2194,3160L2198,3177Z" style="fill:rgb(119,213,255);"/>
    <path d="M2189,3146L2205,3146L2194,3160L2178,3158L2189,3146Z" style="fill:rgb(121,226,255);"/>
    <path d="M2184,3126L2201,3130L2205,3146L2189,3146L2184,3126Z" style="fill:rgb(116,165,255);"/>
    <path d="M2216,3132L2221,3147L2205,3146L2201,3130L2216,3132Z" style="fill:rgb(130,137,255);"/>
    <path d="M2237,3151L2227,3162L2211,3164L2221,3147L2237,3151Z" style="fill:rgb(98,144,229);"/>
    <path d="M2194,3160L2205,3146L2221,3147L2211,3164L2194,3160Z" style="fill:rgb(110,149,255);"/>
    <path d="M2198,3140L2192,3140L2190,3132L2196,3133L2198,3140Z" style="fill:rgb(138,135,255);"/>
    <path d="M2473,2958L2482,2981L2507,2987L2498,2967L2473,2958Z" style="fill:rgb(130,116,246);"/>
    <path d="M2492,2937L2513,2950L2524,2970L2507,2987L2498,2967L2473,2958L2492,2937Z" style="fill:rgb(107,176,255);"/>
    <path d="M2513,2925L2533,2937L2513,2950L2492,2937L2513,2925Z" style="fill:rgb(77,123,225);"/>
    <path d="M2432,3057L2441,3083L2414,3077L2432,3057Z" style="fill:rgb(224,140,255);"/>
    <path d="M2444,3219L2457,3220L2463,3233L2448,3232L2444,3219Z" style="fill:rgb(190,138,255);"/>
    <path d="M2439,3242L2453.5,3244L2463,3233L2448,3232L2439,3242Z" style="fill:rgb(97,157,234);"/>
    <path d="M2566,3310L2574,3312L2577,3319L2569,3318L2566,3310Z" style="fill:rgb(185,137,255);"/>
    <path d="M2579,3327L2571.5,3326L2569,3318L2577,3319L2579,3327Z" style="fill:rgb(103,156,248);"/>
    <path d="M2657,2898L2661,2900L2658,2902L2655,2901L2657,2898Z" style="fill:rgb(230,145,255);"/>
    <path d="M2761,2739L2772,2746L2783,2740L2773,2734L2761,2739Z" style="fill:rgb(103,180,255);"/>
    <path d="M2772,2720L2761,2727L2761,2739L2773,2734L2772,2720Z" style="fill:rgb(106,180,255);"/>
    <path d="M2750,2720L2750,2733L2761,2739L2761,2727L2750,2720Z" style="fill:rgb(146,137,255);"/>
    <path d="M2749,2706L2741,2713L2750,2720L2749,2706Z" style="fill:rgb(120,213,255);"/>
    <path d="M2735,2705L2727,2713L2737,2724L2741,2713L2735,2705Z" style="fill:rgb(85,99,179);"/>
    <path d="M2750,2733L2737,2724L2741,2713L2750,2720L2750,2733Z" style="fill:rgb(202,130,255);"/>
    <path d="M2750,2746L2761,2752L2761,2739L2750,2733L2750,2746Z" style="fill:rgb(132,119,254);"/>
    <path d="M2758,2735L2758,2727L2753,2725L2752,2731L2758,2735Z" style="fill:rgb(150,90,255);"/>
    <path d="M1698,3063L1692,3058L1697,3053L1700,3058L1698,3063Z" style="fill:rgb(110,192,255);"/>
    <path d="M1703,3048L1706,3055L1700,3058L1697,3053L1703,3048Z" style="fill:rgb(201,140,255);"/>
    <path d="M1585,3048L1579,3083L1614,3071L1585,3048Z" style="fill:rgb(225,141,255);"/>
    <path d="M1589,3055.5L1586,3075L1607,3070L1589,3055.5Z" style="fill:rgb(172,102,229);"/>
    <path d="M1548,3117L1546,3127L1536,3129L1538,3120L1548,3117Z" style="fill:rgb(108,170,255);"/>
    <path d="M1530,3113L1528,3123L1536,3129L1538,3120L1530,3113Z" style="fill:rgb(157,139,255);"/>
    <path d="M1520,3116L1528,3123L1530,3113L1520,3116Z" style="fill:rgb(120,147,255);"/>
    <path d="M1526,3133L1536,3129L1528,3123L1526,3133Z" style="fill:rgb(250,149,255);"/>
    <path d="M1394,2934L1375,2940L1370,2962L1391,2955L1394,2934Z" style="fill:rgb(190,138,255);"/>
    <path d="M1407,2970L1387,2977L1370,2962L1391,2955L1407,2970Z" style="fill:rgb(104,142,238);"/>
    <path d="M1325,2971L1327,2959L1314,2962L1325,2971Z" style="fill:rgb(59,91,143);"/>
    <path d="M1317,2948L1303,2952L1314,2962L1327,2959L1317,2948Z" style="fill:rgb(156,124,255);"/>
    <path d="M1306,2937L1319,2933L1317,2948L1303,2952L1306,2937Z" style="fill:rgb(64,100,147);"/>
    <path d="M1309,2924L1298,2914L1295,2927L1306,2937L1309,2924Z" style="fill:rgb(127,120,253);"/>
    <path d="M1318,2910L1323,2922L1309,2924L1298,2914L1318,2910Z" style="fill:rgb(104,165,255);"/>
    <path d="M1332,2914L1333,2929L1319,2933L1323,2922L1332,2914Z" style="fill:rgb(62,125,214);"/>
    <path d="M1306,2937L1309,2924L1323,2922L1319,2933L1306,2937Z" style="fill:rgb(132,130,255);"/>
    <path d="M1300,2921L1299,2926L1304,2929.5L1305,2925.5L1300,2921Z" style="fill:rgb(77,68,156);"/>
    <path d="M1311,2926L1310,2932L1317,2931L1320,2925.25L1311,2926Z" style="fill:rgb(129,107,245);"/>
    <path d="M1325,2926L1326,2922L1329,2920L1329,2925L1325,2926Z" style="fill:rgb(75,132,255);"/>
    <path d="M1205,2843L1211,2814L1189,2794L1183,2823L1205,2843Z" style="fill:rgb(224,141,255);"/>
    <path d="M1117,2862L1093,2869L1088,2894L1113,2887L1117,2862Z" style="fill:rgb(211,142,255);"/>
    <path d="M1069,2877L1088,2894L1093,2869L1069,2877Z" style="fill:rgb(118,200,255);"/>
    <path d="M1032,2818.5L1039,2816L1039,2823L1032,2825L1032,2818.5Z" style="fill:rgb(34,51,96);"/>
    <path d="M1026,2813L1026,2819L1032,2818.5L1026,2813Z" style="fill:rgb(226,117,255);"/>
    <path d="M1018,2822L1026,2819L1026,2813L1020,2815L1018,2822Z" style="fill:rgb(151,118,255);"/>
    <path d="M1011,2825L1015,2831L1023,2827L1018,2822L1011,2825Z" style="fill:rgb(114,172,255);"/>
    <path d="M1008,2818L1013,2817L1018,2822L1011,2825L1008,2818Z" style="fill:rgb(106,147,248);"/>
    <path d="M1023,2827L1026,2819L1018,2822L1023,2827Z" style="fill:rgb(100,137,253);"/>
    <path d="M1032,2825L1023,2827L1026,2819L1032,2818.5L1032,2825Z" style="fill:rgb(56,100,174);"/>
    <path d="M1129,2624L1140,2635L1156,2630L1143,2619L1129,2624Z" style="fill:rgb(129,230,255);"/>
    <path d="M1152,2608L1163,2614L1156,2630L1143,2619L1152,2608Z" style="fill:rgb(213,133,255);"/>
    <path d="M1152,2613L1147,2619L1154,2624L1158,2617L1152,2613Z" style="fill:rgb(178,103,255);"/>
    <path d="M1135,2595L1136,2612L1143,2619L1152,2608L1135,2595Z" style="fill:rgb(70,93,153);"/>
    <path d="M2389,3002L2389,2999L2391,3001L2389,3002Z" style="fill:rgb(117,137,249);"/>
    <path d="M2391,3004L2391,3001L2389,3002L2391,3004Z" style="fill:rgb(208,145,255);"/>
    <path d="M2653,2773L2655,2771L2657,2773L2655,2775L2653,2773Z" style="fill:rgb(105,111,220);"/>
    <path d="M2660,2778L2661,2780L2658,2780L2660,2778Z" style="fill:rgb(81,115,211);"/>
    <path d="M2655,2775L2654,2780L2658,2780L2655,2775Z" style="fill:rgb(108,179,255);"/>
    <path d="M2657,2773L2660,2774L2660,2778L2658,2780L2655,2775L2657,2773Z" style="fill:rgb(204,137,255);"/>
    <path d="M2887,2625L2889,2623L2887,2622L2886,2623L2887,2625Z" style="fill:rgb(102,150,255);"/>
    <path d="M2883,2627L2887,2629L2887,2625L2886,2623L2883,2627Z" style="fill:rgb(124,199,255);"/>
    <path d="M2883,2631L2881,2629L2883,2627L2883,2631Z" style="fill:rgb(76,107,191);"/>
    <path d="M2889,2628L2889,2631L2887,2629L2889,2628Z" style="fill:rgb(65,99,167);"/>
    <path d="M2883,2631L2885,2634L2887,2629L2883,2627L2883,2631Z" style="fill:rgb(109,107,240);"/>
    <path d="M2507,1288L2499,1297L2507,1305L2518,1293L2507,1288Z" style="fill:rgb(221,146,191);"/>
    <path d="M2526,1300L2518,1309L2507,1305L2518,1293L2526,1300Z" style="fill:rgb(169,127,214);"/>
    <path d="M2772,997L2769,1009L2781,1012L2784,999L2772,997Z" style="fill:rgb(149,126,214);"/>
    <path d="M2798,999L2792,1012L2781,1012L2784,999L2798,999Z" style="fill:rgb(201,140,210);"/>
    <path d="M2784,1022L2775,1021.5L2769,1009L2781,1012L2784,1022Z" style="fill:rgb(130,110,213);"/>
    <path d="M1103,2621L1110,2638L1127,2621L1120,2605L1103,2621Z" style="fill:rgb(106,186,255);"/>
    <path d="M1138,2587L1143,2602L1127,2621L1120,2605L1138,2587Z" style="fill:rgb(187,123,255);"/>
    <path d="M1129,2624L1139,2635L1156,2630L1143,2619L1129,2624Z" style="fill:rgb(130,230,255);"/>
    <path d="M1163,2613L1151,2608L1143,2619L1156,2630L1163,2613Z" style="fill:rgb(178,103,255);"/>
    <path d="M1135,2594L1136,2612.5L1143,2619L1151,2608L1135,2594Z" style="fill:rgb(70,92,153);"/>
</svg>