<?xml version="1.0" encoding="UTF-8" standalone="no"?>
<!DOCTYPE svg PUBLIC "-//W3C//DTD SVG 1.1//EN" "http://www.w3.org/Graphics/SVG/1.1/DTD/svg11.dtd">
<svg width="100%" height="100%" viewBox="0 0 3736 3736" version="1.1" xmlns="http://www.w3.org/2000/svg" xmlns:xlink="http://www.w3.org/1999/xlink" xml:space="preserve" xmlns:serif="http://www.serif.com/" style="fill-rule:evenodd;clip-rule:evenodd;stroke-linejoin:round;stroke-miterlimit:2;">
    <path d="M2313,1325.5L2342,1371L2383,1333L2367,1280L2313,1325.5Z" style="fill:rgb(119,115,229);"/>
    <path d="M2316,1325.5L2342,1367L2381,1332L2366,1286L2316,1325.5Z" style="fill:rgb(164,90,68);"/>
    <path d="M2203,1311L2252,1343L2257,1285L2203,1311Z" style="fill:rgb(255,170,120);"/>
    <path d="M2246,1297L2215,1312L2243,1332L2246,1297Z" style="fill:rgb(169,122,49);"/>
    <path d="M2297,1377L2313,1325.5L2257,1285L2252,1343L2297,1377Z" style="fill:rgb(166,111,210);"/>
    <path d="M2268,1303L2266,1338L2290,1358L2301,1327L2268,1303Z" style="fill:rgb(174,115,55);"/>
    <path d="M2193,1310L2245,1283L2192,1245L2141,1283L2193,1310Z" style="fill:rgb(133,121,246);"/>
    <path d="M2193,1287L2209,1279L2193,1267L2177,1279L2193,1287Z" style="fill:rgb(243,142,101);"/>
    <path d="M2310,1220L2257,1285L2313,1325.5L2367,1280L2310,1220Z" style="fill:rgb(219,151,178);"/>
    <path d="M2258,1161L2203,1246L2257,1285L2310,1220L2258,1161Z" style="fill:rgb(150,133,211);"/>
    <path d="M2315,1336L2302,1390L2327,1414L2347,1389L2315,1336Z" style="fill:rgb(133,121,246);"/>
    <path d="M2243,1152L2169,1125L2128,1214L2190,1236L2243,1152Z" style="fill:rgb(142,119,236);"/>
    <path d="M2166,1193L2187,1201L2205,1171L2180,1162L2166,1193Z" style="fill:rgb(153,110,142);"/>
    <path d="M2136,1275L2190,1236L2128,1214L2081,1253L2136,1275Z" style="fill:rgb(255,244,95);"/>
    <path d="M2137,1271L2183,1238L2129,1219L2087,1252L2137,1271Z" style="fill:rgb(190,167,67);"/>
    <path d="M2074,1185L2105,1198L2126,1152L2090,1150L2074,1185Z" style="fill:rgb(255,141,94);"/>
    <path d="M2074,1185L2051,1209L2081,1218L2105,1198L2074,1185Z" style="fill:rgb(255,244,95);"/>
    <path d="M2074,1187L2054,1208L2081,1216L2102,1199L2074,1187Z" style="fill:rgb(159,134,71);"/>
    <path d="M2383,1274L2399,1332L2437.5,1289L2383,1274Z" style="fill:rgb(250,208,102);"/>
    <path d="M2387,1278L2400,1326L2430.5,1290L2387,1278Z" style="fill:rgb(255,243,57);"/>
    <path d="M2419,1214L2477,1249L2437.5,1289L2383,1274L2419,1214Z" style="fill:rgb(224,142,182);"/>
    <path d="M2387,1272L2437,1286L2474,1249L2420,1217L2387,1272Z" style="fill:rgb(255,148,84);"/>
    <path d="M2378,1240L2407,1190L2335,1195L2378,1240Z" style="fill:rgb(153,136,210);"/>
    <path d="M2294,1151L2317,1113L2353,1138L2335,1195L2294,1151Z" style="fill:rgb(255,162,134);"/>
    <path d="M2355,1090L2395,1116L2353,1138L2317,1113L2355,1090Z" style="fill:rgb(167,138,211);"/>
    <path d="M2390,1116L2353,1135L2321,1113L2355,1093L2390,1116Z" style="fill:rgb(229,204,72);"/>
    <path d="M2433,1146L2396,1154L2353,1138L2395,1116L2433,1146Z" style="fill:rgb(179,103,132);"/>
    <path d="M2468,1174L2461,1195L2407,1190L2433,1146L2468,1174Z" style="fill:rgb(124,109,208);"/>
    <path d="M2462,1173L2456,1190L2414,1186L2435,1151L2462,1173Z" style="fill:rgb(177,99,67);"/>
    <path d="M2396,1154L2407,1190L2335,1195L2353,1138L2396,1154Z" style="fill:rgb(181,138,210);"/>
    <path d="M2433,1146L2407,1190L2396,1154L2433,1146Z" style="fill:rgb(117,113,224);"/>
    <path d="M2407,1162L2422,1159L2411,1176L2407,1162Z" style="fill:rgb(181,124,138);"/>
    <path d="M2180,1107L2252,1133L2279,1085L2229,1059L2180,1107Z" style="fill:rgb(233,167,144);"/>
    <path d="M2229,1063L2185,1106L2251,1130L2275,1086L2229,1063Z" style="fill:rgb(255,255,64);"/>
    <path d="M2176,1038L2162,986L2220,1005L2229,1059L2176,1038Z" style="fill:rgb(171,97,118);"/>
    <path d="M2171,992L2215,1007L2220,1052L2179,1035L2171,992Z" style="fill:rgb(168,94,65);"/>
    <path d="M2277,1029L2279,1085L2229,1059L2220,1005L2277,1029Z" style="fill:rgb(236,159,76);"/>
    <path d="M2329,1057L2279,1085L2277,1029L2329,1057Z" style="fill:rgb(255,162,119);"/>
    <path d="M2174,1048L2146,1074L2144,1037L2174,1048Z" style="fill:rgb(226,120,212);"/>
    <path d="M2150,1045L2168,1051L2151,1067L2150,1045Z" style="fill:rgb(231,128,77);"/>
    <path d="M2136,1004L2144,1037L2110,1031L2136,1004Z" style="fill:rgb(255,179,127);"/>
    <path d="M2107,1071L2110,1031L2144,1037L2146,1074L2107,1071Z" style="fill:rgb(253,144,144);"/>
    <path d="M2066,1056L2078,1018L2110,1031L2107,1071L2066,1056Z" style="fill:rgb(224,135,164);"/>
    <path d="M2080,1024L2105,1033L2102,1065L2070,1054L2080,1024Z" style="fill:rgb(255,134,100);"/>
    <path d="M2101,993L2136,1004L2110,1031L2078,1018L2101,993Z" style="fill:rgb(135,128,214);"/>
    <path d="M2102,995L2133,1004L2110,1029L2081,1017L2102,995Z" style="fill:rgb(248,233,55);"/>
    <path d="M2014,953L2049,960L2026,984L2014,953Z" style="fill:rgb(255,205,110);"/>
    <path d="M2019,958L2043,962L2028,979L2019,958Z" style="fill:rgb(174,149,42);"/>
    <path d="M1991,983L1976,949L2014,953L2026,984L1991,983Z" style="fill:rgb(250,152,82);"/>
    <path d="M1995,1096L2008,1059L1973,1058L1950,1094L1995,1096Z" style="fill:rgb(214,133,178);"/>
    <path d="M1955,1091L1993,1093L2003,1062L1974,1061L1955,1091Z" style="fill:rgb(190,113,129);"/>
    <path d="M2036,1113L2017,1149L1979,1145L1995,1096L2036,1113Z" style="fill:rgb(197,105,103);"/>
    <path d="M1998,1101L2032,1114L2015,1145L1984,1142L1998,1101" style="fill:rgb(216,114,81);"/>
    <path d="M1957,1173L1921,1171L1941,1138L1979,1145L1957,1173Z" style="fill:rgb(255,250,95);"/>
    <path d="M1950,1094L1995,1096L1979,1145L1941,1138L1950,1094Z" style="fill:rgb(152,109,136);"/>
    <path d="M1918,1110L1950,1094L1941,1138L1918,1110Z" style="fill:rgb(193,170,208);"/>
    <path d="M1924,1112L1944,1101L1939,1130L1924,1112Z" style="fill:rgb(183,145,50);"/>
    <path d="M2031,1196L1988,1189L1964,1220L2003,1227L2031,1196Z" style="fill:rgb(133,121,246);"/>
    <path d="M2021,1199L1991,1194L1973,1216L2001,1221L2021,1199Z" style="fill:rgb(214,116,107);"/>
    <path d="M1913,1057L1950,1001L1928,954L1896,994L1913,1057Z" style="fill:rgb(210,115,122);"/>
    <path d="M1914,1052L1947,1002L1928,959L1899,994L1914,1052Z" style="fill:rgb(240,120,92);"/>
    <path d="M1928,954L1868,949L1842,992L1896,994L1928,954Z" style="fill:rgb(122,110,216);"/>
    <path d="M1865,1086L1913,1057L1896,994L1842,992L1865,1086Z" style="fill:rgb(206,122,213);"/>
    <path d="M1809,1068L1788,1002L1842,992L1865,1086L1809,1068Z" style="fill:rgb(194,171,208);"/>
    <path d="M1812,1063L1797,1009L1839,1002L1856,1076L1812,1063Z" style="fill:rgb(183,140,51);"/>
    <path d="M1828,979L1784,986L1802,942L1850,940L1828,979Z" style="fill:rgb(133,121,246);"/>
    <path d="M1717,975L1759,971L1743,1008L1704,1008L1717,975Z" style="fill:rgb(128,110,213);"/>
    <path d="M1758,1057L1706,1055L1704,1008L1743,1008L1758,1057Z" style="fill:rgb(230,169,138);"/>
    <path d="M1658,1072L1667,1021L1704,1008L1706,1055L1658,1072Z" style="fill:rgb(255,224,100);"/>
    <path d="M1829,1149L1805,1098L1850,1112L1829,1149Z" style="fill:rgb(133,121,246);"/>
    <path d="M1855,1123L1889,1162L1860,1212L1830,1168L1855,1123Z" style="fill:rgb(218,145,198);"/>
    <path d="M1775,1174L1830,1168L1860,1212L1807,1215L1775,1174Z" style="fill:rgb(186,164,208);"/>
    <path d="M1700,1104L1769,1107L1797,1170L1741,1179L1700,1104Z" style="fill:rgb(214,205,210);"/>
    <path d="M1708,1107L1767,1109L1792,1168L1743,1176L1708,1107Z" style="fill:rgb(162,137,39);"/>
    <path d="M1741,1179L1685,1189L1638,1129L1700,1104L1741,1179Z" style="fill:rgb(159,118,222);"/>
    <path d="M1773,1217L1722,1223L1741,1179L1773,1217Z" style="fill:rgb(209,113,117);"/>
    <path d="M1742,1182L1769,1216L1725,1221L1742,1182Z" style="fill:rgb(173,110,56);"/>
    <path d="M1672,1237L1685,1189L1741,1179L1722,1223L1672,1237Z" style="fill:rgb(142,113,221);"/>
    <path d="M1625,1258L1631,1206L1685,1189L1672,1237L1625,1258Z" style="fill:rgb(194,149,209);"/>
    <path d="M1591,1165L1638,1129L1685,1189L1631,1206L1591,1165Z" style="fill:rgb(255,140,125);"/>
    <path d="M1598,1165L1639,1133L1678,1187L1632,1202L1598,1165Z" style="fill:rgb(182,134,53);"/>
    <path d="M1620,1089L1633,1021L1579,1033L1620,1089Z" style="fill:rgb(193,104,85);"/>
    <path d="M1686,1002L1648,965L1591,979L1633,1021L1686,1002Z" style="fill:rgb(255,183,129);"/>
    <path d="M1705,954L1648,965L1686,1002L1705,954Z" style="fill:rgb(127,110,213);"/>
    <path d="M1537,998L1579,1033L1633,1021L1591,979L1537,998Z" style="fill:rgb(255,226,93);"/>
    <path d="M1559,1002L1582,1020L1610,1013L1588,991L1559,1002Z" style="fill:rgb(185,168,41);"/>
    <path d="M1566,1040L1521,1003L1463,1028L1514,1065L1566,1040Z" style="fill:rgb(255,184,129);"/>
    <path d="M1611,1105L1558,1148L1514,1065L1566,1040L1611,1105Z" style="fill:rgb(221,147,193);"/>
    <path d="M1603,1103L1557,1138L1525,1070L1567,1050L1603,1103Z" style="fill:rgb(255,128,88);"/>
    <path d="M1509,1070L1551,1152L1482,1151L1455,1090L1509,1070Z" style="fill:rgb(250,144,81);"/>
    <path d="M1458,1032L1509,1070L1455,1090L1458,1032Z" style="fill:rgb(229,166,143);"/>
    <path d="M1462,1037L1504.53,1066.67L1459,1085L1462,1037Z" style="fill:rgb(231,158,73);"/>
    <path d="M1607,1222L1549,1248L1548,1306L1600,1280L1607,1222Z" style="fill:rgb(203,136,205);"/>
    <path d="M1598,1215L1549,1169L1478,1168L1538,1243L1598,1215Z" style="fill:rgb(146,111,211);"/>
    <path d="M1418,1215L1484,1277L1538,1243L1478,1168L1418,1215Z" style="fill:rgb(157,120,220);"/>
    <path d="M1405,1136L1453,1104L1478,1168L1418,1215L1405,1136Z" style="fill:rgb(142,126,212);"/>
    <path d="M1432,1315L1365,1274L1418,1215L1484,1277L1432,1315Z" style="fill:rgb(194,144,209);"/>
    <path d="M1428,1287L1400,1268L1422,1244L1450,1270L1428,1287Z" style="fill:rgb(191,143,103);"/>
    <path d="M1487,1332L1484,1277L1538,1243L1536,1303L1487,1332Z" style="fill:rgb(148,112,216);"/>
    <path d="M1505,1299L1505,1285L1519,1277L1518,1291L1505,1299Z" style="fill:rgb(204,130,65);"/>
    <path d="M1397,1118L1439,1089L1442,1038L1394,1064L1397,1118Z" style="fill:rgb(199,147,212);"/>
    <path d="M1399,1115L1437,1088L1439,1041L1397,1064L1399,1115Z" style="fill:rgb(171,147,41);"/>
    <path d="M1352,1144L1348,1093L1394,1064L1397,1118L1352,1144Z" style="fill:rgb(235,161,93);"/>
    <path d="M1288,1146L1334,1115L1338,1167L1297,1198L1288,1146Z" style="fill:rgb(208,110,80);"/>
    <path d="M1387,1141L1397,1211L1338,1167L1387,1141Z" style="fill:rgb(175,100,126);"/>
    <path d="M1383,1148L1389,1203L1346,1169L1383,1148Z" style="fill:rgb(201,107,83);"/>
    <path d="M1347,1268L1297,1198L1338,1167L1397,1211L1347,1268Z" style="fill:rgb(164,119,219);"/>
    <path d="M1302,1321L1259,1240L1297,1198L1347,1268L1302,1321Z" style="fill:rgb(217,211,207);"/>
    <path d="M1301,1308L1268,1244L1299,1212L1338,1266L1301,1308Z" style="fill:rgb(192,171,65);"/>
    <path d="M1476,1295L1478,1349L1433,1384L1424,1331L1476,1295Z" style="fill:rgb(120,108,207);"/>
    <path d="M1475,1298L1474,1349L1434,1381L1426,1332L1475,1298Z" style="fill:rgb(138,86,46);"/>
    <path d="M1392,1429L1377,1371L1424,1331L1433,1384L1392,1429Z" style="fill:rgb(177,127,207);"/>
    <path d="M1308,1345L1355,1288L1424,1331L1377,1371L1308,1345Z" style="fill:rgb(255,172,139);"/>
    <path d="M1329,1411L1308,1345L1377,1371L1329,1411Z" style="fill:rgb(118,110,211);"/>
    <path d="M1315,1437L1343,1490L1311,1538L1283,1489L1315,1437Z" style="fill:rgb(199,107,106);"/>
    <path d="M1283,1592L1246,1539L1311,1538L1283,1592Z" style="fill:rgb(198,193,208);"/>
    <path d="M1217,1479L1283,1489L1311,1538L1246,1539L1217,1479Z" style="fill:rgb(183,119,216);"/>
    <path d="M1235,1490L1276,1496L1292,1527L1253,1528L1235,1490Z" style="fill:rgb(222,138,71);"/>
    <path d="M1306,1424L1228,1408L1206,1472L1273,1479L1306,1424Z" style="fill:rgb(246,208,112);"/>
    <path d="M1230,1410L1208,1471L1272,1478L1304,1425L1230,1410Z" style="fill:rgb(163,122,112);"/>
    <path d="M1223,1346L1162,1351L1132,1402L1228,1408L1223,1346Z" style="fill:rgb(255,230,103);"/>
    <path d="M1133,1467L1206,1472L1228,1408L1132,1402L1133,1467Z" style="fill:rgb(237,166,146);"/>
    <path d="M1139,1463L1203,1466L1222,1412L1139,1406L1139,1463Z" style="fill:rgb(195,150,97);"/>
    <path d="M1156,1529L1235,1529L1206,1472L1133,1467L1156,1529Z" style="fill:rgb(187,110,142);"/>
    <path d="M1175,1507L1199,1508L1191,1490L1169,1488L1175,1507Z" style="fill:rgb(163,111,172);"/>
    <path d="M1090,1442L1071,1401L1132,1402L1133,1467L1090,1442Z" style="fill:rgb(146,81,102);"/>
    <path d="M1222,1331L1194,1291C1194,1291 1163.45,1334.36 1165,1335C1166.55,1335.64 1222,1331 1222,1331Z" style="fill:rgb(203,136,205);"/>
    <path d="M1161,1311L1131,1307L1110,1336L1142,1339L1161,1311Z" style="fill:rgb(254,211,105);"/>
    <path d="M1126,1369L1090,1367L1110,1336L1142,1339L1126,1369Z" style="fill:rgb(141,120,235);"/>
    <path d="M1055,1402L1072,1440L1031,1448L1055,1402Z" style="fill:rgb(133,122,246);"/>
    <path d="M1053,1413L1062,1432L1041,1437L1053,1413Z" style="fill:rgb(229,137,108);"/>
    <path d="M1165,1262C1165.67,1261.19 1193,1230 1193,1230L1233,1241L1202,1266C1202,1266 1164.33,1262.81 1165,1262Z" style="fill:rgb(233,210,56);"/>
    <path d="M1222,1201L1260,1212L1233,1241L1193,1230L1222,1201Z" style="fill:rgb(141,120,235);"/>
    <path d="M1277,1184L1243,1174L1271,1150L1277,1184Z" style="fill:rgb(218,147,104);"/>
    <path d="M1080,1450L1124,1475L1147,1537L1066,1506L1080,1450Z" style="fill:rgb(133,121,246);"/>
    <path d="M1088,1461L1120,1479L1135,1526L1076,1503L1088,1461Z" style="fill:rgb(235,119,88);"/>
    <path d="M1072,1520L1153,1552L1115,1639L1051,1574L1072,1520Z" style="fill:rgb(255,180,132);"/>
    <path d="M1082,1539L1137,1560L1110,1619L1068,1575L1082,1539Z" style="fill:rgb(231,175,87);"/>
    <path d="M1232,1552L1211,1612L1153,1552L1232,1552Z" style="fill:rgb(147,122,231);"/>
    <path d="M1228,1555L1209,1608L1158,1555L1228,1555Z" style="fill:rgb(210,165,91);"/>
    <path d="M1249,1660L1231,1712L1184,1670L1211,1612L1249,1660Z" style="fill:rgb(192,109,131);"/>
    <path d="M1246,1660L1230,1708L1186,1670L1211,1616L1246,1660Z" style="fill:rgb(140,78,87);"/>
    <path d="M1184,1670L1115,1639L1153,1552L1211,1612L1184,1670Z" style="fill:rgb(142,120,229);"/>
    <path d="M1025,1463L1071,1455L1055,1511L1001,1517L1025,1463Z" style="fill:rgb(149,137,210);"/>
    <path d="M1029,1472L1057,1466L1048,1501L1015,1505L1029,1472Z" style="fill:rgb(255,247,60);"/>
    <path d="M1036,1561L981,1573L1001,1517L1055,1511L1036,1561Z" style="fill:rgb(238,160,92);"/>
    <path d="M979,1590L1037,1578L1100,1643L1024,1635L979,1590Z" style="fill:rgb(253,191,123);"/>
    <path d="M1007,1692L1024,1635L1100,1643L1073,1715L1007,1692Z" style="fill:rgb(229,148,178);"/>
    <path d="M1021,1687L1033,1647L1085,1652L1067,1701L1021,1687Z" style="fill:rgb(177,130,116);"/>
    <path d="M1001,1690L957,1651L973,1592L1018,1636L1001,1690Z" style="fill:rgb(133,121,247);"/>
    <path d="M955,1661L998,1701L943,1722L955,1661Z" style="fill:rgb(255,234,68);"/>
    <path d="M995,1762L936,1786L943,1722L998,1701L995,1762Z" style="fill:rgb(224,147,187);"/>
    <path d="M1015,1704L1081,1727L1079,1806L1013,1765L1015,1704Z" style="fill:rgb(255,219,101);"/>
    <path d="M1018,1708L1078,1728L1077,1802L1015,1764L1018,1708Z" style="fill:rgb(197,145,105);"/>
    <path d="M1170,1755L1156,1820L1079,1806L1081,1727L1170,1755Z" style="fill:rgb(141,119,224);"/>
    <path d="M1218,1795L1214,1852L1156,1820L1170,1755L1218,1795Z" style="fill:rgb(187,104,122);"/>
    <path d="M1081,1727L1110,1659L1179,1690L1170,1755L1081,1727Z" style="fill:rgb(158,116,221);"/>
    <path d="M1110,1661L1177,1691L1168,1753L1084,1726L1110,1661Z" style="fill:rgb(190,126,135);"/>
    <path d="M1179,1753L1187,1688L1236,1731L1227,1791L1179,1753Z" style="fill:rgb(203,136,205);"/>
    <path d="M941,1799L992,1833L1066,1814L1000,1773L941,1799Z" style="fill:rgb(159,128,213);"/>
    <path d="M993,1894L1095,1868L1066,1814L992,1833L993,1894Z" style="fill:rgb(225,147,185);"/>
    <path d="M1081,1817L1158,1833L1111,1872L1081,1817Z" style="fill:rgb(255,159,150);"/>
    <path d="M1216,1868L1166,1901L1111,1872L1158,1833L1216,1868Z" style="fill:rgb(140,120,237);"/>
    <path d="M1204,1867L1164,1893L1123,1870L1160,1841L1204,1867Z" style="fill:rgb(255,145,87);"/>
    <path d="M995,1912L1100,1885L1080,1949L1005,1972L995,1912Z" style="fill:rgb(255,221,107);"/>
    <path d="M1008,1915L1087,1896L1072,1944L1015,1961L1008,1915Z" style="fill:rgb(164,129,95);"/>
    <path d="M945,1950L1005,1972L1007,2031L951,2009L945,1950Z" style="fill:rgb(119,102,195);"/>
    <path d="M947,1952L1003,1973L1006,2028L953,2008L947,1952Z" style="fill:rgb(173,101,118);"/>
    <path d="M1076,2030L1007,2031L1005,1972L1080,1949L1076,2030Z" style="fill:rgb(172,128,111);"/>
    <path d="M1104,2099L1026,2087L1007,2031L1076,2030L1104,2099Z" style="fill:rgb(206,121,146);"/>
    <path d="M1077,2081L1041,2075L1033,2049L1066,2047L1077,2081Z" style="fill:rgb(255,131,100);"/>
    <path d="M1162,1982L1076,2030L1080,1949L1155,1915L1162,1982Z" style="fill:rgb(181,159,209);"/>
    <path d="M1132,1950L1136,1976L1103,1994L1104,1962L1132,1950Z" style="fill:rgb(184,164,42);"/>
    <path d="M994,1961L934,1935L932,1870L985,1901L994,1961Z" style="fill:rgb(172,156,209);"/>
    <path d="M934,1804L986,1840L985,1901L932,1870L934,1804Z" style="fill:rgb(226,148,182);"/>
    <path d="M1169,1918L1222,1886L1225,1949L1176,1984L1169,1918Z" style="fill:rgb(142,111,214);"/>
    <path d="M1180,1924L1213,1905L1213,1944L1183,1966L1180,1924Z" style="fill:rgb(230,134,75);"/>
    <path d="M1235,2003L1176,1984L1225,1949L1235,2003Z" style="fill:rgb(166,116,218);"/>
    <path d="M1222,1991L1190,1980L1215,1961L1222,1991Z" style="fill:rgb(157,111,158);"/>
    <path d="M1251,2063L1191,2049L1176,1984L1235,2003L1251,2063Z" style="fill:rgb(255,255,86);"/>
    <path d="M1120,2102L1090,2030L1176,1984L1191,2049L1120,2102Z" style="fill:rgb(130,118,220);"/>
    <path d="M1198,2070L1218,2135L1278,2139L1257,2085L1198,2070Z" style="fill:rgb(244,162,81);"/>
    <path d="M1215,2215L1268,2229L1278,2139L1218,2135L1215,2215Z" style="fill:rgb(255,172,134);"/>
    <path d="M1227,2203L1261,2212L1265,2155L1228,2152L1227,2203Z" style="fill:rgb(212,181,55);"/>
    <path d="M1305,2191L1278,2139L1268,2229L1305,2191Z" style="fill:rgb(116,96,66);"/>
    <path d="M1227,2270L1171,2253L1215,2215L1268,2229L1227,2270Z" style="fill:rgb(201,156,125);"/>
    <path d="M1225,2260L1189,2249L1216,2225L1250,2234L1225,2260Z" style="fill:rgb(219,195,69);"/>
    <path d="M1171,2253L1167,2190L1218,2135L1215,2215L1171,2253Z" style="fill:rgb(255,148,119);"/>
    <path d="M1171,2191L1214,2145L1212,2211L1174,2245L1171,2191Z" style="fill:rgb(255,135,101);"/>
    <path d="M1001,2046L945,2024L958,2088L1019,2103L1001,2046Z" style="fill:rgb(165,147,210);"/>
    <path d="M975,2148L1031,2161L1019,2103L958,2088L975,2148Z" style="fill:rgb(153,131,212);"/>
    <path d="M996,2203L1031,2161L975,2148L996,2203Z" style="fill:rgb(116,108,210);"/>
    <path d="M998,2191L1020,2167L987,2159L998,2191Z" style="fill:rgb(134,73,62);"/>
    <path d="M1032,2114L1044,2172L1110,2129L1032,2114Z" style="fill:rgb(255,175,137);"/>
    <path d="M1070,2224L1154,2192L1110,2129L1044,2172L1070,2224Z" style="fill:rgb(255,183,130);"/>
    <path d="M1084,2202L1127,2184L1105,2151L1071,2173L1084,2202Z" style="fill:rgb(231,178,70);"/>
    <path d="M1034,2275L1063,2329L1115,2296L1070,2224L1034,2275Z" style="fill:rgb(183,146,210);"/>
    <path d="M1009,2217L1034,2275L1070,2224L1044,2172L1009,2217Z" style="fill:rgb(184,149,209);"/>
    <path d="M1115,2296L1157,2259L1154,2192L1070,2224L1115,2296Z" style="fill:rgb(132,118,223);"/>
    <path d="M1172,2314L1213,2275L1157,2259L1115,2296L1172,2314Z" style="fill:rgb(132,112,216);"/>
    <path d="M1182,2077L1110,2129L1154,2192L1206,2133L1182,2077Z" style="fill:rgb(241,127,110);"/>
    <path d="M1075,2348L1101,2359L1116,2326L1075,2348Z" style="fill:rgb(255,193,122);"/>
    <path d="M1101,2388L1105,2392L1128,2369L1101,2359L1101,2388Z" style="fill:rgb(169,111,209);"/>
    <path d="M1159,2338L1116,2326L1101,2359L1128,2369L1159,2338Z" style="fill:rgb(229,162,150);"/>
    <path d="M1128,2389L1136,2415L1111,2429L1108,2409L1128,2389Z" style="fill:rgb(150,107,136);"/>
    <path d="M1066,2356L1087,2365L1086,2387L1066,2356Z" style="fill:rgb(141,122,239);"/>
    <path d="M1085,2366L1085,2384L1069,2359L1085,2366Z" style="fill:rgb(185,109,122);"/>
    <path d="M1197,2372L1222,2350L1190,2338L1197,2372Z" style="fill:rgb(133,121,246);"/>
    <path d="M1218,2318L1232,2323L1246,2313L1231,2306L1218,2318Z" style="fill:rgb(213,141,199);"/>
    <path d="M1221,2317L1232,2321L1243,2313L1231,2308L1221,2317Z" style="fill:rgb(234,140,105);"/>
    <path d="M1275,2240L1234,2280L1287,2304L1275,2240Z" style="fill:rgb(206,138,209);"/>
    <path d="M1348,2246L1275,2240L1287,2304L1362,2301L1348,2246Z" style="fill:rgb(139,121,242);"/>
    <path d="M1350,2240L1314,2198L1278,2233L1350,2240Z" style="fill:rgb(133,121,246);"/>
    <path d="M2442,1211L2482,1236L2490,1216L2442,1211Z" style="fill:rgb(224,154,169);"/>
    <path d="M2508,1209L2490,1216L2482,1236L2508,1209Z" style="fill:rgb(160,114,46);"/>
    <path d="M2484,1218L2450,1214L2480,1233L2484,1218Z" style="fill:rgb(237,195,68);"/>
    <path d="M2505,1205L2523,1199L2511,1187L2505,1205Z" style="fill:rgb(255,134,87);"/>
    <path d="M1371,1381L1388,1436L1351,1481L1325,1423L1371,1381Z" style="fill:rgb(133,121,246);"/>
    <path d="M1258,1657L1221,1611L1240,1550L1279,1603L1258,1657Z" style="fill:rgb(135,123,250);"/>
    <path d="M1256,1649L1225,1610L1243,1560L1274,1603L1256,1649Z" style="fill:rgb(241,144,101);"/>
    <path d="M1236,1396L1314,1413L1292,1341L1230,1335L1236,1396Z" style="fill:rgb(142,119,233);"/>
    <path d="M1237,1341L1242,1394L1307,1407L1289,1346L1237,1341Z" style="fill:rgb(237,186,73);"/>
    <path d="M1201,1291L1247,1256L1292,1341L1230,1335L1201,1291Z" style="fill:rgb(147,124,203);"/>
    <path d="M1204,1291L1245.37,1257.24L1290,1340L1232.08,1335.2L1204,1291Z" style="fill:rgb(243,222,56);"/>
    <path d="M1107,1878L1160,1906L1089,1940L1107,1878Z" style="fill:rgb(203,136,205);"/>
    <path d="M1115,1891L1145,1907L1104,1926L1115,1891Z" style="fill:rgb(198,132,124);"/>
    <path d="M1205,2527L1150,2486L1190,2480L1237,2494L1205,2527Z" style="fill:rgb(224,140,255);"/>
    <path d="M1245,2423L1283,2383L1351,2401L1308,2440L1245,2423Z" style="fill:rgb(194,139,255);"/>
    <path d="M1337,2351L1392,2360L1351,2401L1283,2383L1337,2351Z" style="fill:rgb(100,169,242);"/>
    <path d="M1337,2359L1367,2364L1340,2389L1304,2380L1337,2359Z" style="fill:rgb(142,110,255);"/>
    <path d="M1420,2410L1351,2401L1392,2360L1420,2410Z" style="fill:rgb(88,131,200);"/>
    <path d="M1401,2396L1369,2392L1388,2373L1401,2396Z" style="fill:rgb(224,140,255);"/>
    <path d="M1421,2468L1364,2474L1351,2401L1420,2410L1421,2468Z" style="fill:rgb(127,133,255);"/>
    <path d="M1480,2394L1478,2448L1421,2468L1420,2410L1480,2394Z" style="fill:rgb(63,95,157);"/>
    <path d="M1244,2530L1252,2506L1220,2537L1244,2530Z" style="fill:rgb(195,139,255);"/>
    <path d="M1236,2552L1220,2537L1244,2530L1236,2552Z" style="fill:rgb(134,121,255);"/>
    <path d="M1297,2538L1275,2586L1236,2552L1244,2530L1297,2538Z" style="fill:rgb(222,143,255);"/>
    <path d="M1252,2506L1297,2538L1244,2530L1252,2506Z" style="fill:rgb(159,139,255);"/>
    <path d="M1344,2417L1356,2486L1305,2456L1344,2417Z" style="fill:rgb(119,104,217);"/>
    <path d="M1318,2534L1263,2496L1305,2456L1356,2486L1318,2534Z" style="fill:rgb(108,123,220);"/>
    <path d="M1355,2569L1338,2626L1290,2592L1318,2534L1355,2569Z" style="fill:rgb(103,114,223);"/>
    <path d="M1393,2535L1355,2569L1318,2534L1356,2486L1393,2535Z" style="fill:rgb(120,214,255);"/>
    <path d="M1448,2569L1392,2601L1355,2569L1393,2535L1448,2569Z" style="fill:rgb(109,190,255);"/>
    <path d="M1415,2484L1461,2516L1448,2569L1393,2535L1415,2484Z" style="fill:rgb(140,144,255);"/>
    <path d="M1356,2486L1415,2484L1393,2535L1356,2486Z" style="fill:rgb(164,138,255);"/>
    <path d="M1453,2585L1488,2618L1445,2643L1402,2614L1453,2585Z" style="fill:rgb(199,139,255);"/>
    <path d="M1399,2670L1352,2640L1402,2614L1445,2643L1399,2670Z" style="fill:rgb(108,186,255);"/>
    <path d="M1345,2632L1356,2584L1387,2610L1345,2632Z" style="fill:rgb(223,141,255);"/>
    <path d="M1426,2476L1481,2457L1474,2510L1426,2476Z" style="fill:rgb(223,141,255);"/>
    <path d="M1488,2449L1490,2391L1539,2423L1488,2449Z" style="fill:rgb(223,141,255);"/>
    <path d="M1545,2430L1597,2458L1545,2495L1492,2457L1545,2430Z" style="fill:rgb(103,141,235);"/>
    <path d="M1652,2480L1607,2514L1545,2495L1597,2458L1652,2480Z" style="fill:rgb(75,103,182);"/>
    <path d="M1526,2547L1484,2511L1492,2457L1545,2495L1526,2547Z" style="fill:rgb(157,139,255);"/>
    <path d="M1479,2530L1520,2564L1506,2614L1468,2579L1479,2530Z" style="fill:rgb(75,96,165);"/>
    <path d="M1576,2585L1554,2640L1506,2614L1520,2564L1576,2585Z" style="fill:rgb(169,117,255);"/>
    <path d="M1511,2670L1506,2614L1554,2640L1511,2670Z" style="fill:rgb(50,93,129);"/>
    <path d="M1565,2691L1518,2724L1511,2670L1554,2640L1565,2691Z" style="fill:rgb(69,111,194);"/>
    <path d="M1457,2700L1416,2679L1454,2658L1457,2700Z" style="fill:rgb(105,179,255);"/>
    <path d="M1429,2679L1443,2671L1443,2686L1429,2679Z" style="fill:rgb(105,140,247);"/>
    <path d="M1490,2636L1494,2678L1457,2700L1454,2658L1490,2636Z" style="fill:rgb(158,114,255);"/>
    <path d="M1500,2719L1457,2700L1494,2678L1500,2719Z" style="fill:rgb(67,97,163);"/>
    <path d="M1491,2709L1468,2699L1486,2689L1491,2709Z" style="fill:rgb(41,52,100);"/>
    <path d="M1565,2573L1578,2543L1615,2556L1599,2587L1565,2573Z" style="fill:rgb(85,110,202);"/>
    <path d="M1575,2569L1582,2553L1606,2559L1596,2578L1575,2569Z" style="fill:rgb(56,64,132);"/>
    <path d="M1644,2532L1652,2571L1630,2593L1615,2556L1644,2532Z" style="fill:rgb(112,197,255);"/>
    <path d="M1599,2587L1615,2556L1630,2593L1599,2587Z" style="fill:rgb(176,123,255);"/>
    <path d="M1586,2620L1599,2587L1630,2593L1618,2621L1586,2620Z" style="fill:rgb(94,121,201);"/>
    <path d="M1627,2659L1592,2652L1586,2620L1618,2621L1627,2659Z" style="fill:rgb(105,145,255);"/>
    <path d="M1630,2593L1673,2605L1653,2642L1618,2621L1630,2593Z" style="fill:rgb(104,185,255);"/>
    <path d="M1642,2611L1652,2615L1647,2624L1639,2618L1642,2611Z" style="fill:rgb(110,160,255);"/>
    <path d="M1530,2739L1571,2706L1623,2717L1583,2758L1530,2739Z" style="fill:rgb(223,141,255);"/>
    <path d="M1550,2735L1573,2717L1603,2724L1580,2746L1550,2735Z" style="fill:rgb(176,105,237);"/>
    <path d="M1642,2707L1631,2659L1673,2683L1687,2720L1642,2707Z" style="fill:rgb(223,141,255);"/>
    <path d="M1651,2697L1646,2676L1665,2686L1671,2703L1651,2697Z" style="fill:rgb(191,97,255);"/>
    <path d="M1680,2503L1727,2517L1691,2555L1680,2503Z" style="fill:rgb(105,162,255);"/>
    <path d="M1689,2514L1718,2522L1696,2544L1689,2514Z" style="fill:rgb(141,115,255);"/>
    <path d="M1777,2524L1745,2565L1727,2517L1777,2524Z" style="fill:rgb(121,216,255);"/>
    <path d="M1719,2598L1691,2555L1727,2517L1745,2565L1719,2598Z" style="fill:rgb(179,127,255);"/>
    <path d="M1719,2583L1701,2557L1724,2532L1735,2563L1719,2583Z" style="fill:rgb(201,103,255);"/>
    <path d="M1661,2585L1691,2555L1719,2598L1661,2585Z" style="fill:rgb(117,178,255);"/>
    <path d="M1733,2640L1719,2598L1745,2565L1763,2607L1733,2640Z" style="fill:rgb(99,99,190);"/>
    <path d="M1743,2583L1729,2600L1737,2621L1752,2605L1743,2583Z" style="fill:rgb(104,77,185);"/>
    <path d="M1721,2657L1697,2661L1713,2633L1721,2657Z" style="fill:rgb(227,143,255);"/>
    <path d="M1716,2653L1703,2655L1712,2640L1716,2653Z" style="fill:rgb(213,108,255);"/>
    <path d="M1711,2721L1697,2681L1739,2674L1761,2724L1711,2721Z" style="fill:rgb(213,142,255);"/>
    <path d="M1771,2637L1794,2680L1761,2724L1739,2674L1771,2637Z" style="fill:rgb(105,181,255);"/>
    <path d="M1774,2734L1808,2687L1828,2742L1774,2734Z" style="fill:rgb(224,141,255);"/>
    <path d="M1784,2726L1805,2698L1818,2731L1784,2726Z" style="fill:rgb(164,98,218);"/>
    <path d="M1833,2706L1818,2660L1859,2629L1886,2666L1833,2706Z" style="fill:rgb(97,124,236);"/>
    <path d="M1796,2621L1829,2590L1859,2629L1818,2660L1796,2621Z" style="fill:rgb(117,135,249);"/>
    <path d="M1813,2623L1828,2609L1842,2626L1823,2640L1813,2623Z" style="fill:rgb(136,104,253);"/>
    <path d="M1809,2541L1829,2590L1796,2621L1778,2579L1809,2541Z" style="fill:rgb(108,151,255);"/>
    <path d="M1857,2548L1885,2585L1859,2629L1829,2590L1857,2548Z" style="fill:rgb(101,135,255);"/>
    <path d="M1885,2639L1913,2590L1954,2652L1915,2677L1885,2639Z" style="fill:rgb(117,107,214);"/>
    <path d="M1900,2636L1915,2609L1940,2644L1917,2658L1900,2636Z" style="fill:rgb(157,89,255);"/>
    <path d="M1884,2545L1938,2543L1970,2581L1913,2590L1884,2545Z" style="fill:rgb(74,122,221);"/>
    <path d="M1994,2624L1954,2652L1913,2590L1970,2581L1994,2624Z" style="fill:rgb(109,197,255);"/>
    <path d="M1962,2718L1910,2725L1915,2677L1954,2652L1962,2718Z" style="fill:rgb(142,138,255);"/>
    <path d="M1940,2771L1884,2773L1910,2725L1962,2718L1940,2771Z" style="fill:rgb(105,185,250);"/>
    <path d="M1829,2562L1809,2517L1857,2519L1829,2562Z" style="fill:rgb(224,140,255);"/>
    <path d="M1847,2740L1899,2696L1895,2741L1847,2740Z" style="fill:rgb(224,140,255);"/>
    <path d="M1870,2730L1891,2713L1889,2731L1870,2730Z" style="fill:rgb(151,92,198);"/>
    <path d="M1955,2795L1975,2746L2025,2744L2008,2789L1955,2795Z" style="fill:rgb(223,141,255);"/>
    <path d="M1989,2711L1982,2657L2036,2666L2030,2709L1989,2711Z" style="fill:rgb(191,138,255);"/>
    <path d="M2014,2635L2051,2629L2036,2666L1982,2657L2014,2635Z" style="fill:rgb(98,160,237);"/>
    <path d="M1978,2542L1958,2518L1988,2513L1978,2542Z" style="fill:rgb(224,141,255);"/>
    <path d="M1615,2763L1656,2726L1707,2740L1670,2778L1615,2763Z" style="fill:rgb(64,100,174);"/>
    <path d="M1728,2789L1670,2778L1707,2740L1762,2743L1728,2789Z" style="fill:rgb(129,150,255);"/>
    <path d="M1786,2795L1728,2789L1762,2743L1816,2754L1786,2795Z" style="fill:rgb(158,127,255);"/>
    <path d="M1845,2797L1786,2795L1816,2754L1872,2754L1845,2797Z" style="fill:rgb(49,90,134);"/>
    <path d="M1839,2786L1806,2785L1822,2764L1853,2764L1839,2786Z" style="fill:rgb(28,46,77);"/>
    <path d="M2089,2706L2048,2723L2055,2674L2089,2706Z" style="fill:rgb(223,141,255);"/>
    <path d="M2080,2705L2058,2711L2061,2687L2080,2705Z" style="fill:rgb(137,83,175);"/>
    <path d="M2025,2503L2076,2491L2063,2540L2005,2554L2025,2503Z" style="fill:rgb(87,129,242);"/>
    <path d="M2127,2471L2118,2522L2063,2540L2076,2491L2127,2471Z" style="fill:rgb(89,142,255);"/>
    <path d="M2075,2526L2083,2497L2115,2484L2110,2515L2075,2526Z" style="fill:rgb(67,93,185);"/>
    <path d="M2129,2570L2078,2585L2063,2540L2118,2522L2129,2570Z" style="fill:rgb(153,127,255);"/>
    <path d="M2173,2444L2170,2497L2118,2522L2127,2471L2173,2444Z" style="fill:rgb(76,149,255);"/>
    <path d="M2162,2460L2161,2490L2130,2505L2134,2476L2162,2460Z" style="fill:rgb(61,109,205);"/>
    <path d="M2179,2576L2129,2570L2118,2522L2170,2497L2179,2576Z" style="fill:rgb(104,174,255);"/>
    <path d="M2029,2594L2005,2554L2063,2540L2078,2585L2029,2594Z" style="fill:rgb(134,140,255);"/>
    <path d="M2034,2776L2053,2726L2090,2764L2034,2776Z" style="fill:rgb(124,230,255);"/>
    <path d="M2046,2765L2057,2738L2078,2758L2046,2765Z" style="fill:rgb(85,148,204);"/>
    <path d="M2104,2704L2144,2749L2090,2764L2053,2726L2104,2704Z" style="fill:rgb(109,177,255);"/>
    <path d="M2157,2697L2198,2731L2144,2749L2104,2704L2157,2697Z" style="fill:rgb(104,166,255);"/>
    <path d="M2120,2652L2165,2651L2157,2697L2104,2704L2120,2652Z" style="fill:rgb(134,148,255);"/>
    <path d="M2063,2667L2081,2623L2120,2652L2104,2704L2063,2667Z" style="fill:rgb(127,151,255);"/>
    <path d="M2134,2603L2120,2652L2081,2623L2134,2603Z" style="fill:rgb(91,169,255);"/>
    <path d="M2124,2613L2115,2642L2092,2624L2124,2613Z" style="fill:rgb(131,230,255);"/>
    <path d="M2184,2609L2165,2651L2120,2652L2134,2603L2184,2609Z" style="fill:rgb(103,114,205);"/>
    <path d="M2143,2614L2169,2618L2160,2640L2136,2640L2143,2614Z" style="fill:rgb(174,90,255);"/>
    <path d="M2222,2726L2176,2693L2228,2666L2278,2703L2222,2726Z" style="fill:rgb(98,133,255);"/>
    <path d="M2185,2640L2207,2593L2228,2666L2176,2693L2185,2640Z" style="fill:rgb(117,211,255);"/>
    <path d="M2271,2584L2282,2643L2228,2666L2207,2593L2271,2584Z" style="fill:rgb(104,161,255);"/>
    <path d="M2196,2509L2240,2539L2271,2584L2207,2593L2196,2509Z" style="fill:rgb(98,185,255);"/>
    <path d="M2327,2551L2330,2611L2282,2643L2271,2584L2327,2551Z" style="fill:rgb(69,108,189);"/>
    <path d="M2333,2674L2282,2643L2228,2666L2278,2703L2333,2674Z" style="fill:rgb(124,217,255);"/>
    <path d="M2246,2524L2201,2488L2256,2457L2293,2497L2246,2524Z" style="fill:rgb(121,117,229);"/>
    <path d="M2246,2524L2277,2569L2332,2531L2293,2497L2246,2524Z" style="fill:rgb(147,141,255);"/>
    <path d="M2332,2531L2381,2518L2340,2474L2293,2497L2332,2531Z" style="fill:rgb(139,134,255);"/>
    <path d="M2204,2432L2254,2403L2256,2457L2201,2488L2204,2432Z" style="fill:rgb(77,104,186);"/>
    <path d="M2332,2531L2335,2596L2385,2569L2381,2518L2332,2531Z" style="fill:rgb(111,118,236);"/>
    <path d="M2256,2457L2308,2420L2340,2474L2293,2497L2256,2457Z" style="fill:rgb(110,129,231);"/>
    <path d="M2297,2647L2340,2616L2391,2643L2344,2674L2297,2647Z" style="fill:rgb(223,141,255);"/>
    <path d="M2368,2589L2405,2608L2440,2582L2402,2569L2368,2589Z" style="fill:rgb(69,123,220);"/>
    <path d="M2402,2569L2400,2532L2434,2543L2440,2582L2402,2569Z" style="fill:rgb(113,180,255);"/>
    <path d="M2400,2532L2420,2502L2462,2514L2434,2543L2400,2532Z" style="fill:rgb(110,125,226);"/>
    <path d="M2371,2500L2400,2532L2420,2502L2371,2500Z" style="fill:rgb(99,156,241);"/>
    <path d="M2262,2387L2265,2445L2317,2406L2307,2352L2262,2387Z" style="fill:rgb(108,187,255);"/>
    <path d="M2307,2352L2363,2367L2317,2406L2307,2352Z" style="fill:rgb(117,167,255);"/>
    <path d="M2349,2310L2408,2323L2363,2367L2307,2352L2349,2310Z" style="fill:rgb(116,129,255);"/>
    <path d="M2408,2323L2455,2356L2412,2389L2363,2367L2408,2323Z" style="fill:rgb(129,153,255);"/>
    <path d="M2317,2406L2349,2460L2412,2389L2363,2367L2317,2406Z" style="fill:rgb(125,128,248);"/>
    <path d="M2412,2389L2459,2417L2419,2463L2349,2460L2412,2389Z" style="fill:rgb(105,141,238);"/>
    <path d="M2455,2356L2504,2391L2459,2417L2412,2389L2455,2356Z" style="fill:rgb(104,173,255);"/>
    <path d="M2334,2344L2353,2326L2381,2332L2361,2351L2334,2344Z" style="fill:rgb(77,76,167);"/>
    <path d="M2370,2447L2409,2404L2437,2420L2413,2449L2370,2447Z" style="fill:rgb(145,142,255);"/>
    <path d="M2517,2383L2535,2335L2468,2346L2517,2383Z" style="fill:rgb(97,108,193);"/>
    <path d="M2419,2310L2461,2265L2468,2346L2419,2310Z" style="fill:rgb(118,115,235);"/>
    <path d="M2461,2265L2514,2267L2535,2335L2468,2346L2461,2265Z" style="fill:rgb(125,141,255);"/>
    <path d="M2355,2291L2391,2249L2412,2300L2355,2291Z" style="fill:rgb(113,108,219);"/>
    <path d="M2391,2249L2423,2198L2456,2253L2412,2300L2391,2249Z" style="fill:rgb(81,155,234);"/>
    <path d="M2450,2146L2483,2195L2456,2253L2423,2198L2450,2146Z" style="fill:rgb(204,140,255);"/>
    <path d="M2460,2129L2481,2075L2538,2060L2525,2123L2460,2129Z" style="fill:rgb(130,169,255);"/>
    <path d="M2465,2139L2529,2133L2496,2188L2465,2139Z" style="fill:rgb(130,169,255);"/>
    <path d="M2469,2245L2496,2188L2552,2208L2521,2248L2469,2245Z" style="fill:rgb(148,124,255);"/>
    <path d="M2529,2133L2545,2067L2596,2084L2578,2158L2529,2133Z" style="fill:rgb(109,193,255);"/>
    <path d="M2552,2208L2578,2158L2529,2133L2496,2188L2552,2208Z" style="fill:rgb(123,140,255);"/>
    <path d="M2578,2158L2631,2179L2609,2226L2552,2208L2578,2158Z" style="fill:rgb(103,169,255);"/>
    <path d="M2503,2202L2533,2214L2517,2233L2488,2231L2503,2202Z" style="fill:rgb(111,83,195);"/>
    <path d="M2566,2226L2538,2262L2583,2276L2616,2243L2566,2226Z" style="fill:rgb(123,147,255);"/>
    <path d="M2583,2276L2612,2324L2642,2283L2616,2243L2583,2276Z" style="fill:rgb(169,138,255);"/>
    <path d="M2664,2239L2694,2279L2642,2283L2616,2243L2664,2239Z" style="fill:rgb(148,128,255);"/>
    <path d="M2694,2279L2668,2327L2612,2324L2642,2283L2694,2279Z" style="fill:rgb(87,127,237);"/>
    <path d="M2555,2342L2606,2346L2580,2298L2538,2285L2555,2342Z" style="fill:rgb(95,152,228);"/>
    <path d="M2540,2382L2583,2384L2606,2346L2555,2342L2540,2382Z" style="fill:rgb(223,142,255);"/>
    <path d="M2657,2348L2606,2346L2583,2384L2630,2387L2657,2348Z" style="fill:rgb(143,129,255);"/>
    <path d="M2599,2427L2583,2384L2630,2387L2599,2427Z" style="fill:rgb(88,118,221);"/>
    <path d="M2469,2522L2475,2561L2509,2530L2498,2491L2469,2522Z" style="fill:rgb(46,101,158);"/>
    <path d="M2529,2462L2541,2502L2509,2530L2498,2491L2529,2462Z" style="fill:rgb(101,167,255);"/>
    <path d="M2517,2427L2529,2462L2498,2491L2483,2445L2517,2427Z" style="fill:rgb(137,126,255);"/>
    <path d="M2454,2479L2483,2445L2498,2491L2454,2479Z" style="fill:rgb(90,138,209);"/>
    <path d="M2517,2427L2555,2430L2571,2467L2541,2502L2517,2427Z" style="fill:rgb(94,159,255);"/>
    <path d="M2463,2473L2480,2454L2488,2481L2463,2473Z" style="fill:rgb(191,116,255);"/>
    <path d="M2494,2451L2512,2441L2519,2460L2502,2476L2494,2451Z" style="fill:rgb(255,142,255);"/>
    <path d="M2541,2474L2546,2489L2559,2476L2541,2474Z" style="fill:rgb(67,125,225);"/>
    <path d="M2642,2183L2621,2230L2672,2226L2642,2183Z" style="fill:rgb(224,141,255);"/>
    <path d="M2684,2233L2732,2226L2713,2272L2684,2233Z" style="fill:rgb(224,141,255);"/>
    <path d="M2612,2080L2594,2154L2646.5,2174L2648,2119L2612,2080Z" style="fill:rgb(117,210,255);"/>
    <path d="M2680,2066L2711,2109L2648,2119L2612,2080L2680,2066Z" style="fill:rgb(115,106,217);"/>
    <path d="M2699,2162L2646.5,2174L2648,2119L2711,2109L2699,2162Z" style="fill:rgb(126,125,244);"/>
    <path d="M2733,2206L2678,2217L2646.5,2174L2699,2162L2733,2206Z" style="fill:rgb(98,178,255);"/>
    <path d="M2666,2181L2695,2175L2714,2198L2683,2205L2666,2181Z" style="fill:rgb(96,150,255);"/>
    <path d="M2730,2051L2773,2089L2756,2148L2711,2109L2730,2051Z" style="fill:rgb(68,126,226);"/>
    <path d="M2733,2206L2756,2148L2711,2109L2699,2162L2733,2206Z" style="fill:rgb(71,141,248);"/>
    <path d="M2730,2041L2683,2057L2714,2096L2730,2041Z" style="fill:rgb(223,141,255);"/>
    <path d="M2516,1947L2506,2008L2568,1990L2516,1947Z" style="fill:rgb(101,159,246);"/>
    <path d="M2489,2062L2506,2008L2568,1990L2548,2047L2489,2062Z" style="fill:rgb(68,108,189);"/>
    <path d="M2619,1964L2660,2002L2612,2015L2568,1990L2619,1964Z" style="fill:rgb(92,141,215);"/>
    <path d="M2601,2065L2612,2015L2568,1990L2548,2047L2601,2065Z" style="fill:rgb(145,117,255);"/>
    <path d="M2669,2050L2660,2002L2612,2015L2601,2065L2669,2050Z" style="fill:rgb(81,115,210);"/>
    <path d="M2568,1911L2617,1956L2568,1980L2515,1939L2568,1911Z" style="fill:rgb(223,141,255);"/>
    <path d="M2515,1803L2562,1769L2571,1829L2518,1862L2515,1803Z" style="fill:rgb(97,119,228);"/>
    <path d="M2515,1925L2571,1899L2518,1862L2515,1925Z" style="fill:rgb(194,131,255);"/>
    <path d="M2626,1865L2571,1899L2518,1862L2571,1829L2626,1865Z" style="fill:rgb(102,168,250);"/>
    <path d="M2640,1784L2672,1831L2626,1865L2571,1829L2640,1784Z" style="fill:rgb(199,138,255);"/>
    <path d="M2628,1951L2676,1924L2635,1872L2580,1906L2628,1951Z" style="fill:rgb(209,142,255);"/>
    <path d="M2682,1837L2738,1902L2676,1924L2635,1872L2682,1837Z" style="fill:rgb(107,185,255);"/>
    <path d="M2608,1909L2631,1895L2648,1916L2628,1928L2608,1909Z" style="fill:rgb(160,105,255);"/>
    <path d="M2661,1877L2684,1860L2712,1890L2683,1901L2661,1877Z" style="fill:rgb(95,123,255);"/>
    <path d="M2789,2008L2778,2073L2734,2032L2736,1973L2789,2008Z" style="fill:rgb(142,253,255);"/>
    <path d="M2797,1948L2747,1914L2736,1973L2789,2008L2797,1948Z" style="fill:rgb(98,132,252);"/>
    <path d="M2685,1935L2736,1973L2747,1914L2685,1935Z" style="fill:rgb(104,166,255);"/>
    <path d="M2635,1961L2677,1997L2736,1973L2685,1935L2635,1961Z" style="fill:rgb(92,110,207);"/>
    <path d="M2685.5,2049L2734,2032L2736,1973L2677,1997L2685.5,2049Z" style="fill:rgb(123,109,222);"/>
    <path d="M2720,2022L2721,1994L2692,2003L2696,2028L2720,2022Z" style="fill:rgb(138,91,234);"/>
    <path d="M2681,1984L2716,1971L2684,1948L2655,1963L2681,1984Z" style="fill:rgb(65,68,144);"/>
    <path d="M2752,1897L2803,1931L2804,1866L2752,1836L2752,1897Z" style="fill:rgb(185,138,255);"/>
    <path d="M2742,1775L2803,1801L2804,1866L2752,1836L2742,1775Z" style="fill:rgb(103,172,255);"/>
    <path d="M2690,1833L2747,1897L2745,1836L2690,1833Z" style="fill:rgb(223,141,255);"/>
    <path d="M2733,1850L2733.49,1881.83L2703.17,1847.79L2733,1850Z" style="fill:rgb(155,94,205);"/>
    <path d="M2784,1729L2792,1786L2732,1764L2729,1708L2784,1729Z" style="fill:rgb(60,104,177);"/>
    <path d="M2740,1823L2684,1820L2652,1773L2732,1764L2740,1823Z" style="fill:rgb(100,143,255);"/>
    <path d="M2664,1695L2729,1708L2732,1764L2652,1773L2664,1695Z" style="fill:rgb(195,137,255);"/>
    <path d="M2609,1668L2618,1722L2652,1773L2664,1695L2609,1668Z" style="fill:rgb(104,163,255);"/>
    <path d="M2575,1754L2581,1821L2652,1773L2618,1722L2575,1754Z" style="fill:rgb(104,178,255);"/>
    <path d="M2652,1705L2647,1752L2625,1722L2619,1689L2652,1705Z" style="fill:rgb(116,117,255);"/>
    <path d="M2761,1594L2778,1656L2736,1692L2718,1638L2761,1594Z" style="fill:rgb(179,120,255);"/>
    <path d="M2673,1684L2736,1692L2718,1638L2673,1684Z" style="fill:rgb(104,180,255);"/>
    <path d="M2790,1713L2778,1656L2736,1692L2790,1713Z" style="fill:rgb(66,99,165);"/>
    <path d="M2499,1734L2510,1793L2556,1756L2499,1734Z" style="fill:rgb(224,140,255);"/>
    <path d="M2516,1752L2520,1774L2538,1760L2516,1752Z" style="fill:rgb(187,93,255);"/>
    <path d="M2578,1609L2595,1660L2545,1679L2524,1621L2578,1609Z" style="fill:rgb(118,174,255);"/>
    <path d="M2559.5,1744L2604,1714L2595,1660L2545,1679L2559.5,1744Z" style="fill:rgb(163,136,255);"/>
    <path d="M2487,1666L2524,1621L2545,1679L2487,1666Z" style="fill:rgb(112,206,255);"/>
    <path d="M2502,1723L2559.5,1744L2545,1679L2487,1666L2502,1723Z" style="fill:rgb(108,147,255);"/>
    <path d="M2502,1683L2511,1715L2545,1728L2536,1691L2502,1683Z" style="fill:rgb(114,122,249);"/>
    <path d="M2518,1638L2504,1656L2528,1662L2518,1638Z" style="fill:rgb(109,154,255);"/>
    <path d="M2556,1688L2566,1728L2593,1710L2587,1677L2556,1688Z" style="fill:rgb(152,111,255);"/>
    <path d="M2634,1609L2599,1546L2580,1594L2596,1642L2634,1609Z" style="fill:rgb(74,104,183);"/>
    <path d="M2574.5,1483L2516,1465L2520,1513L2599,1546L2574.5,1483Z" style="fill:rgb(88,142,207);"/>
    <path d="M2474,1507L2502,1556L2520,1513L2516,1465L2474,1507Z" style="fill:rgb(105,183,255);"/>
    <path d="M2523,1604L2580,1594L2502,1556L2523,1604Z" style="fill:rgb(119,115,236);"/>
    <path d="M2520,1513L2502,1556L2580,1594L2599,1546L2520,1513Z" style="fill:rgb(154,136,255);"/>
    <path d="M2663,1667L2707,1621L2647,1604L2610,1642L2663,1667Z" style="fill:rgb(103,175,252);"/>
    <path d="M2750,1580L2696,1564L2647,1604L2707,1621L2750,1580Z" style="fill:rgb(118,163,255);"/>
    <path d="M2731,1523L2696,1564L2750,1580L2731,1523Z" style="fill:rgb(125,148,255);"/>
    <path d="M2707,1470L2671,1516L2696,1564L2731,1523L2707,1470Z" style="fill:rgb(190,135,255);"/>
    <path d="M2678,1415L2628,1442L2671,1516L2707,1470L2678,1415Z" style="fill:rgb(122,120,234);"/>
    <path d="M2589,1483L2613,1542L2671,1516L2628,1442L2589,1483Z" style="fill:rgb(116,149,255);"/>
    <path d="M2647,1604L2613,1542L2671,1516L2696,1564L2647,1604Z" style="fill:rgb(118,144,255);"/>
    <path d="M2615,1488L2623,1510L2644,1501L2629,1474L2615,1488Z" style="fill:rgb(140,110,255);"/>
    <path d="M2673,1436L2690,1468L2670,1494L2644,1452L2673,1436Z" style="fill:rgb(168,97,255);"/>
    <path d="M2704,1490L2684,1516L2698,1544L2718,1520L2704,1490Z" style="fill:rgb(242,124,255);"/>
    <path d="M2728,1535L2741,1567L2708,1558L2728,1535Z" style="fill:rgb(85,91,179);"/>
    <path d="M2727,1585L2704,1607L2672,1599L2697,1577L2727,1585Z" style="fill:rgb(127,123,255);"/>
    <path d="M2564,1407L2527,1445L2581,1462L2617,1421L2564,1407Z" style="fill:rgb(146,143,255);"/>
    <path d="M2604,1367L2636,1381L2617,1421L2564,1407L2604,1367Z" style="fill:rgb(104,173,255);"/>
    <path d="M2632,1341L2636,1347L2636,1381L2604,1367L2632,1341Z" style="fill:rgb(72,137,249);"/>
    <path d="M2667,1394L2617,1421L2636,1381L2667,1394Z" style="fill:rgb(93,110,190);"/>
    <path d="M2599,1427L2578,1450L2545,1440L2567,1419L2599,1427Z" style="fill:rgb(123,103,219);"/>
    <path d="M2578,1402L2602,1378L2622,1386L2612,1410L2578,1402Z" style="fill:rgb(118,109,255);"/>
    <path d="M2642,1395L2649,1399L2636,1406L2642,1395Z" style="fill:rgb(70,80,141);"/>
    <path d="M2630,1372L2630,1352L2627,1350L2611,1364L2630,1372Z" style="fill:rgb(45,79,154);"/>
    <path d="M2429,1546L2464,1512L2491,1557L2456,1597L2429,1546Z" style="fill:rgb(155,133,255);"/>
    <path d="M2477,1654L2514,1608L2491,1557L2456,1597L2477,1654Z" style="fill:rgb(121,119,231);"/>
    <path d="M2472,1601L2481,1626L2497,1605.5L2487,1586L2472,1601Z" style="fill:rgb(146,91,250);"/>
    <path d="M2647,1345L2647,1373L2674,1385L2647,1345Z" style="fill:rgb(224,140,255);"/>
    <path d="M2492,1399L2547,1414L2507,1454L2453,1439L2492,1399Z" style="fill:rgb(101,171,244);"/>
    <path d="M2413,1479L2464,1496L2507,1454L2453,1439L2413,1479Z" style="fill:rgb(118,144,255);"/>
    <path d="M2428,1530L2464,1496L2413,1479L2428,1530Z" style="fill:rgb(91,100,187);"/>
    <path d="M2434,1516L2451,1502L2427,1496L2434,1516Z" style="fill:rgb(60,59,126);"/>
    <path d="M2492,1352L2525,1365L2531,1399L2494,1388L2492,1352Z" style="fill:rgb(223,144,255);"/>
    <path d="M2456,1383L2467,1415L2494,1388L2492,1352L2456,1383Z" style="fill:rgb(103,180,255);"/>
    <path d="M2499,1361L2500,1383L2523,1388L2520,1370L2499,1361Z" style="fill:rgb(185,111,251);"/>
    <path d="M1482,2387L1423,2403L1394,2355L1437,2350L1482,2387Z" style="fill:rgb(180,135,255);"/>
    <path d="M1419,2333L1437,2350L1394,2355L1419,2333Z" style="fill:rgb(100,126,214);"/>
    <path d="M1430,2390L1459,2382L1437,2364L1417,2366L1430,2390Z" style="fill:rgb(251,129,255);"/>
</svg>