<?xml version="1.0" encoding="UTF-8" standalone="no"?>
<!DOCTYPE svg PUBLIC "-//W3C//DTD SVG 1.1//EN" "http://www.w3.org/Graphics/SVG/1.1/DTD/svg11.dtd">
<svg width="100%" height="100%" viewBox="0 0 3736 3736" version="1.1" xmlns="http://www.w3.org/2000/svg" xmlns:xlink="http://www.w3.org/1999/xlink" xml:space="preserve" xmlns:serif="http://www.serif.com/" style="fill-rule:evenodd;clip-rule:evenodd;stroke-linejoin:round;stroke-miterlimit:2;">
    <path d="M597,3152L615,3121L600,3124L580,3153L597,3152Z" style="fill:rgb(35,85,109);"/>
    <path d="M644,3112L636,3088L688,3034L746,2978L761,2964L764,2985L720,3030L691,3058L666,3088L644,3112Z" style="fill:rgb(35,84,110);"/>
    <path d="M744,2985L745,2994L755,2985L753,2978L744,2985Z" style="fill:rgb(17,42,53);"/>
    <path d="M715,3011L719,3024L733,3010L730,2997L715,3011Z" style="fill:rgb(26,44,71);"/>
    <path d="M643,3087L647,3100L660,3087L657,3074L643,3087Z" style="fill:rgb(29,45,76);"/>
    <path d="M794,2929L800,2951L782,2968L777,2947L794,2929Z" style="fill:rgb(36,86,112);"/>
    <path d="M785,2960L795,2950L791,2937L780,2947L785,2960Z" style="fill:rgb(17,42,53);"/>
    <path d="M803,2895L805,2922L834,2903L832,2877L803,2895Z" style="fill:rgb(57,87,130);"/>
    <path d="M860,2859L863,2883L834,2903L832,2877L860,2859Z" style="fill:rgb(109,97,195);"/>
    <path d="M888,2838L893,2864L863,2883L860,2859L888,2838Z" style="fill:rgb(120,100,210);"/>
    <path d="M916,2819L919,2846L893,2864L888,2838L916,2819Z" style="fill:rgb(53,86,126);"/>
    <path d="M946,2800L948,2828L919,2846L916,2819L946,2800Z" style="fill:rgb(43,87,117);"/>
    <path d="M910,2830L895,2841.5L898,2854L912,2845L910,2830Z" style="fill:rgb(61,56,118);"/>
    <path d="M922,2820L925,2837L942,2826L941,2808L922,2820Z" style="fill:rgb(68,64,134);"/>
    <path d="M980,2765L999,2758L994,2751L980,2765Z" style="fill:rgb(36,85,110);"/>
    <path d="M1089,2633L1074,2646L1078,2649L1089,2633Z" style="fill:rgb(35,86,111);"/>
    <path d="M999,2758L1026,2718L1024,2709L994,2751L999,2758Z" style="fill:rgb(35,85,109);"/>
    <path d="M1055,2672L1024,2709L1026,2718L1057,2678L1055,2672Z" style="fill:rgb(35,85,109);"/>
    <path d="M1078,2649L1074,2646L1055,2672L1057,2678L1078,2649Z" style="fill:rgb(36,87,112);"/>
    <path d="M1196,2536L1196,2549L1225,2516L1231,2502L1196,2536Z" style="fill:rgb(35,85,110);"/>
    <path d="M1172,2572L1167,2561L1180,2549L1185,2560L1172,2572Z" style="fill:rgb(122,156,255);"/>
    <path d="M1192,2536L1194,2551L1185,2560L1180,2549L1192,2536Z" style="fill:rgb(106,185,255);"/>
    <path d="M1219,2503L1223,2527L1245,2506L1237,2486L1219,2503Z" style="fill:rgb(122,156,255);"/>
    <path d="M1258,2465L1266,2486L1245,2506L1237,2486L1258,2465Z" style="fill:rgb(106,185,255);"/>
    <path d="M1265,2458L1266,2480L1247,2501L1245,2483L1265,2458Z" style="fill:rgb(35,84,110);"/>
    <path d="M1270,2450L1279,2474L1305,2448L1296,2424L1270,2450Z" style="fill:rgb(41,94,137);"/>
    <path d="M1351,2402L1322,2397L1296,2424L1305,2448L1351,2402Z" style="fill:rgb(106,185,255);"/>
    <path d="M1277,2450L1281,2464L1298,2448L1293,2435L1277,2450Z" style="fill:rgb(20,47,69);"/>
    <path d="M1309,2436L1298,2448L1305,2419L1309,2436Z" style="fill:rgb(49,86,122);"/>
    <path d="M1337,2411L1325.91,2397.67L1305,2419L1309,2435L1337,2411Z" style="fill:rgb(35,85,110);"/>
    <path d="M1370,2362L1375,2381L1337,2411L1325.91,2397.67L1370,2362Z" style="fill:rgb(40,85,114);"/>
    <path d="M1359,2379L1359,2386.5L1366,2381L1364,2375L1359,2379Z" style="fill:rgb(99,80,182);"/>
    <path d="M1343,2386.5L1347,2396L1337,2407L1332,2397.67L1343,2386.5Z" style="fill:rgb(56,113,198);"/>
    <path d="M1386,2336L1393,2358L1369,2379L1361,2361L1386,2336Z" style="fill:rgb(37,88,121);"/>
    <path d="M1380,2353L1381,2361L1374,2366L1372,2361L1380,2353Z" style="fill:rgb(19,46,71);"/>
    <path d="M1417,2306L1422,2326L1391.41,2353L1386,2336L1417,2306Z" style="fill:rgb(29,56,92);"/>
    <path d="M1393,2334L1396,2346L1414,2327L1412,2316L1393,2334Z" style="fill:rgb(227,116,255);"/>
    <path d="M1422,2331L1393,2325L1463,2256L1473,2281L1422,2331Z" style="fill:rgb(105,185,255);"/>
    <path d="M1463,2266L1465,2285L1422,2326L1417,2306L1463,2266Z" style="fill:rgb(35,85,110);"/>
    <path d="M1497,2224L1506,2249L1480,2272L1473,2246L1497,2224Z" style="fill:rgb(89,93,168);"/>
    <path d="M1526,2195L1534,2219L1510,2241L1502,2217L1526,2195Z" style="fill:rgb(112,97,198);"/>
    <path d="M1492,2213L1510,2206L1526.61,2225.78L1502,2230L1492,2213Z" style="fill:rgb(149,130,255);"/>
    <path d="M1542,2175L1552,2201L1576,2177L1567,2152L1542,2175Z" style="fill:rgb(223,136,255);"/>
    <path d="M1592,2127L1602,2152L1576,2177L1567,2152L1592,2127Z" style="fill:rgb(197,134,255);"/>
    <path d="M1618,2102L1627,2127L1602,2152L1592,2127L1618,2102Z" style="fill:rgb(132,145,255);"/>
    <path d="M1642,2077L1652,2102L1627,2127L1618,2102L1642,2077Z" style="fill:rgb(114,117,235);"/>
    <path d="M1667,2052L1677,2077L1652,2102L1642,2077L1667,2052Z" style="fill:rgb(162,118,255);"/>
    <path d="M1693,2027L1703,2052L1677,2077L1667,2052L1693,2027Z" style="fill:rgb(188,139,255);"/>
    <path d="M1718,2003L1728,2027L1703,2052L1693,2027L1718,2003Z" style="fill:rgb(91,123,234);"/>
    <path d="M1624,2102L1630,2117L1646,2101L1640,2087L1624,2102Z" style="fill:rgb(68,76,161);"/>
    <path d="M1674,2052L1681,2066L1695,2052L1690,2038L1674,2052Z" style="fill:rgb(139,126,254);"/>
    <path d="M1700,2027.5L1706,2042L1721,2026L1715,2013L1700,2027.5Z" style="fill:rgb(56,83,166);"/>
    <path d="M1742,1976L1752,2003L1778,1976L1769,1951L1742,1976Z" style="fill:rgb(152,121,220);"/>
    <path d="M1794,1925L1804,1951L1778,1976L1769,1951L1794,1925Z" style="fill:rgb(219,125,141);"/>
    <path d="M1820,1899L1829,1925L1804,1950.5L1794,1925L1820,1899Z" style="fill:rgb(133,116,231);"/>
    <path d="M1845,1873L1855,1900L1829,1924.75L1820,1899L1845,1873Z" style="fill:rgb(148,121,234);"/>
    <path d="M1871,1848L1880,1873L1855,1900L1845,1873L1871,1848Z" style="fill:rgb(154,111,213);"/>
    <path d="M1897,1822L1907,1848L1880,1873L1871,1848L1897,1822Z" style="fill:rgb(217,116,105);"/>
    <path d="M1746,1976L1753,1997L1775,1976L1768,1955L1746,1976Z" style="fill:rgb(161,118,119);"/>
    <path d="M1798,1924.75L1804,1943L1825,1924.75L1819,1904L1798,1924.75Z" style="fill:rgb(224,166,91);"/>
    <path d="M1823,1900L1830,1919L1851,1898L1845,1879L1823,1900Z" style="fill:rgb(217,194,69);"/>
    <path d="M1854,1873L1858,1885L1871,1874L1868,1861L1854,1873Z" style="fill:rgb(242,202,75);"/>
    <path d="M1934,1822L1923,1795L1948,1769L1959,1796L1934,1822Z" style="fill:rgb(183,121,255);"/>
    <path d="M1974,1743L1984,1771L1959,1795.5L1948,1769L1974,1743Z" style="fill:rgb(148,111,253);"/>
    <path d="M2000,1718L2010,1745L1984,1771L1974,1743L2000,1718Z" style="fill:rgb(147,136,255);"/>
    <path d="M2025,1693L2036,1718L2010,1745L2000,1718L2025,1693Z" style="fill:rgb(119,122,248);"/>
    <path d="M2051,1666L2062,1694L2036,1718L2025,1693L2051,1666Z" style="fill:rgb(178,124,255);"/>
    <path d="M2077,1641L2087,1668L2062,1694L2051,1666L2077,1641Z" style="fill:rgb(175,138,255);"/>
    <path d="M2103,1615L2112,1642L2087,1668L2077,1641L2103,1615Z" style="fill:rgb(102,129,250);"/>
    <path d="M2128,1590L2139,1617L2112,1642L2103,1615L2128,1590Z" style="fill:rgb(108,132,255);"/>
    <path d="M2154,1564L2164,1590L2139,1617L2128,1590L2154,1564Z" style="fill:rgb(172,117,255);"/>
    <path d="M1956,1770L1961,1785L1977,1770L1971,1755L1956,1770Z" style="fill:rgb(133,100,255);"/>
    <path d="M1982,1745L1988,1759L2003,1744L1997,1729L1982,1745Z" style="fill:rgb(78,122,255);"/>
    <path d="M2033,1693L2038,1707L2054,1693L2049,1677L2033,1693Z" style="fill:rgb(163,90,255);"/>
    <path d="M2087,1641L2091,1652L2103,1641L2099,1631L2087,1641Z" style="fill:rgb(70,97,196);"/>
    <path d="M2110,1617L2115,1631L2132,1616L2125,1601L2110,1617Z" style="fill:rgb(100,118,255);"/>
    <path d="M2184,1526L2193,1551L2217,1530L2209,1503L2184,1526Z" style="fill:rgb(112,111,217);"/>
    <path d="M2235,1480L2244,1506L2217,1530L2209,1503L2235,1480Z" style="fill:rgb(142,120,235);"/>
    <path d="M2260,1460L2269,1483L2244,1506L2235,1480L2260,1460Z" style="fill:rgb(126,111,214);"/>
    <path d="M2286,1435L2294,1462L2269,1483L2260,1460L2286,1435Z" style="fill:rgb(213,120,133);"/>
    <path d="M2311,1412L2318,1439L2294,1462L2286,1435L2311,1412Z" style="fill:rgb(143,119,234);"/>
    <path d="M2338,1390L2345,1416L2318,1439L2311,1412L2338,1390Z" style="fill:rgb(197,162,85);"/>
    <path d="M2363,1367L2368,1393L2345,1416L2338,1390L2363,1367Z" style="fill:rgb(118,115,228);"/>
    <path d="M2215,1504L2219,1521L2239,1505L2234,1488L2215,1504Z" style="fill:rgb(199,169,80);"/>
    <path d="M2246,1487L2248,1490L2252,1484L2246,1487Z" style="fill:rgb(218,146,117);"/>
    <path d="M2348,1390L2350,1398L2359,1391.5L2356,1384L2348,1390Z" style="fill:rgb(204,163,90);"/>
    <path d="M2374,1344L2384,1371L2362,1391L2348,1371L2374,1344Z" style="fill:rgb(184,116,216);"/>
    <path d="M2397,1322L2411,1344L2384,1371L2374,1344L2397,1322Z" style="fill:rgb(255,223,102);"/>
    <path d="M2408,1317L2415,1335L2390,1361L2383,1340L2408,1317Z" style="fill:rgb(74,55,66);"/>
    <path d="M2396,1331L2401,1344L2388.5,1356.5L2384.33,1344L2396,1331Z" style="fill:rgb(181,163,41);"/>
    <path d="M2433,1292L2441,1314L2415,1339L2408,1314L2433,1292Z" style="fill:rgb(252,176,99);"/>
    <path d="M2430,1291L2438,1314L2417,1334L2408,1312L2430,1291Z" style="fill:rgb(249,214,70);"/>
    <path d="M2439,1280L2448,1305L2472,1282L2463,1260L2439,1280Z" style="fill:rgb(255,238,65);"/>
    <path d="M2486,1235L2495,1258L2472,1282L2463,1260L2486,1235Z" style="fill:rgb(255,151,139);"/>
    <path d="M2470,1258L2475,1271L2488,1258L2483,1244L2470,1258Z" style="fill:rgb(143,94,140);"/>
    <path d="M2536,1186L2513,1207L2516,1230L2539,1207L2536,1186Z" style="fill:rgb(108,107,207);"/>
    <path d="M2523,1204L2527.72,1218.28L2513,1233L2508,1218.28L2523,1204Z" style="fill:rgb(183,117,215);"/>
    <path d="M2538,1189L2539,1207L2527.72,1218.28L2523,1204L2538,1189Z" style="fill:rgb(255,228,102);"/>
    <path d="M2526,1203.64L2529,1213L2538.57,1204L2536,1194L2526,1203.64Z" style="fill:rgb(177,163,41);"/>
    <path d="M2581,1143L2586,1163L2577,1171L2569,1156L2581,1143Z" style="fill:rgb(50,39,42);"/>
    <path d="M2564,1161L2564,1176L2575.47,1168.14L2569,1156L2564,1161Z" style="fill:rgb(44,37,22);"/>
    <path d="M2555,1168.14L2556,1186L2564,1175L2564,1161L2555,1168.14Z" style="fill:rgb(51,41,39);"/>
    <path d="M2545,1183L2556,1186L2555,1168.14L2545,1183Z" style="fill:rgb(51,42,37);"/>
    <path d="M2540,1206L2545,1183L2556,1186L2556,1192L2540,1206Z" style="fill:rgb(53,45,28);"/>
    <path d="M2651,1075L2656,1099L2588,1162L2582,1140L2651,1075Z" style="fill:rgb(107,107,206);"/>
    <path d="M2605,1126L2605,1140L2589,1155L2585,1140L2605,1126Z" style="fill:rgb(30,24,16);"/>
    <path d="M2612,1120L2615,1126L2605,1134L2605,1126L2612,1120Z" style="fill:rgb(235,186,71);"/>
    <path d="M2705,1042L2704,1049L2710,1049L2705,1042Z" style="fill:rgb(136,123,251);"/>
    <path d="M2680,1067L2690,1053L2702,1044L2680,1067Z" style="fill:rgb(149,150,221);"/>
    <path d="M2719,1022L2708,1036L2708,1028L2719,1022Z" style="fill:rgb(67,66,128);"/>
    <path d="M2702,1032L2691,1050L2708,1036L2708,1028L2702,1032Z" style="fill:rgb(108,107,207);"/>
    <path d="M2732,1012L2702,1031L2713.5,1016L2732,1012Z"/>
    <path d="M2734,1003L2726.23,1013.25L2713.5,1016L2734,1003Z" style="fill:rgb(108,109,208);"/>
    <path d="M2733,988L2713.5,1007L2749,987L2755,980L2733,988Z" style="fill:rgb(1,1,0);"/>
    <path d="M2756,985L2734,1003L2713.5,1007L2756,985Z" style="fill:rgb(73,44,20);"/>
    <path d="M2771,957L2771,974L2787,957L2789,939L2771,957Z" style="fill:rgb(108,107,207);"/>
    <path d="M2809,924L2805,941L2787.06,956.5L2789,939L2809,924Z"/>
    <path d="M2829,908L2844,904L2853,887L2841,892L2829,908Z" style="fill:rgb(107,107,206);"/>
    <path d="M2862,870L2850,876L2841,892L2853,887L2862,870Z" style="fill:rgb(5,0,0);"/>
    <path d="M2899,831L2902,850L2883,861L2879,842L2899,831Z" style="fill:rgb(107,107,206);"/>
    <path d="M2916,807L2920,823L2952,798L2948,782L2916,807Z" style="fill:rgb(109,109,211);"/>
    <path d="M2967,775L2987,743L2990,743L2973,775L2967,775Z" style="fill:rgb(63,67,124);"/>
    <path d="M3025,708L3035,704L3026,716L3012,724L3025,708Z"/>
    <path d="M3073,654L3073,671L3058,689L3058,671L3073,654Z" style="fill:rgb(109,109,210);"/>
    <path d="M3061,671.5L3060,678L3070,670L3070,662L3061,671.5Z" style="fill:rgb(0,0,1);"/>
    <path d="M3153,579L3138,594L3135,594L3153,579Z" style="fill:rgb(14,20,31);"/>
    <path d="M3114,629L3118,616L3135,594L3138,594L3114,629Z" style="fill:rgb(1,1,2);"/>
    <path d="M3101,650L3108,632L3116.2,621.835L3114,629L3101,650Z" style="fill:rgb(105,105,202);"/>
</svg>