<svg width="133" height="23" xmlns="http://www.w3.org/2000/svg"><g fill="#FFF" fill-rule="nonzero"><path d="M24.3.328h5.86c8.31 0 12.779 3.824 12.779 10.698 0 6.574-4.04 10.755-12.983 10.755h-5.655V.328zm5.853 17.329c5.768 0 8.191-2.4 8.191-6.639 0-2.25-.864-4.145-2.424-5.27-1.468-1.069-3.463-1.304-5.795-1.304H28.88v13.213h1.272zM50.547 12.087L42.496.327h5.34L50.37 4.21c.808 1.218 1.7 2.636 2.508 3.94h.057a227.469 227.469 0 012.508-3.968L57.952.328h5.163l-7.988 11.73v9.715H50.54v-9.686h.007zM64.45 15.848c2.248 1.481 4.904 2.13 6.548 2.13 1.672 0 2.915-.685 2.915-2.28 0-1.987-1.96-2.165-4.643-3.048-2.888-.976-5.48-2.43-5.48-6.161C63.79 2.486 66.734 0 71.117 0c2.052 0 4.56.534 6.372 1.538V6.19c-2.22-1.424-4.79-2.072-6.407-2.072-1.56 0-2.683.591-2.683 2.015 0 1.895 1.932 2.045 4.44 2.906 3.147 1.069 5.683 2.579 5.683 6.368 0 4.174-3.084 6.695-7.587 6.695-2.08 0-4.588-.534-6.492-1.51v-4.743h.007zM81.065 15.848c2.248 1.481 4.904 2.13 6.548 2.13 1.672 0 2.915-.685 2.915-2.28 0-1.987-1.96-2.165-4.644-3.048-2.887-.976-5.48-2.43-5.48-6.161C80.405 2.486 83.349 0 87.733 0c2.052 0 4.56.534 6.372 1.538V6.19c-2.22-1.424-4.791-2.072-6.407-2.072-1.56 0-2.684.591-2.684 2.015 0 1.895 1.932 2.045 4.44 2.906 3.148 1.069 5.684 2.579 5.684 6.368 0 4.174-3.084 6.695-7.588 6.695-2.08 0-4.587-.534-6.491-1.51v-4.743h.007zM97.828.328h12.891v4.116h-8.311v4.21h7.152v3.91h-7.152v5.093h8.627v4.116H97.82V.328zM119.774 12.087L111.723.327h5.34l2.536 3.882a158.29 158.29 0 012.508 3.94h.056a228.666 228.666 0 012.508-3.968l2.508-3.853h5.164l-7.988 11.73v9.715h-4.588v-9.686h.007zM20.767.342l.168.17L.17 21.846 0 21.674z"/><path d="M20.767.342l.168.17L.17 21.846 0 21.674z"/><path d="M3.351 11.047c0-4.06 3.204-7.35 7.159-7.35a7.05 7.05 0 015.15 2.243l2.367-2.429C16.117 1.503 13.453.256 10.51.256 4.707.256 0 5.086 0 11.047c0 2.158.618 4.167 1.686 5.855l2.48-2.45a7.458 7.458 0 01-.815-3.405zM19.214 5l-2.438 2.493a7.46 7.46 0 01.893 3.554c0 4.06-3.204 7.35-7.16 7.35-2.022 0-3.849-.861-5.156-2.25l-2.367 2.428c1.91 2.009 4.573 3.263 7.524 3.263 5.803 0 10.51-4.83 10.51-10.791 0-2.236-.668-4.323-1.806-6.047z"/></g></svg>